<?xml version="1.0" encoding="UTF-8"?>
<svg xmlns="http://www.w3.org/2000/svg" width="1080" height="840" viewBox="0 0 1080 840" font-family="system-ui,sans-serif">
<rect width="1080" height="840" fill="#fff" rx="6"/>
<text x="72" y="24" font-size="15" font-weight="600" fill="#1e293b">hdi benchmark - median parse time</text>
<line x1="72" y1="790.0" x2="970" y2="790.0" stroke="#e2e8f0" stroke-width="1"/>
<text x="64" y="794.0" text-anchor="end" font-size="11" fill="#64748b">0</text>
<line x1="72" y1="760.2" x2="970" y2="760.2" stroke="#e2e8f0" stroke-width="1"/>
<text x="64" y="764.2" text-anchor="end" font-size="11" fill="#64748b">50</text>
<line x1="72" y1="730.3" x2="970" y2="730.3" stroke="#e2e8f0" stroke-width="1"/>
<text x="64" y="734.3" text-anchor="end" font-size="11" fill="#64748b">100</text>
<line x1="72" y1="700.5" x2="970" y2="700.5" stroke="#e2e8f0" stroke-width="1"/>
<text x="64" y="704.5" text-anchor="end" font-size="11" fill="#64748b">150</text>
<line x1="72" y1="670.6" x2="970" y2="670.6" stroke="#e2e8f0" stroke-width="1"/>
<text x="64" y="674.6" text-anchor="end" font-size="11" fill="#64748b">200</text>
<line x1="72" y1="640.8" x2="970" y2="640.8" stroke="#e2e8f0" stroke-width="1"/>
<text x="64" y="644.8" text-anchor="end" font-size="11" fill="#64748b">250</text>
<line x1="72" y1="611.0" x2="970" y2="611.0" stroke="#e2e8f0" stroke-width="1"/>
<text x="64" y="615.0" text-anchor="end" font-size="11" fill="#64748b">300</text>
<line x1="72" y1="581.1" x2="970" y2="581.1" stroke="#e2e8f0" stroke-width="1"/>
<text x="64" y="585.1" text-anchor="end" font-size="11" fill="#64748b">350</text>
<line x1="72" y1="551.3" x2="970" y2="551.3" stroke="#e2e8f0" stroke-width="1"/>
<text x="64" y="555.3" text-anchor="end" font-size="11" fill="#64748b">400</text>
<line x1="72" y1="521.4" x2="970" y2="521.4" stroke="#e2e8f0" stroke-width="1"/>
<text x="64" y="525.4" text-anchor="end" font-size="11" fill="#64748b">450</text>
<line x1="72" y1="491.6" x2="970" y2="491.6" stroke="#e2e8f0" stroke-width="1"/>
<text x="64" y="495.6" text-anchor="end" font-size="11" fill="#64748b">500</text>
<line x1="72" y1="461.8" x2="970" y2="461.8" stroke="#e2e8f0" stroke-width="1"/>
<text x="64" y="465.8" text-anchor="end" font-size="11" fill="#64748b">550</text>
<line x1="72" y1="431.9" x2="970" y2="431.9" stroke="#e2e8f0" stroke-width="1"/>
<text x="64" y="435.9" text-anchor="end" font-size="11" fill="#64748b">600</text>
<line x1="72" y1="402.1" x2="970" y2="402.1" stroke="#e2e8f0" stroke-width="1"/>
<text x="64" y="406.1" text-anchor="end" font-size="11" fill="#64748b">650</text>
<line x1="72" y1="372.2" x2="970" y2="372.2" stroke="#e2e8f0" stroke-width="1"/>
<text x="64" y="376.2" text-anchor="end" font-size="11" fill="#64748b">700</text>
<line x1="72" y1="342.4" x2="970" y2="342.4" stroke="#e2e8f0" stroke-width="1"/>
<text x="64" y="346.4" text-anchor="end" font-size="11" fill="#64748b">750</text>
<line x1="72" y1="312.6" x2="970" y2="312.6" stroke="#e2e8f0" stroke-width="1"/>
<text x="64" y="316.6" text-anchor="end" font-size="11" fill="#64748b">800</text>
<line x1="72" y1="282.7" x2="970" y2="282.7" stroke="#e2e8f0" stroke-width="1"/>
<text x="64" y="286.7" text-anchor="end" font-size="11" fill="#64748b">850</text>
<line x1="72" y1="252.9" x2="970" y2="252.9" stroke="#e2e8f0" stroke-width="1"/>
<text x="64" y="256.9" text-anchor="end" font-size="11" fill="#64748b">900</text>
<line x1="72" y1="223.0" x2="970" y2="223.0" stroke="#e2e8f0" stroke-width="1"/>
<text x="64" y="227.0" text-anchor="end" font-size="11" fill="#64748b">950</text>
<line x1="72" y1="193.2" x2="970" y2="193.2" stroke="#e2e8f0" stroke-width="1"/>
<text x="64" y="197.2" text-anchor="end" font-size="11" fill="#64748b">1000</text>
<line x1="72" y1="163.4" x2="970" y2="163.4" stroke="#e2e8f0" stroke-width="1"/>
<text x="64" y="167.4" text-anchor="end" font-size="11" fill="#64748b">1050</text>
<line x1="72" y1="133.5" x2="970" y2="133.5" stroke="#e2e8f0" stroke-width="1"/>
<text x="64" y="137.5" text-anchor="end" font-size="11" fill="#64748b">1100</text>
<line x1="72" y1="103.7" x2="970" y2="103.7" stroke="#e2e8f0" stroke-width="1"/>
<text x="64" y="107.7" text-anchor="end" font-size="11" fill="#64748b">1150</text>
<line x1="72" y1="73.8" x2="970" y2="73.8" stroke="#e2e8f0" stroke-width="1"/>
<text x="64" y="77.8" text-anchor="end" font-size="11" fill="#64748b">1200</text>
<line x1="72" y1="44.0" x2="970" y2="44.0" stroke="#e2e8f0" stroke-width="1"/>
<text x="64" y="48.0" text-anchor="end" font-size="11" fill="#64748b">1250</text>
<text x="14" y="417" font-size="11" fill="#64748b" transform="rotate(-90,14,417)">ms</text>
<text x="72.0" y="810" text-anchor="middle" font-size="11" fill="#64748b">0.7.0</text>
<text x="153.6" y="810" text-anchor="middle" font-size="11" fill="#64748b">0.8.0</text>
<text x="235.3" y="810" text-anchor="middle" font-size="11" fill="#64748b">0.9.0</text>
<text x="316.9" y="810" text-anchor="middle" font-size="11" fill="#64748b">0.10.0</text>
<text x="398.5" y="810" text-anchor="middle" font-size="11" fill="#64748b">0.11.0</text>
<text x="480.2" y="810" text-anchor="middle" font-size="11" fill="#64748b">0.12.0</text>
<text x="561.8" y="810" text-anchor="middle" font-size="11" fill="#64748b">0.13.0</text>
<text x="643.5" y="810" text-anchor="middle" font-size="11" fill="#64748b">0.14.0</text>
<text x="725.1" y="810" text-anchor="middle" font-size="11" fill="#64748b">0.15.0</text>
<text x="806.7" y="810" text-anchor="middle" font-size="11" fill="#64748b">0.16.0</text>
<text x="888.4" y="810" text-anchor="middle" font-size="11" fill="#64748b">0.17.0</text>
<text x="970.0" y="810" text-anchor="middle" font-size="11" fill="#64748b">0.17.1</text>
<text x="521" y="830" text-anchor="middle" font-size="11" fill="#64748b">release</text>
<polyline fill="none" stroke="#2563eb" stroke-width="2" stroke-linejoin="round" points="72.0,731.0 153.6,730.1 235.3,728.6 316.9,776.7 398.5,777.3 480.2,776.1 561.8,778.0 643.5,777.9 725.1,776.3 806.7,777.1 888.4,777.2 970.0,777.3"/>
<circle cx="72.0" cy="731.0" r="3.5" fill="#2563eb" stroke="#fff" stroke-width="1.5"/>
<circle cx="153.6" cy="730.1" r="3.5" fill="#2563eb" stroke="#fff" stroke-width="1.5"/>
<circle cx="235.3" cy="728.6" r="3.5" fill="#2563eb" stroke="#fff" stroke-width="1.5"/>
<circle cx="316.9" cy="776.7" r="3.5" fill="#2563eb" stroke="#fff" stroke-width="1.5"/>
<circle cx="398.5" cy="777.3" r="3.5" fill="#2563eb" stroke="#fff" stroke-width="1.5"/>
<circle cx="480.2" cy="776.1" r="3.5" fill="#2563eb" stroke="#fff" stroke-width="1.5"/>
<circle cx="561.8" cy="778.0" r="3.5" fill="#2563eb" stroke="#fff" stroke-width="1.5"/>
<circle cx="643.5" cy="777.9" r="3.5" fill="#2563eb" stroke="#fff" stroke-width="1.5"/>
<circle cx="725.1" cy="776.3" r="3.5" fill="#2563eb" stroke="#fff" stroke-width="1.5"/>
<circle cx="806.7" cy="777.1" r="3.5" fill="#2563eb" stroke="#fff" stroke-width="1.5"/>
<circle cx="888.4" cy="777.2" r="3.5" fill="#2563eb" stroke="#fff" stroke-width="1.5"/>
<circle cx="970.0" cy="777.3" r="3.5" fill="#2563eb" stroke="#fff" stroke-width="1.5"/>
<polyline fill="none" stroke="#16a34a" stroke-width="2" stroke-linejoin="round" points="72.0,511.4 153.6,506.6 235.3,490.2 316.9,759.0 398.5,762.2 480.2,759.0 561.8,762.0 643.5,762.2 725.1,759.4 806.7,759.1 888.4,760.9 970.0,761.0"/>
<circle cx="72.0" cy="511.4" r="3.5" fill="#16a34a" stroke="#fff" stroke-width="1.5"/>
<circle cx="153.6" cy="506.6" r="3.5" fill="#16a34a" stroke="#fff" stroke-width="1.5"/>
<circle cx="235.3" cy="490.2" r="3.5" fill="#16a34a" stroke="#fff" stroke-width="1.5"/>
<circle cx="316.9" cy="759.0" r="3.5" fill="#16a34a" stroke="#fff" stroke-width="1.5"/>
<circle cx="398.5" cy="762.2" r="3.5" fill="#16a34a" stroke="#fff" stroke-width="1.5"/>
<circle cx="480.2" cy="759.0" r="3.5" fill="#16a34a" stroke="#fff" stroke-width="1.5"/>
<circle cx="561.8" cy="762.0" r="3.5" fill="#16a34a" stroke="#fff" stroke-width="1.5"/>
<circle cx="643.5" cy="762.2" r="3.5" fill="#16a34a" stroke="#fff" stroke-width="1.5"/>
<circle cx="725.1" cy="759.4" r="3.5" fill="#16a34a" stroke="#fff" stroke-width="1.5"/>
<circle cx="806.7" cy="759.1" r="3.5" fill="#16a34a" stroke="#fff" stroke-width="1.5"/>
<circle cx="888.4" cy="760.9" r="3.5" fill="#16a34a" stroke="#fff" stroke-width="1.5"/>
<circle cx="970.0" cy="761.0" r="3.5" fill="#16a34a" stroke="#fff" stroke-width="1.5"/>
<polyline fill="none" stroke="#ea580c" stroke-width="2" stroke-linejoin="round" points="72.0,243.7 153.6,199.3 235.3,208.8 316.9,733.2 398.5,731.3 480.2,728.4 561.8,730.8 643.5,730.6 725.1,728.6 806.7,725.7 888.4,728.8 970.0,729.0"/>
<circle cx="72.0" cy="243.7" r="3.5" fill="#ea580c" stroke="#fff" stroke-width="1.5"/>
<circle cx="153.6" cy="199.3" r="3.5" fill="#ea580c" stroke="#fff" stroke-width="1.5"/>
<circle cx="235.3" cy="208.8" r="3.5" fill="#ea580c" stroke="#fff" stroke-width="1.5"/>
<circle cx="316.9" cy="733.2" r="3.5" fill="#ea580c" stroke="#fff" stroke-width="1.5"/>
<circle cx="398.5" cy="731.3" r="3.5" fill="#ea580c" stroke="#fff" stroke-width="1.5"/>
<circle cx="480.2" cy="728.4" r="3.5" fill="#ea580c" stroke="#fff" stroke-width="1.5"/>
<circle cx="561.8" cy="730.8" r="3.5" fill="#ea580c" stroke="#fff" stroke-width="1.5"/>
<circle cx="643.5" cy="730.6" r="3.5" fill="#ea580c" stroke="#fff" stroke-width="1.5"/>
<circle cx="725.1" cy="728.6" r="3.5" fill="#ea580c" stroke="#fff" stroke-width="1.5"/>
<circle cx="806.7" cy="725.7" r="3.5" fill="#ea580c" stroke="#fff" stroke-width="1.5"/>
<circle cx="888.4" cy="728.8" r="3.5" fill="#ea580c" stroke="#fff" stroke-width="1.5"/>
<circle cx="970.0" cy="729.0" r="3.5" fill="#ea580c" stroke="#fff" stroke-width="1.5"/>
<polyline fill="none" stroke="#dc2626" stroke-width="2" stroke-linejoin="round" points="72.0,142.9 153.6,154.9 235.3,133.2 316.9,717.4 398.5,723.3 480.2,719.0 561.8,724.2 643.5,724.1 725.1,721.9 806.7,718.8 888.4,722.1 970.0,722.4"/>
<circle cx="72.0" cy="142.9" r="3.5" fill="#dc2626" stroke="#fff" stroke-width="1.5"/>
<circle cx="153.6" cy="154.9" r="3.5" fill="#dc2626" stroke="#fff" stroke-width="1.5"/>
<circle cx="235.3" cy="133.2" r="3.5" fill="#dc2626" stroke="#fff" stroke-width="1.5"/>
<circle cx="316.9" cy="717.4" r="3.5" fill="#dc2626" stroke="#fff" stroke-width="1.5"/>
<circle cx="398.5" cy="723.3" r="3.5" fill="#dc2626" stroke="#fff" stroke-width="1.5"/>
<circle cx="480.2" cy="719.0" r="3.5" fill="#dc2626" stroke="#fff" stroke-width="1.5"/>
<circle cx="561.8" cy="724.2" r="3.5" fill="#dc2626" stroke="#fff" stroke-width="1.5"/>
<circle cx="643.5" cy="724.1" r="3.5" fill="#dc2626" stroke="#fff" stroke-width="1.5"/>
<circle cx="725.1" cy="721.9" r="3.5" fill="#dc2626" stroke="#fff" stroke-width="1.5"/>
<circle cx="806.7" cy="718.8" r="3.5" fill="#dc2626" stroke="#fff" stroke-width="1.5"/>
<circle cx="888.4" cy="722.1" r="3.5" fill="#dc2626" stroke="#fff" stroke-width="1.5"/>
<circle cx="970.0" cy="722.4" r="3.5" fill="#dc2626" stroke="#fff" stroke-width="1.5"/>
<circle cx="986" cy="48" r="5" fill="#2563eb"/>
<text x="998" y="52" font-size="12" fill="#334155">small</text>
<circle cx="986" cy="70" r="5" fill="#16a34a"/>
<text x="998" y="74" font-size="12" fill="#334155">medium</text>
<circle cx="986" cy="92" r="5" fill="#ea580c"/>
<text x="998" y="96" font-size="12" fill="#334155">large</text>
<circle cx="986" cy="114" r="5" fill="#dc2626"/>
<text x="998" y="118" font-size="12" fill="#334155">stress</text>
</svg>
