<?xml version="1.0" encoding="UTF-8"?>
<svg xmlns="http://www.w3.org/2000/svg" width="1080" height="810" viewBox="0 0 1080 810" font-family="system-ui,sans-serif">
<rect width="1080" height="810" fill="#fff" rx="6"/>
<text x="72" y="28" font-size="15" font-weight="600" fill="#1e293b">hdi benchmark - median parse time</text>
<line x1="72" y1="344.0" x2="970" y2="344.0" stroke="#e2e8f0" stroke-width="1"/>
<text x="64" y="348.0" text-anchor="end" font-size="11" fill="#64748b">0</text>
<line x1="72" y1="332.0" x2="970" y2="332.0" stroke="#e2e8f0" stroke-width="1"/>
<text x="64" y="336.0" text-anchor="end" font-size="11" fill="#64748b">50</text>
<line x1="72" y1="320.0" x2="970" y2="320.0" stroke="#e2e8f0" stroke-width="1"/>
<text x="64" y="324.0" text-anchor="end" font-size="11" fill="#64748b">100</text>
<line x1="72" y1="308.0" x2="970" y2="308.0" stroke="#e2e8f0" stroke-width="1"/>
<text x="64" y="312.0" text-anchor="end" font-size="11" fill="#64748b">150</text>
<line x1="72" y1="296.0" x2="970" y2="296.0" stroke="#e2e8f0" stroke-width="1"/>
<text x="64" y="300.0" text-anchor="end" font-size="11" fill="#64748b">200</text>
<line x1="72" y1="284.0" x2="970" y2="284.0" stroke="#e2e8f0" stroke-width="1"/>
<text x="64" y="288.0" text-anchor="end" font-size="11" fill="#64748b">250</text>
<line x1="72" y1="272.0" x2="970" y2="272.0" stroke="#e2e8f0" stroke-width="1"/>
<text x="64" y="276.0" text-anchor="end" font-size="11" fill="#64748b">300</text>
<line x1="72" y1="260.0" x2="970" y2="260.0" stroke="#e2e8f0" stroke-width="1"/>
<text x="64" y="264.0" text-anchor="end" font-size="11" fill="#64748b">350</text>
<line x1="72" y1="248.0" x2="970" y2="248.0" stroke="#e2e8f0" stroke-width="1"/>
<text x="64" y="252.0" text-anchor="end" font-size="11" fill="#64748b">400</text>
<line x1="72" y1="236.0" x2="970" y2="236.0" stroke="#e2e8f0" stroke-width="1"/>
<text x="64" y="240.0" text-anchor="end" font-size="11" fill="#64748b">450</text>
<line x1="72" y1="224.0" x2="970" y2="224.0" stroke="#e2e8f0" stroke-width="1"/>
<text x="64" y="228.0" text-anchor="end" font-size="11" fill="#64748b">500</text>
<line x1="72" y1="212.0" x2="970" y2="212.0" stroke="#e2e8f0" stroke-width="1"/>
<text x="64" y="216.0" text-anchor="end" font-size="11" fill="#64748b">550</text>
<line x1="72" y1="200.0" x2="970" y2="200.0" stroke="#e2e8f0" stroke-width="1"/>
<text x="64" y="204.0" text-anchor="end" font-size="11" fill="#64748b">600</text>
<line x1="72" y1="188.0" x2="970" y2="188.0" stroke="#e2e8f0" stroke-width="1"/>
<text x="64" y="192.0" text-anchor="end" font-size="11" fill="#64748b">650</text>
<line x1="72" y1="176.0" x2="970" y2="176.0" stroke="#e2e8f0" stroke-width="1"/>
<text x="64" y="180.0" text-anchor="end" font-size="11" fill="#64748b">700</text>
<line x1="72" y1="164.0" x2="970" y2="164.0" stroke="#e2e8f0" stroke-width="1"/>
<text x="64" y="168.0" text-anchor="end" font-size="11" fill="#64748b">750</text>
<line x1="72" y1="152.0" x2="970" y2="152.0" stroke="#e2e8f0" stroke-width="1"/>
<text x="64" y="156.0" text-anchor="end" font-size="11" fill="#64748b">800</text>
<line x1="72" y1="140.0" x2="970" y2="140.0" stroke="#e2e8f0" stroke-width="1"/>
<text x="64" y="144.0" text-anchor="end" font-size="11" fill="#64748b">850</text>
<line x1="72" y1="128.0" x2="970" y2="128.0" stroke="#e2e8f0" stroke-width="1"/>
<text x="64" y="132.0" text-anchor="end" font-size="11" fill="#64748b">900</text>
<line x1="72" y1="116.0" x2="970" y2="116.0" stroke="#e2e8f0" stroke-width="1"/>
<text x="64" y="120.0" text-anchor="end" font-size="11" fill="#64748b">950</text>
<line x1="72" y1="104.0" x2="970" y2="104.0" stroke="#e2e8f0" stroke-width="1"/>
<text x="64" y="108.0" text-anchor="end" font-size="11" fill="#64748b">1000</text>
<line x1="72" y1="92.0" x2="970" y2="92.0" stroke="#e2e8f0" stroke-width="1"/>
<text x="64" y="96.0" text-anchor="end" font-size="11" fill="#64748b">1050</text>
<line x1="72" y1="80.0" x2="970" y2="80.0" stroke="#e2e8f0" stroke-width="1"/>
<text x="64" y="84.0" text-anchor="end" font-size="11" fill="#64748b">1100</text>
<line x1="72" y1="68.0" x2="970" y2="68.0" stroke="#e2e8f0" stroke-width="1"/>
<text x="64" y="72.0" text-anchor="end" font-size="11" fill="#64748b">1150</text>
<line x1="72" y1="56.0" x2="970" y2="56.0" stroke="#e2e8f0" stroke-width="1"/>
<text x="64" y="60.0" text-anchor="end" font-size="11" fill="#64748b">1200</text>
<line x1="72" y1="44.0" x2="970" y2="44.0" stroke="#e2e8f0" stroke-width="1"/>
<text x="64" y="48.0" text-anchor="end" font-size="11" fill="#64748b">1250</text>
<text x="14" y="194" font-size="11" fill="#64748b" transform="rotate(-90,14,194)">ms</text>
<text x="72.0" y="364" text-anchor="middle" font-size="11" fill="#64748b">0.1.0</text>
<text x="97.7" y="364" text-anchor="middle" font-size="11" fill="#64748b">0.2.0</text>
<text x="123.3" y="364" text-anchor="middle" font-size="11" fill="#64748b">0.3.0</text>
<text x="149.0" y="364" text-anchor="middle" font-size="11" fill="#64748b">0.4.0</text>
<text x="174.6" y="364" text-anchor="middle" font-size="11" fill="#64748b">0.5.0</text>
<text x="200.3" y="364" text-anchor="middle" font-size="11" fill="#64748b">0.6.0</text>
<text x="225.9" y="364" text-anchor="middle" font-size="11" fill="#64748b">0.7.0</text>
<text x="251.6" y="364" text-anchor="middle" font-size="11" fill="#64748b">0.8.0</text>
<text x="277.3" y="364" text-anchor="middle" font-size="11" fill="#64748b">0.9.0</text>
<text x="302.9" y="364" text-anchor="middle" font-size="11" fill="#64748b">0.10.0</text>
<text x="328.6" y="364" text-anchor="middle" font-size="11" fill="#64748b">0.11.0</text>
<text x="354.2" y="364" text-anchor="middle" font-size="11" fill="#64748b">0.12.0</text>
<text x="379.9" y="364" text-anchor="middle" font-size="11" fill="#64748b">0.13.0</text>
<text x="405.5" y="364" text-anchor="middle" font-size="11" fill="#64748b">0.14.0</text>
<text x="431.2" y="364" text-anchor="middle" font-size="11" fill="#64748b">0.15.0</text>
<text x="456.9" y="364" text-anchor="middle" font-size="11" fill="#64748b">0.16.0</text>
<text x="482.5" y="364" text-anchor="middle" font-size="11" fill="#64748b">0.17.0</text>
<text x="508.2" y="364" text-anchor="middle" font-size="11" fill="#64748b">0.17.1</text>
<text x="533.8" y="364" text-anchor="middle" font-size="11" fill="#64748b">0.17.2</text>
<text x="559.5" y="364" text-anchor="middle" font-size="11" fill="#64748b">0.18.0</text>
<text x="585.1" y="364" text-anchor="middle" font-size="11" fill="#64748b">0.18.1</text>
<text x="610.8" y="364" text-anchor="middle" font-size="11" fill="#64748b">0.18.2</text>
<text x="636.5" y="364" text-anchor="middle" font-size="11" fill="#64748b">0.18.3</text>
<text x="662.1" y="364" text-anchor="middle" font-size="11" fill="#64748b">0.18.4</text>
<text x="687.8" y="364" text-anchor="middle" font-size="11" fill="#64748b">0.18.5</text>
<text x="713.4" y="364" text-anchor="middle" font-size="11" fill="#64748b">0.19.0</text>
<text x="739.1" y="364" text-anchor="middle" font-size="11" fill="#64748b">0.19.1</text>
<text x="764.7" y="364" text-anchor="middle" font-size="11" fill="#64748b">0.20.0</text>
<text x="790.4" y="364" text-anchor="middle" font-size="11" fill="#64748b">0.21.0</text>
<text x="816.1" y="364" text-anchor="middle" font-size="11" fill="#64748b">0.21.1</text>
<text x="841.7" y="364" text-anchor="middle" font-size="11" fill="#64748b">0.22.0</text>
<text x="867.4" y="364" text-anchor="middle" font-size="11" fill="#64748b">0.23.0</text>
<text x="893.0" y="364" text-anchor="middle" font-size="11" fill="#64748b">0.23.1</text>
<text x="918.7" y="364" text-anchor="middle" font-size="11" fill="#64748b">0.24.0</text>
<text x="944.3" y="364" text-anchor="middle" font-size="11" fill="#64748b">0.25.0</text>
<text x="970.0" y="364" text-anchor="middle" font-size="11" fill="#64748b">0.25.1</text>
<text x="521" y="384" text-anchor="middle" font-size="11" fill="#64748b">release</text>
<polyline fill="none" stroke="#2563eb" stroke-width="2" stroke-linejoin="round" points="72.0,335.3 97.7,335.5 123.3,335.9 149.0,324.7 174.6,324.5 200.3,324.9 225.9,320.3 251.6,319.9 277.3,319.3 302.9,338.6 328.6,338.9 354.2,338.4 379.9,339.2 405.5,339.1 431.2,338.5 456.9,338.8 482.5,338.9 508.2,338.9 533.8,339.1 559.5,338.9 585.1,339.0 610.8,338.8 636.5,339.0 662.1,338.9 687.8,338.6 713.4,338.5 739.1,338.9 764.7,338.2 790.4,338.4 816.1,338.6 841.7,338.8 867.4,338.6 893.0,338.7 918.7,338.6 944.3,338.0 970.0,338.0"/>
<circle cx="72.0" cy="335.3" r="3.5" fill="#2563eb" stroke="#fff" stroke-width="1.5"/>
<circle cx="97.7" cy="335.5" r="3.5" fill="#2563eb" stroke="#fff" stroke-width="1.5"/>
<circle cx="123.3" cy="335.9" r="3.5" fill="#2563eb" stroke="#fff" stroke-width="1.5"/>
<circle cx="149.0" cy="324.7" r="3.5" fill="#2563eb" stroke="#fff" stroke-width="1.5"/>
<circle cx="174.6" cy="324.5" r="3.5" fill="#2563eb" stroke="#fff" stroke-width="1.5"/>
<circle cx="200.3" cy="324.9" r="3.5" fill="#2563eb" stroke="#fff" stroke-width="1.5"/>
<circle cx="225.9" cy="320.3" r="3.5" fill="#2563eb" stroke="#fff" stroke-width="1.5"/>
<circle cx="251.6" cy="319.9" r="3.5" fill="#2563eb" stroke="#fff" stroke-width="1.5"/>
<circle cx="277.3" cy="319.3" r="3.5" fill="#2563eb" stroke="#fff" stroke-width="1.5"/>
<circle cx="302.9" cy="338.6" r="3.5" fill="#2563eb" stroke="#fff" stroke-width="1.5"/>
<circle cx="328.6" cy="338.9" r="3.5" fill="#2563eb" stroke="#fff" stroke-width="1.5"/>
<circle cx="354.2" cy="338.4" r="3.5" fill="#2563eb" stroke="#fff" stroke-width="1.5"/>
<circle cx="379.9" cy="339.2" r="3.5" fill="#2563eb" stroke="#fff" stroke-width="1.5"/>
<circle cx="405.5" cy="339.1" r="3.5" fill="#2563eb" stroke="#fff" stroke-width="1.5"/>
<circle cx="431.2" cy="338.5" r="3.5" fill="#2563eb" stroke="#fff" stroke-width="1.5"/>
<circle cx="456.9" cy="338.8" r="3.5" fill="#2563eb" stroke="#fff" stroke-width="1.5"/>
<circle cx="482.5" cy="338.9" r="3.5" fill="#2563eb" stroke="#fff" stroke-width="1.5"/>
<circle cx="508.2" cy="338.9" r="3.5" fill="#2563eb" stroke="#fff" stroke-width="1.5"/>
<circle cx="533.8" cy="339.1" r="3.5" fill="#2563eb" stroke="#fff" stroke-width="1.5"/>
<circle cx="559.5" cy="338.9" r="3.5" fill="#2563eb" stroke="#fff" stroke-width="1.5"/>
<circle cx="585.1" cy="339.0" r="3.5" fill="#2563eb" stroke="#fff" stroke-width="1.5"/>
<circle cx="610.8" cy="338.8" r="3.5" fill="#2563eb" stroke="#fff" stroke-width="1.5"/>
<circle cx="636.5" cy="339.0" r="3.5" fill="#2563eb" stroke="#fff" stroke-width="1.5"/>
<circle cx="662.1" cy="338.9" r="3.5" fill="#2563eb" stroke="#fff" stroke-width="1.5"/>
<circle cx="687.8" cy="338.6" r="3.5" fill="#2563eb" stroke="#fff" stroke-width="1.5"/>
<circle cx="713.4" cy="338.5" r="3.5" fill="#2563eb" stroke="#fff" stroke-width="1.5"/>
<circle cx="739.1" cy="338.9" r="3.5" fill="#2563eb" stroke="#fff" stroke-width="1.5"/>
<circle cx="764.7" cy="338.2" r="3.5" fill="#2563eb" stroke="#fff" stroke-width="1.5"/>
<circle cx="790.4" cy="338.4" r="3.5" fill="#2563eb" stroke="#fff" stroke-width="1.5"/>
<circle cx="816.1" cy="338.6" r="3.5" fill="#2563eb" stroke="#fff" stroke-width="1.5"/>
<circle cx="841.7" cy="338.8" r="3.5" fill="#2563eb" stroke="#fff" stroke-width="1.5"/>
<circle cx="867.4" cy="338.6" r="3.5" fill="#2563eb" stroke="#fff" stroke-width="1.5"/>
<circle cx="893.0" cy="338.7" r="3.5" fill="#2563eb" stroke="#fff" stroke-width="1.5"/>
<circle cx="918.7" cy="338.6" r="3.5" fill="#2563eb" stroke="#fff" stroke-width="1.5"/>
<circle cx="944.3" cy="338.0" r="3.5" fill="#2563eb" stroke="#fff" stroke-width="1.5"/>
<circle cx="970.0" cy="338.0" r="3.5" fill="#2563eb" stroke="#fff" stroke-width="1.5"/>
<polyline fill="none" stroke="#16a34a" stroke-width="2" stroke-linejoin="round" points="72.0,321.3 97.7,321.2 123.3,319.9 149.0,259.1 174.6,261.8 200.3,260.8 225.9,232.0 251.6,230.0 277.3,223.4 302.9,331.5 328.6,332.8 354.2,331.5 379.9,332.7 405.5,332.8 431.2,331.7 456.9,331.6 482.5,332.3 508.2,332.3 533.8,332.5 559.5,331.6 585.1,332.4 610.8,332.5 636.5,332.5 662.1,332.0 687.8,332.3 713.4,332.0 739.1,332.4 764.7,330.6 790.4,331.3 816.1,332.4 841.7,332.1 867.4,331.9 893.0,331.3 918.7,331.9 944.3,331.3 970.0,331.2"/>
<circle cx="72.0" cy="321.3" r="3.5" fill="#16a34a" stroke="#fff" stroke-width="1.5"/>
<circle cx="97.7" cy="321.2" r="3.5" fill="#16a34a" stroke="#fff" stroke-width="1.5"/>
<circle cx="123.3" cy="319.9" r="3.5" fill="#16a34a" stroke="#fff" stroke-width="1.5"/>
<circle cx="149.0" cy="259.1" r="3.5" fill="#16a34a" stroke="#fff" stroke-width="1.5"/>
<circle cx="174.6" cy="261.8" r="3.5" fill="#16a34a" stroke="#fff" stroke-width="1.5"/>
<circle cx="200.3" cy="260.8" r="3.5" fill="#16a34a" stroke="#fff" stroke-width="1.5"/>
<circle cx="225.9" cy="232.0" r="3.5" fill="#16a34a" stroke="#fff" stroke-width="1.5"/>
<circle cx="251.6" cy="230.0" r="3.5" fill="#16a34a" stroke="#fff" stroke-width="1.5"/>
<circle cx="277.3" cy="223.4" r="3.5" fill="#16a34a" stroke="#fff" stroke-width="1.5"/>
<circle cx="302.9" cy="331.5" r="3.5" fill="#16a34a" stroke="#fff" stroke-width="1.5"/>
<circle cx="328.6" cy="332.8" r="3.5" fill="#16a34a" stroke="#fff" stroke-width="1.5"/>
<circle cx="354.2" cy="331.5" r="3.5" fill="#16a34a" stroke="#fff" stroke-width="1.5"/>
<circle cx="379.9" cy="332.7" r="3.5" fill="#16a34a" stroke="#fff" stroke-width="1.5"/>
<circle cx="405.5" cy="332.8" r="3.5" fill="#16a34a" stroke="#fff" stroke-width="1.5"/>
<circle cx="431.2" cy="331.7" r="3.5" fill="#16a34a" stroke="#fff" stroke-width="1.5"/>
<circle cx="456.9" cy="331.6" r="3.5" fill="#16a34a" stroke="#fff" stroke-width="1.5"/>
<circle cx="482.5" cy="332.3" r="3.5" fill="#16a34a" stroke="#fff" stroke-width="1.5"/>
<circle cx="508.2" cy="332.3" r="3.5" fill="#16a34a" stroke="#fff" stroke-width="1.5"/>
<circle cx="533.8" cy="332.5" r="3.5" fill="#16a34a" stroke="#fff" stroke-width="1.5"/>
<circle cx="559.5" cy="331.6" r="3.5" fill="#16a34a" stroke="#fff" stroke-width="1.5"/>
<circle cx="585.1" cy="332.4" r="3.5" fill="#16a34a" stroke="#fff" stroke-width="1.5"/>
<circle cx="610.8" cy="332.5" r="3.5" fill="#16a34a" stroke="#fff" stroke-width="1.5"/>
<circle cx="636.5" cy="332.5" r="3.5" fill="#16a34a" stroke="#fff" stroke-width="1.5"/>
<circle cx="662.1" cy="332.0" r="3.5" fill="#16a34a" stroke="#fff" stroke-width="1.5"/>
<circle cx="687.8" cy="332.3" r="3.5" fill="#16a34a" stroke="#fff" stroke-width="1.5"/>
<circle cx="713.4" cy="332.0" r="3.5" fill="#16a34a" stroke="#fff" stroke-width="1.5"/>
<circle cx="739.1" cy="332.4" r="3.5" fill="#16a34a" stroke="#fff" stroke-width="1.5"/>
<circle cx="764.7" cy="330.6" r="3.5" fill="#16a34a" stroke="#fff" stroke-width="1.5"/>
<circle cx="790.4" cy="331.3" r="3.5" fill="#16a34a" stroke="#fff" stroke-width="1.5"/>
<circle cx="816.1" cy="332.4" r="3.5" fill="#16a34a" stroke="#fff" stroke-width="1.5"/>
<circle cx="841.7" cy="332.1" r="3.5" fill="#16a34a" stroke="#fff" stroke-width="1.5"/>
<circle cx="867.4" cy="331.9" r="3.5" fill="#16a34a" stroke="#fff" stroke-width="1.5"/>
<circle cx="893.0" cy="331.3" r="3.5" fill="#16a34a" stroke="#fff" stroke-width="1.5"/>
<circle cx="918.7" cy="331.9" r="3.5" fill="#16a34a" stroke="#fff" stroke-width="1.5"/>
<circle cx="944.3" cy="331.3" r="3.5" fill="#16a34a" stroke="#fff" stroke-width="1.5"/>
<circle cx="970.0" cy="331.2" r="3.5" fill="#16a34a" stroke="#fff" stroke-width="1.5"/>
<polyline fill="none" stroke="#ea580c" stroke-width="2" stroke-linejoin="round" points="72.0,294.3 97.7,295.5 123.3,296.3 149.0,186.8 174.6,189.2 200.3,187.7 225.9,124.3 251.6,106.5 277.3,110.3 302.9,321.2 328.6,320.4 354.2,319.2 379.9,320.2 405.5,320.1 431.2,319.3 456.9,318.2 482.5,319.4 508.2,319.5 533.8,319.6 559.5,318.9 585.1,319.4 610.8,319.3 636.5,319.4 662.1,319.6 687.8,319.0 713.4,319.4 739.1,319.1 764.7,316.6 790.4,318.9 816.1,318.5 841.7,319.3 867.4,318.4 893.0,317.8 918.7,318.4 944.3,317.5 970.0,317.7"/>
<circle cx="72.0" cy="294.3" r="3.5" fill="#ea580c" stroke="#fff" stroke-width="1.5"/>
<circle cx="97.7" cy="295.5" r="3.5" fill="#ea580c" stroke="#fff" stroke-width="1.5"/>
<circle cx="123.3" cy="296.3" r="3.5" fill="#ea580c" stroke="#fff" stroke-width="1.5"/>
<circle cx="149.0" cy="186.8" r="3.5" fill="#ea580c" stroke="#fff" stroke-width="1.5"/>
<circle cx="174.6" cy="189.2" r="3.5" fill="#ea580c" stroke="#fff" stroke-width="1.5"/>
<circle cx="200.3" cy="187.7" r="3.5" fill="#ea580c" stroke="#fff" stroke-width="1.5"/>
<circle cx="225.9" cy="124.3" r="3.5" fill="#ea580c" stroke="#fff" stroke-width="1.5"/>
<circle cx="251.6" cy="106.5" r="3.5" fill="#ea580c" stroke="#fff" stroke-width="1.5"/>
<circle cx="277.3" cy="110.3" r="3.5" fill="#ea580c" stroke="#fff" stroke-width="1.5"/>
<circle cx="302.9" cy="321.2" r="3.5" fill="#ea580c" stroke="#fff" stroke-width="1.5"/>
<circle cx="328.6" cy="320.4" r="3.5" fill="#ea580c" stroke="#fff" stroke-width="1.5"/>
<circle cx="354.2" cy="319.2" r="3.5" fill="#ea580c" stroke="#fff" stroke-width="1.5"/>
<circle cx="379.9" cy="320.2" r="3.5" fill="#ea580c" stroke="#fff" stroke-width="1.5"/>
<circle cx="405.5" cy="320.1" r="3.5" fill="#ea580c" stroke="#fff" stroke-width="1.5"/>
<circle cx="431.2" cy="319.3" r="3.5" fill="#ea580c" stroke="#fff" stroke-width="1.5"/>
<circle cx="456.9" cy="318.2" r="3.5" fill="#ea580c" stroke="#fff" stroke-width="1.5"/>
<circle cx="482.5" cy="319.4" r="3.5" fill="#ea580c" stroke="#fff" stroke-width="1.5"/>
<circle cx="508.2" cy="319.5" r="3.5" fill="#ea580c" stroke="#fff" stroke-width="1.5"/>
<circle cx="533.8" cy="319.6" r="3.5" fill="#ea580c" stroke="#fff" stroke-width="1.5"/>
<circle cx="559.5" cy="318.9" r="3.5" fill="#ea580c" stroke="#fff" stroke-width="1.5"/>
<circle cx="585.1" cy="319.4" r="3.5" fill="#ea580c" stroke="#fff" stroke-width="1.5"/>
<circle cx="610.8" cy="319.3" r="3.5" fill="#ea580c" stroke="#fff" stroke-width="1.5"/>
<circle cx="636.5" cy="319.4" r="3.5" fill="#ea580c" stroke="#fff" stroke-width="1.5"/>
<circle cx="662.1" cy="319.6" r="3.5" fill="#ea580c" stroke="#fff" stroke-width="1.5"/>
<circle cx="687.8" cy="319.0" r="3.5" fill="#ea580c" stroke="#fff" stroke-width="1.5"/>
<circle cx="713.4" cy="319.4" r="3.5" fill="#ea580c" stroke="#fff" stroke-width="1.5"/>
<circle cx="739.1" cy="319.1" r="3.5" fill="#ea580c" stroke="#fff" stroke-width="1.5"/>
<circle cx="764.7" cy="316.6" r="3.5" fill="#ea580c" stroke="#fff" stroke-width="1.5"/>
<circle cx="790.4" cy="318.9" r="3.5" fill="#ea580c" stroke="#fff" stroke-width="1.5"/>
<circle cx="816.1" cy="318.5" r="3.5" fill="#ea580c" stroke="#fff" stroke-width="1.5"/>
<circle cx="841.7" cy="319.3" r="3.5" fill="#ea580c" stroke="#fff" stroke-width="1.5"/>
<circle cx="867.4" cy="318.4" r="3.5" fill="#ea580c" stroke="#fff" stroke-width="1.5"/>
<circle cx="893.0" cy="317.8" r="3.5" fill="#ea580c" stroke="#fff" stroke-width="1.5"/>
<circle cx="918.7" cy="318.4" r="3.5" fill="#ea580c" stroke="#fff" stroke-width="1.5"/>
<circle cx="944.3" cy="317.5" r="3.5" fill="#ea580c" stroke="#fff" stroke-width="1.5"/>
<circle cx="970.0" cy="317.7" r="3.5" fill="#ea580c" stroke="#fff" stroke-width="1.5"/>
<polyline fill="none" stroke="#dc2626" stroke-width="2" stroke-linejoin="round" points="72.0,291.4 97.7,291.4 123.3,292.3 149.0,174.2 174.6,171.3 200.3,169.3 225.9,83.8 251.6,88.6 277.3,79.9 302.9,314.8 328.6,317.2 354.2,315.5 379.9,317.6 405.5,317.5 431.2,316.6 456.9,315.4 482.5,316.7 508.2,316.8 533.8,316.5 559.5,316.5 585.1,316.7 610.8,316.2 636.5,316.8 662.1,316.8 687.8,316.4 713.4,316.6 739.1,316.6 764.7,312.8 790.4,316.4 816.1,317.0 841.7,316.3 867.4,316.0 893.0,315.4 918.7,315.5 944.3,314.6 970.0,314.8"/>
<circle cx="72.0" cy="291.4" r="3.5" fill="#dc2626" stroke="#fff" stroke-width="1.5"/>
<circle cx="97.7" cy="291.4" r="3.5" fill="#dc2626" stroke="#fff" stroke-width="1.5"/>
<circle cx="123.3" cy="292.3" r="3.5" fill="#dc2626" stroke="#fff" stroke-width="1.5"/>
<circle cx="149.0" cy="174.2" r="3.5" fill="#dc2626" stroke="#fff" stroke-width="1.5"/>
<circle cx="174.6" cy="171.3" r="3.5" fill="#dc2626" stroke="#fff" stroke-width="1.5"/>
<circle cx="200.3" cy="169.3" r="3.5" fill="#dc2626" stroke="#fff" stroke-width="1.5"/>
<circle cx="225.9" cy="83.8" r="3.5" fill="#dc2626" stroke="#fff" stroke-width="1.5"/>
<circle cx="251.6" cy="88.6" r="3.5" fill="#dc2626" stroke="#fff" stroke-width="1.5"/>
<circle cx="277.3" cy="79.9" r="3.5" fill="#dc2626" stroke="#fff" stroke-width="1.5"/>
<circle cx="302.9" cy="314.8" r="3.5" fill="#dc2626" stroke="#fff" stroke-width="1.5"/>
<circle cx="328.6" cy="317.2" r="3.5" fill="#dc2626" stroke="#fff" stroke-width="1.5"/>
<circle cx="354.2" cy="315.5" r="3.5" fill="#dc2626" stroke="#fff" stroke-width="1.5"/>
<circle cx="379.9" cy="317.6" r="3.5" fill="#dc2626" stroke="#fff" stroke-width="1.5"/>
<circle cx="405.5" cy="317.5" r="3.5" fill="#dc2626" stroke="#fff" stroke-width="1.5"/>
<circle cx="431.2" cy="316.6" r="3.5" fill="#dc2626" stroke="#fff" stroke-width="1.5"/>
<circle cx="456.9" cy="315.4" r="3.5" fill="#dc2626" stroke="#fff" stroke-width="1.5"/>
<circle cx="482.5" cy="316.7" r="3.5" fill="#dc2626" stroke="#fff" stroke-width="1.5"/>
<circle cx="508.2" cy="316.8" r="3.5" fill="#dc2626" stroke="#fff" stroke-width="1.5"/>
<circle cx="533.8" cy="316.5" r="3.5" fill="#dc2626" stroke="#fff" stroke-width="1.5"/>
<circle cx="559.5" cy="316.5" r="3.5" fill="#dc2626" stroke="#fff" stroke-width="1.5"/>
<circle cx="585.1" cy="316.7" r="3.5" fill="#dc2626" stroke="#fff" stroke-width="1.5"/>
<circle cx="610.8" cy="316.2" r="3.5" fill="#dc2626" stroke="#fff" stroke-width="1.5"/>
<circle cx="636.5" cy="316.8" r="3.5" fill="#dc2626" stroke="#fff" stroke-width="1.5"/>
<circle cx="662.1" cy="316.8" r="3.5" fill="#dc2626" stroke="#fff" stroke-width="1.5"/>
<circle cx="687.8" cy="316.4" r="3.5" fill="#dc2626" stroke="#fff" stroke-width="1.5"/>
<circle cx="713.4" cy="316.6" r="3.5" fill="#dc2626" stroke="#fff" stroke-width="1.5"/>
<circle cx="739.1" cy="316.6" r="3.5" fill="#dc2626" stroke="#fff" stroke-width="1.5"/>
<circle cx="764.7" cy="312.8" r="3.5" fill="#dc2626" stroke="#fff" stroke-width="1.5"/>
<circle cx="790.4" cy="316.4" r="3.5" fill="#dc2626" stroke="#fff" stroke-width="1.5"/>
<circle cx="816.1" cy="317.0" r="3.5" fill="#dc2626" stroke="#fff" stroke-width="1.5"/>
<circle cx="841.7" cy="316.3" r="3.5" fill="#dc2626" stroke="#fff" stroke-width="1.5"/>
<circle cx="867.4" cy="316.0" r="3.5" fill="#dc2626" stroke="#fff" stroke-width="1.5"/>
<circle cx="893.0" cy="315.4" r="3.5" fill="#dc2626" stroke="#fff" stroke-width="1.5"/>
<circle cx="918.7" cy="315.5" r="3.5" fill="#dc2626" stroke="#fff" stroke-width="1.5"/>
<circle cx="944.3" cy="314.6" r="3.5" fill="#dc2626" stroke="#fff" stroke-width="1.5"/>
<circle cx="970.0" cy="314.8" r="3.5" fill="#dc2626" stroke="#fff" stroke-width="1.5"/>
<circle cx="986" cy="48" r="5" fill="#2563eb"/>
<text x="998" y="52" font-size="12" fill="#334155">small</text>
<circle cx="986" cy="70" r="5" fill="#16a34a"/>
<text x="998" y="74" font-size="12" fill="#334155">medium</text>
<circle cx="986" cy="92" r="5" fill="#ea580c"/>
<text x="998" y="96" font-size="12" fill="#334155">large</text>
<circle cx="986" cy="114" r="5" fill="#dc2626"/>
<text x="998" y="118" font-size="12" fill="#334155">stress</text>
<text x="72" y="434" font-size="15" font-weight="600" fill="#1e293b">hdi benchmark - picker time to first frame</text>
<line x1="72" y1="750.0" x2="970" y2="750.0" stroke="#e2e8f0" stroke-width="1"/>
<text x="64" y="754.0" text-anchor="end" font-size="11" fill="#64748b">0</text>
<line x1="72" y1="738.0" x2="970" y2="738.0" stroke="#e2e8f0" stroke-width="1"/>
<text x="64" y="742.0" text-anchor="end" font-size="11" fill="#64748b">50</text>
<line x1="72" y1="726.0" x2="970" y2="726.0" stroke="#e2e8f0" stroke-width="1"/>
<text x="64" y="730.0" text-anchor="end" font-size="11" fill="#64748b">100</text>
<line x1="72" y1="714.0" x2="970" y2="714.0" stroke="#e2e8f0" stroke-width="1"/>
<text x="64" y="718.0" text-anchor="end" font-size="11" fill="#64748b">150</text>
<line x1="72" y1="702.0" x2="970" y2="702.0" stroke="#e2e8f0" stroke-width="1"/>
<text x="64" y="706.0" text-anchor="end" font-size="11" fill="#64748b">200</text>
<line x1="72" y1="690.0" x2="970" y2="690.0" stroke="#e2e8f0" stroke-width="1"/>
<text x="64" y="694.0" text-anchor="end" font-size="11" fill="#64748b">250</text>
<line x1="72" y1="678.0" x2="970" y2="678.0" stroke="#e2e8f0" stroke-width="1"/>
<text x="64" y="682.0" text-anchor="end" font-size="11" fill="#64748b">300</text>
<line x1="72" y1="666.0" x2="970" y2="666.0" stroke="#e2e8f0" stroke-width="1"/>
<text x="64" y="670.0" text-anchor="end" font-size="11" fill="#64748b">350</text>
<line x1="72" y1="654.0" x2="970" y2="654.0" stroke="#e2e8f0" stroke-width="1"/>
<text x="64" y="658.0" text-anchor="end" font-size="11" fill="#64748b">400</text>
<line x1="72" y1="642.0" x2="970" y2="642.0" stroke="#e2e8f0" stroke-width="1"/>
<text x="64" y="646.0" text-anchor="end" font-size="11" fill="#64748b">450</text>
<line x1="72" y1="630.0" x2="970" y2="630.0" stroke="#e2e8f0" stroke-width="1"/>
<text x="64" y="634.0" text-anchor="end" font-size="11" fill="#64748b">500</text>
<line x1="72" y1="618.0" x2="970" y2="618.0" stroke="#e2e8f0" stroke-width="1"/>
<text x="64" y="622.0" text-anchor="end" font-size="11" fill="#64748b">550</text>
<line x1="72" y1="606.0" x2="970" y2="606.0" stroke="#e2e8f0" stroke-width="1"/>
<text x="64" y="610.0" text-anchor="end" font-size="11" fill="#64748b">600</text>
<line x1="72" y1="594.0" x2="970" y2="594.0" stroke="#e2e8f0" stroke-width="1"/>
<text x="64" y="598.0" text-anchor="end" font-size="11" fill="#64748b">650</text>
<line x1="72" y1="582.0" x2="970" y2="582.0" stroke="#e2e8f0" stroke-width="1"/>
<text x="64" y="586.0" text-anchor="end" font-size="11" fill="#64748b">700</text>
<line x1="72" y1="570.0" x2="970" y2="570.0" stroke="#e2e8f0" stroke-width="1"/>
<text x="64" y="574.0" text-anchor="end" font-size="11" fill="#64748b">750</text>
<line x1="72" y1="558.0" x2="970" y2="558.0" stroke="#e2e8f0" stroke-width="1"/>
<text x="64" y="562.0" text-anchor="end" font-size="11" fill="#64748b">800</text>
<line x1="72" y1="546.0" x2="970" y2="546.0" stroke="#e2e8f0" stroke-width="1"/>
<text x="64" y="550.0" text-anchor="end" font-size="11" fill="#64748b">850</text>
<line x1="72" y1="534.0" x2="970" y2="534.0" stroke="#e2e8f0" stroke-width="1"/>
<text x="64" y="538.0" text-anchor="end" font-size="11" fill="#64748b">900</text>
<line x1="72" y1="522.0" x2="970" y2="522.0" stroke="#e2e8f0" stroke-width="1"/>
<text x="64" y="526.0" text-anchor="end" font-size="11" fill="#64748b">950</text>
<line x1="72" y1="510.0" x2="970" y2="510.0" stroke="#e2e8f0" stroke-width="1"/>
<text x="64" y="514.0" text-anchor="end" font-size="11" fill="#64748b">1000</text>
<line x1="72" y1="498.0" x2="970" y2="498.0" stroke="#e2e8f0" stroke-width="1"/>
<text x="64" y="502.0" text-anchor="end" font-size="11" fill="#64748b">1050</text>
<line x1="72" y1="486.0" x2="970" y2="486.0" stroke="#e2e8f0" stroke-width="1"/>
<text x="64" y="490.0" text-anchor="end" font-size="11" fill="#64748b">1100</text>
<line x1="72" y1="474.0" x2="970" y2="474.0" stroke="#e2e8f0" stroke-width="1"/>
<text x="64" y="478.0" text-anchor="end" font-size="11" fill="#64748b">1150</text>
<line x1="72" y1="462.0" x2="970" y2="462.0" stroke="#e2e8f0" stroke-width="1"/>
<text x="64" y="466.0" text-anchor="end" font-size="11" fill="#64748b">1200</text>
<line x1="72" y1="450.0" x2="970" y2="450.0" stroke="#e2e8f0" stroke-width="1"/>
<text x="64" y="454.0" text-anchor="end" font-size="11" fill="#64748b">1250</text>
<text x="14" y="600" font-size="11" fill="#64748b" transform="rotate(-90,14,600)">ms</text>
<text x="72.0" y="770" text-anchor="middle" font-size="11" fill="#64748b">0.1.0</text>
<text x="97.7" y="770" text-anchor="middle" font-size="11" fill="#64748b">0.2.0</text>
<text x="123.3" y="770" text-anchor="middle" font-size="11" fill="#64748b">0.3.0</text>
<text x="149.0" y="770" text-anchor="middle" font-size="11" fill="#64748b">0.4.0</text>
<text x="174.6" y="770" text-anchor="middle" font-size="11" fill="#64748b">0.5.0</text>
<text x="200.3" y="770" text-anchor="middle" font-size="11" fill="#64748b">0.6.0</text>
<text x="225.9" y="770" text-anchor="middle" font-size="11" fill="#64748b">0.7.0</text>
<text x="251.6" y="770" text-anchor="middle" font-size="11" fill="#64748b">0.8.0</text>
<text x="277.3" y="770" text-anchor="middle" font-size="11" fill="#64748b">0.9.0</text>
<text x="302.9" y="770" text-anchor="middle" font-size="11" fill="#64748b">0.10.0</text>
<text x="328.6" y="770" text-anchor="middle" font-size="11" fill="#64748b">0.11.0</text>
<text x="354.2" y="770" text-anchor="middle" font-size="11" fill="#64748b">0.12.0</text>
<text x="379.9" y="770" text-anchor="middle" font-size="11" fill="#64748b">0.13.0</text>
<text x="405.5" y="770" text-anchor="middle" font-size="11" fill="#64748b">0.14.0</text>
<text x="431.2" y="770" text-anchor="middle" font-size="11" fill="#64748b">0.15.0</text>
<text x="456.9" y="770" text-anchor="middle" font-size="11" fill="#64748b">0.16.0</text>
<text x="482.5" y="770" text-anchor="middle" font-size="11" fill="#64748b">0.17.0</text>
<text x="508.2" y="770" text-anchor="middle" font-size="11" fill="#64748b">0.17.1</text>
<text x="533.8" y="770" text-anchor="middle" font-size="11" fill="#64748b">0.17.2</text>
<text x="559.5" y="770" text-anchor="middle" font-size="11" fill="#64748b">0.18.0</text>
<text x="585.1" y="770" text-anchor="middle" font-size="11" fill="#64748b">0.18.1</text>
<text x="610.8" y="770" text-anchor="middle" font-size="11" fill="#64748b">0.18.2</text>
<text x="636.5" y="770" text-anchor="middle" font-size="11" fill="#64748b">0.18.3</text>
<text x="662.1" y="770" text-anchor="middle" font-size="11" fill="#64748b">0.18.4</text>
<text x="687.8" y="770" text-anchor="middle" font-size="11" fill="#64748b">0.18.5</text>
<text x="713.4" y="770" text-anchor="middle" font-size="11" fill="#64748b">0.19.0</text>
<text x="739.1" y="770" text-anchor="middle" font-size="11" fill="#64748b">0.19.1</text>
<text x="764.7" y="770" text-anchor="middle" font-size="11" fill="#64748b">0.20.0</text>
<text x="790.4" y="770" text-anchor="middle" font-size="11" fill="#64748b">0.21.0</text>
<text x="816.1" y="770" text-anchor="middle" font-size="11" fill="#64748b">0.21.1</text>
<text x="841.7" y="770" text-anchor="middle" font-size="11" fill="#64748b">0.22.0</text>
<text x="867.4" y="770" text-anchor="middle" font-size="11" fill="#64748b">0.23.0</text>
<text x="893.0" y="770" text-anchor="middle" font-size="11" fill="#64748b">0.23.1</text>
<text x="918.7" y="770" text-anchor="middle" font-size="11" fill="#64748b">0.24.0</text>
<text x="944.3" y="770" text-anchor="middle" font-size="11" fill="#64748b">0.25.0</text>
<text x="970.0" y="770" text-anchor="middle" font-size="11" fill="#64748b">0.25.1</text>
<text x="521" y="790" text-anchor="middle" font-size="11" fill="#64748b">release</text>
<polyline fill="none" stroke="#2563eb" stroke-width="2" stroke-linejoin="round" points="72.0,740.7 97.7,740.9 123.3,740.8 149.0,729.2 174.6,730.2 200.3,730.3 225.9,730.2 251.6,725.5 277.3,723.7 302.9,744.0 328.6,744.6 354.2,744.6 379.9,744.2 405.5,744.1 431.2,743.9 456.9,744.3 482.5,743.4 508.2,744.2 533.8,744.3 559.5,744.1 585.1,744.3 610.8,744.4 636.5,744.2 662.1,744.2 687.8,744.3 713.4,744.2 739.1,744.3 764.7,743.4 790.4,744.1 816.1,744.2 841.7,743.0 867.4,743.8 893.0,743.2 918.7,743.3 944.3,742.4 970.0,742.2"/>
<circle cx="72.0" cy="740.7" r="3.5" fill="#2563eb" stroke="#fff" stroke-width="1.5"/>
<circle cx="97.7" cy="740.9" r="3.5" fill="#2563eb" stroke="#fff" stroke-width="1.5"/>
<circle cx="123.3" cy="740.8" r="3.5" fill="#2563eb" stroke="#fff" stroke-width="1.5"/>
<circle cx="149.0" cy="729.2" r="3.5" fill="#2563eb" stroke="#fff" stroke-width="1.5"/>
<circle cx="174.6" cy="730.2" r="3.5" fill="#2563eb" stroke="#fff" stroke-width="1.5"/>
<circle cx="200.3" cy="730.3" r="3.5" fill="#2563eb" stroke="#fff" stroke-width="1.5"/>
<circle cx="225.9" cy="730.2" r="3.5" fill="#2563eb" stroke="#fff" stroke-width="1.5"/>
<circle cx="251.6" cy="725.5" r="3.5" fill="#2563eb" stroke="#fff" stroke-width="1.5"/>
<circle cx="277.3" cy="723.7" r="3.5" fill="#2563eb" stroke="#fff" stroke-width="1.5"/>
<circle cx="302.9" cy="744.0" r="3.5" fill="#2563eb" stroke="#fff" stroke-width="1.5"/>
<circle cx="328.6" cy="744.6" r="3.5" fill="#2563eb" stroke="#fff" stroke-width="1.5"/>
<circle cx="354.2" cy="744.6" r="3.5" fill="#2563eb" stroke="#fff" stroke-width="1.5"/>
<circle cx="379.9" cy="744.2" r="3.5" fill="#2563eb" stroke="#fff" stroke-width="1.5"/>
<circle cx="405.5" cy="744.1" r="3.5" fill="#2563eb" stroke="#fff" stroke-width="1.5"/>
<circle cx="431.2" cy="743.9" r="3.5" fill="#2563eb" stroke="#fff" stroke-width="1.5"/>
<circle cx="456.9" cy="744.3" r="3.5" fill="#2563eb" stroke="#fff" stroke-width="1.5"/>
<circle cx="482.5" cy="743.4" r="3.5" fill="#2563eb" stroke="#fff" stroke-width="1.5"/>
<circle cx="508.2" cy="744.2" r="3.5" fill="#2563eb" stroke="#fff" stroke-width="1.5"/>
<circle cx="533.8" cy="744.3" r="3.5" fill="#2563eb" stroke="#fff" stroke-width="1.5"/>
<circle cx="559.5" cy="744.1" r="3.5" fill="#2563eb" stroke="#fff" stroke-width="1.5"/>
<circle cx="585.1" cy="744.3" r="3.5" fill="#2563eb" stroke="#fff" stroke-width="1.5"/>
<circle cx="610.8" cy="744.4" r="3.5" fill="#2563eb" stroke="#fff" stroke-width="1.5"/>
<circle cx="636.5" cy="744.2" r="3.5" fill="#2563eb" stroke="#fff" stroke-width="1.5"/>
<circle cx="662.1" cy="744.2" r="3.5" fill="#2563eb" stroke="#fff" stroke-width="1.5"/>
<circle cx="687.8" cy="744.3" r="3.5" fill="#2563eb" stroke="#fff" stroke-width="1.5"/>
<circle cx="713.4" cy="744.2" r="3.5" fill="#2563eb" stroke="#fff" stroke-width="1.5"/>
<circle cx="739.1" cy="744.3" r="3.5" fill="#2563eb" stroke="#fff" stroke-width="1.5"/>
<circle cx="764.7" cy="743.4" r="3.5" fill="#2563eb" stroke="#fff" stroke-width="1.5"/>
<circle cx="790.4" cy="744.1" r="3.5" fill="#2563eb" stroke="#fff" stroke-width="1.5"/>
<circle cx="816.1" cy="744.2" r="3.5" fill="#2563eb" stroke="#fff" stroke-width="1.5"/>
<circle cx="841.7" cy="743.0" r="3.5" fill="#2563eb" stroke="#fff" stroke-width="1.5"/>
<circle cx="867.4" cy="743.8" r="3.5" fill="#2563eb" stroke="#fff" stroke-width="1.5"/>
<circle cx="893.0" cy="743.2" r="3.5" fill="#2563eb" stroke="#fff" stroke-width="1.5"/>
<circle cx="918.7" cy="743.3" r="3.5" fill="#2563eb" stroke="#fff" stroke-width="1.5"/>
<circle cx="944.3" cy="742.4" r="3.5" fill="#2563eb" stroke="#fff" stroke-width="1.5"/>
<circle cx="970.0" cy="742.2" r="3.5" fill="#2563eb" stroke="#fff" stroke-width="1.5"/>
<polyline fill="none" stroke="#16a34a" stroke-width="2" stroke-linejoin="round" points="72.0,726.9 97.7,723.6 123.3,726.5 149.0,665.3 174.6,666.7 200.3,665.3 225.9,666.5 251.6,634.1 277.3,633.4 302.9,736.3 328.6,737.0 354.2,737.4 379.9,737.0 405.5,736.8 431.2,736.6 456.9,736.8 482.5,736.4 508.2,736.6 533.8,736.9 559.5,736.6 585.1,737.2 610.8,736.6 636.5,736.7 662.1,736.4 687.8,736.9 713.4,736.6 739.1,736.8 764.7,735.8 790.4,737.5 816.1,737.8 841.7,735.6 867.4,737.0 893.0,736.6 918.7,736.4 944.3,735.7 970.0,735.5"/>
<circle cx="72.0" cy="726.9" r="3.5" fill="#16a34a" stroke="#fff" stroke-width="1.5"/>
<circle cx="97.7" cy="723.6" r="3.5" fill="#16a34a" stroke="#fff" stroke-width="1.5"/>
<circle cx="123.3" cy="726.5" r="3.5" fill="#16a34a" stroke="#fff" stroke-width="1.5"/>
<circle cx="149.0" cy="665.3" r="3.5" fill="#16a34a" stroke="#fff" stroke-width="1.5"/>
<circle cx="174.6" cy="666.7" r="3.5" fill="#16a34a" stroke="#fff" stroke-width="1.5"/>
<circle cx="200.3" cy="665.3" r="3.5" fill="#16a34a" stroke="#fff" stroke-width="1.5"/>
<circle cx="225.9" cy="666.5" r="3.5" fill="#16a34a" stroke="#fff" stroke-width="1.5"/>
<circle cx="251.6" cy="634.1" r="3.5" fill="#16a34a" stroke="#fff" stroke-width="1.5"/>
<circle cx="277.3" cy="633.4" r="3.5" fill="#16a34a" stroke="#fff" stroke-width="1.5"/>
<circle cx="302.9" cy="736.3" r="3.5" fill="#16a34a" stroke="#fff" stroke-width="1.5"/>
<circle cx="328.6" cy="737.0" r="3.5" fill="#16a34a" stroke="#fff" stroke-width="1.5"/>
<circle cx="354.2" cy="737.4" r="3.5" fill="#16a34a" stroke="#fff" stroke-width="1.5"/>
<circle cx="379.9" cy="737.0" r="3.5" fill="#16a34a" stroke="#fff" stroke-width="1.5"/>
<circle cx="405.5" cy="736.8" r="3.5" fill="#16a34a" stroke="#fff" stroke-width="1.5"/>
<circle cx="431.2" cy="736.6" r="3.5" fill="#16a34a" stroke="#fff" stroke-width="1.5"/>
<circle cx="456.9" cy="736.8" r="3.5" fill="#16a34a" stroke="#fff" stroke-width="1.5"/>
<circle cx="482.5" cy="736.4" r="3.5" fill="#16a34a" stroke="#fff" stroke-width="1.5"/>
<circle cx="508.2" cy="736.6" r="3.5" fill="#16a34a" stroke="#fff" stroke-width="1.5"/>
<circle cx="533.8" cy="736.9" r="3.5" fill="#16a34a" stroke="#fff" stroke-width="1.5"/>
<circle cx="559.5" cy="736.6" r="3.5" fill="#16a34a" stroke="#fff" stroke-width="1.5"/>
<circle cx="585.1" cy="737.2" r="3.5" fill="#16a34a" stroke="#fff" stroke-width="1.5"/>
<circle cx="610.8" cy="736.6" r="3.5" fill="#16a34a" stroke="#fff" stroke-width="1.5"/>
<circle cx="636.5" cy="736.7" r="3.5" fill="#16a34a" stroke="#fff" stroke-width="1.5"/>
<circle cx="662.1" cy="736.4" r="3.5" fill="#16a34a" stroke="#fff" stroke-width="1.5"/>
<circle cx="687.8" cy="736.9" r="3.5" fill="#16a34a" stroke="#fff" stroke-width="1.5"/>
<circle cx="713.4" cy="736.6" r="3.5" fill="#16a34a" stroke="#fff" stroke-width="1.5"/>
<circle cx="739.1" cy="736.8" r="3.5" fill="#16a34a" stroke="#fff" stroke-width="1.5"/>
<circle cx="764.7" cy="735.8" r="3.5" fill="#16a34a" stroke="#fff" stroke-width="1.5"/>
<circle cx="790.4" cy="737.5" r="3.5" fill="#16a34a" stroke="#fff" stroke-width="1.5"/>
<circle cx="816.1" cy="737.8" r="3.5" fill="#16a34a" stroke="#fff" stroke-width="1.5"/>
<circle cx="841.7" cy="735.6" r="3.5" fill="#16a34a" stroke="#fff" stroke-width="1.5"/>
<circle cx="867.4" cy="737.0" r="3.5" fill="#16a34a" stroke="#fff" stroke-width="1.5"/>
<circle cx="893.0" cy="736.6" r="3.5" fill="#16a34a" stroke="#fff" stroke-width="1.5"/>
<circle cx="918.7" cy="736.4" r="3.5" fill="#16a34a" stroke="#fff" stroke-width="1.5"/>
<circle cx="944.3" cy="735.7" r="3.5" fill="#16a34a" stroke="#fff" stroke-width="1.5"/>
<circle cx="970.0" cy="735.5" r="3.5" fill="#16a34a" stroke="#fff" stroke-width="1.5"/>
<polyline fill="none" stroke="#ea580c" stroke-width="2" stroke-linejoin="round" points="72.0,695.4 97.7,695.6 123.3,696.8 149.0,594.9 174.6,592.3 200.3,592.1 225.9,593.6 251.6,503.6 277.3,519.8 302.9,724.5 328.6,723.0 354.2,723.1 379.9,722.7 405.5,721.9 431.2,722.1 456.9,721.5 482.5,721.5 508.2,721.6 533.8,721.9 559.5,722.0 585.1,722.2 610.8,721.9 636.5,722.4 662.1,722.2 687.8,722.3 713.4,722.2 739.1,722.5 764.7,721.2 790.4,724.6 816.1,725.1 841.7,723.0 867.4,723.7 893.0,721.8 918.7,723.3 944.3,721.8 970.0,722.1"/>
<circle cx="72.0" cy="695.4" r="3.5" fill="#ea580c" stroke="#fff" stroke-width="1.5"/>
<circle cx="97.7" cy="695.6" r="3.5" fill="#ea580c" stroke="#fff" stroke-width="1.5"/>
<circle cx="123.3" cy="696.8" r="3.5" fill="#ea580c" stroke="#fff" stroke-width="1.5"/>
<circle cx="149.0" cy="594.9" r="3.5" fill="#ea580c" stroke="#fff" stroke-width="1.5"/>
<circle cx="174.6" cy="592.3" r="3.5" fill="#ea580c" stroke="#fff" stroke-width="1.5"/>
<circle cx="200.3" cy="592.1" r="3.5" fill="#ea580c" stroke="#fff" stroke-width="1.5"/>
<circle cx="225.9" cy="593.6" r="3.5" fill="#ea580c" stroke="#fff" stroke-width="1.5"/>
<circle cx="251.6" cy="503.6" r="3.5" fill="#ea580c" stroke="#fff" stroke-width="1.5"/>
<circle cx="277.3" cy="519.8" r="3.5" fill="#ea580c" stroke="#fff" stroke-width="1.5"/>
<circle cx="302.9" cy="724.5" r="3.5" fill="#ea580c" stroke="#fff" stroke-width="1.5"/>
<circle cx="328.6" cy="723.0" r="3.5" fill="#ea580c" stroke="#fff" stroke-width="1.5"/>
<circle cx="354.2" cy="723.1" r="3.5" fill="#ea580c" stroke="#fff" stroke-width="1.5"/>
<circle cx="379.9" cy="722.7" r="3.5" fill="#ea580c" stroke="#fff" stroke-width="1.5"/>
<circle cx="405.5" cy="721.9" r="3.5" fill="#ea580c" stroke="#fff" stroke-width="1.5"/>
<circle cx="431.2" cy="722.1" r="3.5" fill="#ea580c" stroke="#fff" stroke-width="1.5"/>
<circle cx="456.9" cy="721.5" r="3.5" fill="#ea580c" stroke="#fff" stroke-width="1.5"/>
<circle cx="482.5" cy="721.5" r="3.5" fill="#ea580c" stroke="#fff" stroke-width="1.5"/>
<circle cx="508.2" cy="721.6" r="3.5" fill="#ea580c" stroke="#fff" stroke-width="1.5"/>
<circle cx="533.8" cy="721.9" r="3.5" fill="#ea580c" stroke="#fff" stroke-width="1.5"/>
<circle cx="559.5" cy="722.0" r="3.5" fill="#ea580c" stroke="#fff" stroke-width="1.5"/>
<circle cx="585.1" cy="722.2" r="3.5" fill="#ea580c" stroke="#fff" stroke-width="1.5"/>
<circle cx="610.8" cy="721.9" r="3.5" fill="#ea580c" stroke="#fff" stroke-width="1.5"/>
<circle cx="636.5" cy="722.4" r="3.5" fill="#ea580c" stroke="#fff" stroke-width="1.5"/>
<circle cx="662.1" cy="722.2" r="3.5" fill="#ea580c" stroke="#fff" stroke-width="1.5"/>
<circle cx="687.8" cy="722.3" r="3.5" fill="#ea580c" stroke="#fff" stroke-width="1.5"/>
<circle cx="713.4" cy="722.2" r="3.5" fill="#ea580c" stroke="#fff" stroke-width="1.5"/>
<circle cx="739.1" cy="722.5" r="3.5" fill="#ea580c" stroke="#fff" stroke-width="1.5"/>
<circle cx="764.7" cy="721.2" r="3.5" fill="#ea580c" stroke="#fff" stroke-width="1.5"/>
<circle cx="790.4" cy="724.6" r="3.5" fill="#ea580c" stroke="#fff" stroke-width="1.5"/>
<circle cx="816.1" cy="725.1" r="3.5" fill="#ea580c" stroke="#fff" stroke-width="1.5"/>
<circle cx="841.7" cy="723.0" r="3.5" fill="#ea580c" stroke="#fff" stroke-width="1.5"/>
<circle cx="867.4" cy="723.7" r="3.5" fill="#ea580c" stroke="#fff" stroke-width="1.5"/>
<circle cx="893.0" cy="721.8" r="3.5" fill="#ea580c" stroke="#fff" stroke-width="1.5"/>
<circle cx="918.7" cy="723.3" r="3.5" fill="#ea580c" stroke="#fff" stroke-width="1.5"/>
<circle cx="944.3" cy="721.8" r="3.5" fill="#ea580c" stroke="#fff" stroke-width="1.5"/>
<circle cx="970.0" cy="722.1" r="3.5" fill="#ea580c" stroke="#fff" stroke-width="1.5"/>
<polyline fill="none" stroke="#dc2626" stroke-width="2" stroke-linejoin="round" points="72.0,694.1 97.7,697.2 123.3,696.0 149.0,578.7 174.6,573.1 200.3,579.6 225.9,577.7 251.6,483.1 277.3,488.9 302.9,717.6 328.6,720.0 354.2,719.7 379.9,720.1 405.5,718.0 431.2,719.2 456.9,717.9 482.5,718.3 508.2,719.2 533.8,719.3 559.5,719.3 585.1,719.3 610.8,719.0 636.5,719.3 662.1,719.3 687.8,719.1 713.4,719.5 739.1,719.2 764.7,718.3 790.4,722.2 816.1,722.5 841.7,720.7 867.4,721.2 893.0,719.8 918.7,719.7 944.3,719.7 970.0,719.3"/>
<circle cx="72.0" cy="694.1" r="3.5" fill="#dc2626" stroke="#fff" stroke-width="1.5"/>
<circle cx="97.7" cy="697.2" r="3.5" fill="#dc2626" stroke="#fff" stroke-width="1.5"/>
<circle cx="123.3" cy="696.0" r="3.5" fill="#dc2626" stroke="#fff" stroke-width="1.5"/>
<circle cx="149.0" cy="578.7" r="3.5" fill="#dc2626" stroke="#fff" stroke-width="1.5"/>
<circle cx="174.6" cy="573.1" r="3.5" fill="#dc2626" stroke="#fff" stroke-width="1.5"/>
<circle cx="200.3" cy="579.6" r="3.5" fill="#dc2626" stroke="#fff" stroke-width="1.5"/>
<circle cx="225.9" cy="577.7" r="3.5" fill="#dc2626" stroke="#fff" stroke-width="1.5"/>
<circle cx="251.6" cy="483.1" r="3.5" fill="#dc2626" stroke="#fff" stroke-width="1.5"/>
<circle cx="277.3" cy="488.9" r="3.5" fill="#dc2626" stroke="#fff" stroke-width="1.5"/>
<circle cx="302.9" cy="717.6" r="3.5" fill="#dc2626" stroke="#fff" stroke-width="1.5"/>
<circle cx="328.6" cy="720.0" r="3.5" fill="#dc2626" stroke="#fff" stroke-width="1.5"/>
<circle cx="354.2" cy="719.7" r="3.5" fill="#dc2626" stroke="#fff" stroke-width="1.5"/>
<circle cx="379.9" cy="720.1" r="3.5" fill="#dc2626" stroke="#fff" stroke-width="1.5"/>
<circle cx="405.5" cy="718.0" r="3.5" fill="#dc2626" stroke="#fff" stroke-width="1.5"/>
<circle cx="431.2" cy="719.2" r="3.5" fill="#dc2626" stroke="#fff" stroke-width="1.5"/>
<circle cx="456.9" cy="717.9" r="3.5" fill="#dc2626" stroke="#fff" stroke-width="1.5"/>
<circle cx="482.5" cy="718.3" r="3.5" fill="#dc2626" stroke="#fff" stroke-width="1.5"/>
<circle cx="508.2" cy="719.2" r="3.5" fill="#dc2626" stroke="#fff" stroke-width="1.5"/>
<circle cx="533.8" cy="719.3" r="3.5" fill="#dc2626" stroke="#fff" stroke-width="1.5"/>
<circle cx="559.5" cy="719.3" r="3.5" fill="#dc2626" stroke="#fff" stroke-width="1.5"/>
<circle cx="585.1" cy="719.3" r="3.5" fill="#dc2626" stroke="#fff" stroke-width="1.5"/>
<circle cx="610.8" cy="719.0" r="3.5" fill="#dc2626" stroke="#fff" stroke-width="1.5"/>
<circle cx="636.5" cy="719.3" r="3.5" fill="#dc2626" stroke="#fff" stroke-width="1.5"/>
<circle cx="662.1" cy="719.3" r="3.5" fill="#dc2626" stroke="#fff" stroke-width="1.5"/>
<circle cx="687.8" cy="719.1" r="3.5" fill="#dc2626" stroke="#fff" stroke-width="1.5"/>
<circle cx="713.4" cy="719.5" r="3.5" fill="#dc2626" stroke="#fff" stroke-width="1.5"/>
<circle cx="739.1" cy="719.2" r="3.5" fill="#dc2626" stroke="#fff" stroke-width="1.5"/>
<circle cx="764.7" cy="718.3" r="3.5" fill="#dc2626" stroke="#fff" stroke-width="1.5"/>
<circle cx="790.4" cy="722.2" r="3.5" fill="#dc2626" stroke="#fff" stroke-width="1.5"/>
<circle cx="816.1" cy="722.5" r="3.5" fill="#dc2626" stroke="#fff" stroke-width="1.5"/>
<circle cx="841.7" cy="720.7" r="3.5" fill="#dc2626" stroke="#fff" stroke-width="1.5"/>
<circle cx="867.4" cy="721.2" r="3.5" fill="#dc2626" stroke="#fff" stroke-width="1.5"/>
<circle cx="893.0" cy="719.8" r="3.5" fill="#dc2626" stroke="#fff" stroke-width="1.5"/>
<circle cx="918.7" cy="719.7" r="3.5" fill="#dc2626" stroke="#fff" stroke-width="1.5"/>
<circle cx="944.3" cy="719.7" r="3.5" fill="#dc2626" stroke="#fff" stroke-width="1.5"/>
<circle cx="970.0" cy="719.3" r="3.5" fill="#dc2626" stroke="#fff" stroke-width="1.5"/>
<circle cx="986" cy="454" r="5" fill="#2563eb"/>
<text x="998" y="458" font-size="12" fill="#334155">small</text>
<circle cx="986" cy="476" r="5" fill="#16a34a"/>
<text x="998" y="480" font-size="12" fill="#334155">medium</text>
<circle cx="986" cy="498" r="5" fill="#ea580c"/>
<text x="998" y="502" font-size="12" fill="#334155">large</text>
<circle cx="986" cy="520" r="5" fill="#dc2626"/>
<text x="998" y="524" font-size="12" fill="#334155">stress</text>
</svg>
