<?xml version="1.0" encoding="UTF-8"?>
<svg xmlns="http://www.w3.org/2000/svg" width="1080" height="810" viewBox="0 0 1080 810" font-family="system-ui,sans-serif">
<rect width="1080" height="810" fill="#fff" rx="6"/>
<text x="72" y="28" font-size="15" font-weight="600" fill="#1e293b">hdi benchmark - median parse time</text>
<line x1="72" y1="344.0" x2="970" y2="344.0" stroke="#e2e8f0" stroke-width="1"/>
<text x="64" y="348.0" text-anchor="end" font-size="11" fill="#64748b">0</text>
<line x1="72" y1="332.0" x2="970" y2="332.0" stroke="#e2e8f0" stroke-width="1"/>
<text x="64" y="336.0" text-anchor="end" font-size="11" fill="#64748b">50</text>
<line x1="72" y1="320.0" x2="970" y2="320.0" stroke="#e2e8f0" stroke-width="1"/>
<text x="64" y="324.0" text-anchor="end" font-size="11" fill="#64748b">100</text>
<line x1="72" y1="308.0" x2="970" y2="308.0" stroke="#e2e8f0" stroke-width="1"/>
<text x="64" y="312.0" text-anchor="end" font-size="11" fill="#64748b">150</text>
<line x1="72" y1="296.0" x2="970" y2="296.0" stroke="#e2e8f0" stroke-width="1"/>
<text x="64" y="300.0" text-anchor="end" font-size="11" fill="#64748b">200</text>
<line x1="72" y1="284.0" x2="970" y2="284.0" stroke="#e2e8f0" stroke-width="1"/>
<text x="64" y="288.0" text-anchor="end" font-size="11" fill="#64748b">250</text>
<line x1="72" y1="272.0" x2="970" y2="272.0" stroke="#e2e8f0" stroke-width="1"/>
<text x="64" y="276.0" text-anchor="end" font-size="11" fill="#64748b">300</text>
<line x1="72" y1="260.0" x2="970" y2="260.0" stroke="#e2e8f0" stroke-width="1"/>
<text x="64" y="264.0" text-anchor="end" font-size="11" fill="#64748b">350</text>
<line x1="72" y1="248.0" x2="970" y2="248.0" stroke="#e2e8f0" stroke-width="1"/>
<text x="64" y="252.0" text-anchor="end" font-size="11" fill="#64748b">400</text>
<line x1="72" y1="236.0" x2="970" y2="236.0" stroke="#e2e8f0" stroke-width="1"/>
<text x="64" y="240.0" text-anchor="end" font-size="11" fill="#64748b">450</text>
<line x1="72" y1="224.0" x2="970" y2="224.0" stroke="#e2e8f0" stroke-width="1"/>
<text x="64" y="228.0" text-anchor="end" font-size="11" fill="#64748b">500</text>
<line x1="72" y1="212.0" x2="970" y2="212.0" stroke="#e2e8f0" stroke-width="1"/>
<text x="64" y="216.0" text-anchor="end" font-size="11" fill="#64748b">550</text>
<line x1="72" y1="200.0" x2="970" y2="200.0" stroke="#e2e8f0" stroke-width="1"/>
<text x="64" y="204.0" text-anchor="end" font-size="11" fill="#64748b">600</text>
<line x1="72" y1="188.0" x2="970" y2="188.0" stroke="#e2e8f0" stroke-width="1"/>
<text x="64" y="192.0" text-anchor="end" font-size="11" fill="#64748b">650</text>
<line x1="72" y1="176.0" x2="970" y2="176.0" stroke="#e2e8f0" stroke-width="1"/>
<text x="64" y="180.0" text-anchor="end" font-size="11" fill="#64748b">700</text>
<line x1="72" y1="164.0" x2="970" y2="164.0" stroke="#e2e8f0" stroke-width="1"/>
<text x="64" y="168.0" text-anchor="end" font-size="11" fill="#64748b">750</text>
<line x1="72" y1="152.0" x2="970" y2="152.0" stroke="#e2e8f0" stroke-width="1"/>
<text x="64" y="156.0" text-anchor="end" font-size="11" fill="#64748b">800</text>
<line x1="72" y1="140.0" x2="970" y2="140.0" stroke="#e2e8f0" stroke-width="1"/>
<text x="64" y="144.0" text-anchor="end" font-size="11" fill="#64748b">850</text>
<line x1="72" y1="128.0" x2="970" y2="128.0" stroke="#e2e8f0" stroke-width="1"/>
<text x="64" y="132.0" text-anchor="end" font-size="11" fill="#64748b">900</text>
<line x1="72" y1="116.0" x2="970" y2="116.0" stroke="#e2e8f0" stroke-width="1"/>
<text x="64" y="120.0" text-anchor="end" font-size="11" fill="#64748b">950</text>
<line x1="72" y1="104.0" x2="970" y2="104.0" stroke="#e2e8f0" stroke-width="1"/>
<text x="64" y="108.0" text-anchor="end" font-size="11" fill="#64748b">1000</text>
<line x1="72" y1="92.0" x2="970" y2="92.0" stroke="#e2e8f0" stroke-width="1"/>
<text x="64" y="96.0" text-anchor="end" font-size="11" fill="#64748b">1050</text>
<line x1="72" y1="80.0" x2="970" y2="80.0" stroke="#e2e8f0" stroke-width="1"/>
<text x="64" y="84.0" text-anchor="end" font-size="11" fill="#64748b">1100</text>
<line x1="72" y1="68.0" x2="970" y2="68.0" stroke="#e2e8f0" stroke-width="1"/>
<text x="64" y="72.0" text-anchor="end" font-size="11" fill="#64748b">1150</text>
<line x1="72" y1="56.0" x2="970" y2="56.0" stroke="#e2e8f0" stroke-width="1"/>
<text x="64" y="60.0" text-anchor="end" font-size="11" fill="#64748b">1200</text>
<line x1="72" y1="44.0" x2="970" y2="44.0" stroke="#e2e8f0" stroke-width="1"/>
<text x="64" y="48.0" text-anchor="end" font-size="11" fill="#64748b">1250</text>
<text x="14" y="194" font-size="11" fill="#64748b" transform="rotate(-90,14,194)">ms</text>
<text x="72.0" y="364" text-anchor="middle" font-size="11" fill="#64748b">0.1.0</text>
<text x="101.0" y="364" text-anchor="middle" font-size="11" fill="#64748b">0.2.0</text>
<text x="129.9" y="364" text-anchor="middle" font-size="11" fill="#64748b">0.3.0</text>
<text x="158.9" y="364" text-anchor="middle" font-size="11" fill="#64748b">0.4.0</text>
<text x="187.9" y="364" text-anchor="middle" font-size="11" fill="#64748b">0.5.0</text>
<text x="216.8" y="364" text-anchor="middle" font-size="11" fill="#64748b">0.6.0</text>
<text x="245.8" y="364" text-anchor="middle" font-size="11" fill="#64748b">0.7.0</text>
<text x="274.8" y="364" text-anchor="middle" font-size="11" fill="#64748b">0.8.0</text>
<text x="303.7" y="364" text-anchor="middle" font-size="11" fill="#64748b">0.9.0</text>
<text x="332.7" y="364" text-anchor="middle" font-size="11" fill="#64748b">0.10.0</text>
<text x="361.7" y="364" text-anchor="middle" font-size="11" fill="#64748b">0.11.0</text>
<text x="390.6" y="364" text-anchor="middle" font-size="11" fill="#64748b">0.12.0</text>
<text x="419.6" y="364" text-anchor="middle" font-size="11" fill="#64748b">0.13.0</text>
<text x="448.6" y="364" text-anchor="middle" font-size="11" fill="#64748b">0.14.0</text>
<text x="477.5" y="364" text-anchor="middle" font-size="11" fill="#64748b">0.15.0</text>
<text x="506.5" y="364" text-anchor="middle" font-size="11" fill="#64748b">0.16.0</text>
<text x="535.5" y="364" text-anchor="middle" font-size="11" fill="#64748b">0.17.0</text>
<text x="564.5" y="364" text-anchor="middle" font-size="11" fill="#64748b">0.17.1</text>
<text x="593.4" y="364" text-anchor="middle" font-size="11" fill="#64748b">0.17.2</text>
<text x="622.4" y="364" text-anchor="middle" font-size="11" fill="#64748b">0.18.0</text>
<text x="651.4" y="364" text-anchor="middle" font-size="11" fill="#64748b">0.18.1</text>
<text x="680.3" y="364" text-anchor="middle" font-size="11" fill="#64748b">0.18.2</text>
<text x="709.3" y="364" text-anchor="middle" font-size="11" fill="#64748b">0.18.3</text>
<text x="738.3" y="364" text-anchor="middle" font-size="11" fill="#64748b">0.18.4</text>
<text x="767.2" y="364" text-anchor="middle" font-size="11" fill="#64748b">0.18.5</text>
<text x="796.2" y="364" text-anchor="middle" font-size="11" fill="#64748b">0.19.0</text>
<text x="825.2" y="364" text-anchor="middle" font-size="11" fill="#64748b">0.19.1</text>
<text x="854.1" y="364" text-anchor="middle" font-size="11" fill="#64748b">0.20.0</text>
<text x="883.1" y="364" text-anchor="middle" font-size="11" fill="#64748b">0.21.0</text>
<text x="912.1" y="364" text-anchor="middle" font-size="11" fill="#64748b">0.21.1</text>
<text x="941.0" y="364" text-anchor="middle" font-size="11" fill="#64748b">0.22.0</text>
<text x="970.0" y="364" text-anchor="middle" font-size="11" fill="#64748b">0.23.0</text>
<text x="521" y="384" text-anchor="middle" font-size="11" fill="#64748b">release</text>
<polyline fill="none" stroke="#2563eb" stroke-width="2" stroke-linejoin="round" points="72.0,335.3 101.0,335.5 129.9,335.9 158.9,324.7 187.9,324.5 216.8,324.9 245.8,320.3 274.8,319.9 303.7,319.3 332.7,338.6 361.7,338.9 390.6,338.4 419.6,339.2 448.6,339.1 477.5,338.5 506.5,338.8 535.5,338.9 564.5,338.9 593.4,339.1 622.4,338.9 651.4,339.0 680.3,338.8 709.3,339.0 738.3,338.9 767.2,338.6 796.2,338.5 825.2,338.9 854.1,338.2 883.1,338.4 912.1,338.6 941.0,338.8 970.0,338.6"/>
<circle cx="72.0" cy="335.3" r="3.5" fill="#2563eb" stroke="#fff" stroke-width="1.5"/>
<circle cx="101.0" cy="335.5" r="3.5" fill="#2563eb" stroke="#fff" stroke-width="1.5"/>
<circle cx="129.9" cy="335.9" r="3.5" fill="#2563eb" stroke="#fff" stroke-width="1.5"/>
<circle cx="158.9" cy="324.7" r="3.5" fill="#2563eb" stroke="#fff" stroke-width="1.5"/>
<circle cx="187.9" cy="324.5" r="3.5" fill="#2563eb" stroke="#fff" stroke-width="1.5"/>
<circle cx="216.8" cy="324.9" r="3.5" fill="#2563eb" stroke="#fff" stroke-width="1.5"/>
<circle cx="245.8" cy="320.3" r="3.5" fill="#2563eb" stroke="#fff" stroke-width="1.5"/>
<circle cx="274.8" cy="319.9" r="3.5" fill="#2563eb" stroke="#fff" stroke-width="1.5"/>
<circle cx="303.7" cy="319.3" r="3.5" fill="#2563eb" stroke="#fff" stroke-width="1.5"/>
<circle cx="332.7" cy="338.6" r="3.5" fill="#2563eb" stroke="#fff" stroke-width="1.5"/>
<circle cx="361.7" cy="338.9" r="3.5" fill="#2563eb" stroke="#fff" stroke-width="1.5"/>
<circle cx="390.6" cy="338.4" r="3.5" fill="#2563eb" stroke="#fff" stroke-width="1.5"/>
<circle cx="419.6" cy="339.2" r="3.5" fill="#2563eb" stroke="#fff" stroke-width="1.5"/>
<circle cx="448.6" cy="339.1" r="3.5" fill="#2563eb" stroke="#fff" stroke-width="1.5"/>
<circle cx="477.5" cy="338.5" r="3.5" fill="#2563eb" stroke="#fff" stroke-width="1.5"/>
<circle cx="506.5" cy="338.8" r="3.5" fill="#2563eb" stroke="#fff" stroke-width="1.5"/>
<circle cx="535.5" cy="338.9" r="3.5" fill="#2563eb" stroke="#fff" stroke-width="1.5"/>
<circle cx="564.5" cy="338.9" r="3.5" fill="#2563eb" stroke="#fff" stroke-width="1.5"/>
<circle cx="593.4" cy="339.1" r="3.5" fill="#2563eb" stroke="#fff" stroke-width="1.5"/>
<circle cx="622.4" cy="338.9" r="3.5" fill="#2563eb" stroke="#fff" stroke-width="1.5"/>
<circle cx="651.4" cy="339.0" r="3.5" fill="#2563eb" stroke="#fff" stroke-width="1.5"/>
<circle cx="680.3" cy="338.8" r="3.5" fill="#2563eb" stroke="#fff" stroke-width="1.5"/>
<circle cx="709.3" cy="339.0" r="3.5" fill="#2563eb" stroke="#fff" stroke-width="1.5"/>
<circle cx="738.3" cy="338.9" r="3.5" fill="#2563eb" stroke="#fff" stroke-width="1.5"/>
<circle cx="767.2" cy="338.6" r="3.5" fill="#2563eb" stroke="#fff" stroke-width="1.5"/>
<circle cx="796.2" cy="338.5" r="3.5" fill="#2563eb" stroke="#fff" stroke-width="1.5"/>
<circle cx="825.2" cy="338.9" r="3.5" fill="#2563eb" stroke="#fff" stroke-width="1.5"/>
<circle cx="854.1" cy="338.2" r="3.5" fill="#2563eb" stroke="#fff" stroke-width="1.5"/>
<circle cx="883.1" cy="338.4" r="3.5" fill="#2563eb" stroke="#fff" stroke-width="1.5"/>
<circle cx="912.1" cy="338.6" r="3.5" fill="#2563eb" stroke="#fff" stroke-width="1.5"/>
<circle cx="941.0" cy="338.8" r="3.5" fill="#2563eb" stroke="#fff" stroke-width="1.5"/>
<circle cx="970.0" cy="338.6" r="3.5" fill="#2563eb" stroke="#fff" stroke-width="1.5"/>
<polyline fill="none" stroke="#16a34a" stroke-width="2" stroke-linejoin="round" points="72.0,321.3 101.0,321.2 129.9,319.9 158.9,259.1 187.9,261.8 216.8,260.8 245.8,232.0 274.8,230.0 303.7,223.4 332.7,331.5 361.7,332.8 390.6,331.5 419.6,332.7 448.6,332.8 477.5,331.7 506.5,331.6 535.5,332.3 564.5,332.3 593.4,332.5 622.4,331.6 651.4,332.4 680.3,332.5 709.3,332.5 738.3,332.0 767.2,332.3 796.2,332.0 825.2,332.4 854.1,330.6 883.1,331.3 912.1,332.4 941.0,332.1 970.0,331.9"/>
<circle cx="72.0" cy="321.3" r="3.5" fill="#16a34a" stroke="#fff" stroke-width="1.5"/>
<circle cx="101.0" cy="321.2" r="3.5" fill="#16a34a" stroke="#fff" stroke-width="1.5"/>
<circle cx="129.9" cy="319.9" r="3.5" fill="#16a34a" stroke="#fff" stroke-width="1.5"/>
<circle cx="158.9" cy="259.1" r="3.5" fill="#16a34a" stroke="#fff" stroke-width="1.5"/>
<circle cx="187.9" cy="261.8" r="3.5" fill="#16a34a" stroke="#fff" stroke-width="1.5"/>
<circle cx="216.8" cy="260.8" r="3.5" fill="#16a34a" stroke="#fff" stroke-width="1.5"/>
<circle cx="245.8" cy="232.0" r="3.5" fill="#16a34a" stroke="#fff" stroke-width="1.5"/>
<circle cx="274.8" cy="230.0" r="3.5" fill="#16a34a" stroke="#fff" stroke-width="1.5"/>
<circle cx="303.7" cy="223.4" r="3.5" fill="#16a34a" stroke="#fff" stroke-width="1.5"/>
<circle cx="332.7" cy="331.5" r="3.5" fill="#16a34a" stroke="#fff" stroke-width="1.5"/>
<circle cx="361.7" cy="332.8" r="3.5" fill="#16a34a" stroke="#fff" stroke-width="1.5"/>
<circle cx="390.6" cy="331.5" r="3.5" fill="#16a34a" stroke="#fff" stroke-width="1.5"/>
<circle cx="419.6" cy="332.7" r="3.5" fill="#16a34a" stroke="#fff" stroke-width="1.5"/>
<circle cx="448.6" cy="332.8" r="3.5" fill="#16a34a" stroke="#fff" stroke-width="1.5"/>
<circle cx="477.5" cy="331.7" r="3.5" fill="#16a34a" stroke="#fff" stroke-width="1.5"/>
<circle cx="506.5" cy="331.6" r="3.5" fill="#16a34a" stroke="#fff" stroke-width="1.5"/>
<circle cx="535.5" cy="332.3" r="3.5" fill="#16a34a" stroke="#fff" stroke-width="1.5"/>
<circle cx="564.5" cy="332.3" r="3.5" fill="#16a34a" stroke="#fff" stroke-width="1.5"/>
<circle cx="593.4" cy="332.5" r="3.5" fill="#16a34a" stroke="#fff" stroke-width="1.5"/>
<circle cx="622.4" cy="331.6" r="3.5" fill="#16a34a" stroke="#fff" stroke-width="1.5"/>
<circle cx="651.4" cy="332.4" r="3.5" fill="#16a34a" stroke="#fff" stroke-width="1.5"/>
<circle cx="680.3" cy="332.5" r="3.5" fill="#16a34a" stroke="#fff" stroke-width="1.5"/>
<circle cx="709.3" cy="332.5" r="3.5" fill="#16a34a" stroke="#fff" stroke-width="1.5"/>
<circle cx="738.3" cy="332.0" r="3.5" fill="#16a34a" stroke="#fff" stroke-width="1.5"/>
<circle cx="767.2" cy="332.3" r="3.5" fill="#16a34a" stroke="#fff" stroke-width="1.5"/>
<circle cx="796.2" cy="332.0" r="3.5" fill="#16a34a" stroke="#fff" stroke-width="1.5"/>
<circle cx="825.2" cy="332.4" r="3.5" fill="#16a34a" stroke="#fff" stroke-width="1.5"/>
<circle cx="854.1" cy="330.6" r="3.5" fill="#16a34a" stroke="#fff" stroke-width="1.5"/>
<circle cx="883.1" cy="331.3" r="3.5" fill="#16a34a" stroke="#fff" stroke-width="1.5"/>
<circle cx="912.1" cy="332.4" r="3.5" fill="#16a34a" stroke="#fff" stroke-width="1.5"/>
<circle cx="941.0" cy="332.1" r="3.5" fill="#16a34a" stroke="#fff" stroke-width="1.5"/>
<circle cx="970.0" cy="331.9" r="3.5" fill="#16a34a" stroke="#fff" stroke-width="1.5"/>
<polyline fill="none" stroke="#ea580c" stroke-width="2" stroke-linejoin="round" points="72.0,294.3 101.0,295.5 129.9,296.3 158.9,186.8 187.9,189.2 216.8,187.7 245.8,124.3 274.8,106.5 303.7,110.3 332.7,321.2 361.7,320.4 390.6,319.2 419.6,320.2 448.6,320.1 477.5,319.3 506.5,318.2 535.5,319.4 564.5,319.5 593.4,319.6 622.4,318.9 651.4,319.4 680.3,319.3 709.3,319.4 738.3,319.6 767.2,319.0 796.2,319.4 825.2,319.1 854.1,316.6 883.1,318.9 912.1,318.5 941.0,319.3 970.0,318.4"/>
<circle cx="72.0" cy="294.3" r="3.5" fill="#ea580c" stroke="#fff" stroke-width="1.5"/>
<circle cx="101.0" cy="295.5" r="3.5" fill="#ea580c" stroke="#fff" stroke-width="1.5"/>
<circle cx="129.9" cy="296.3" r="3.5" fill="#ea580c" stroke="#fff" stroke-width="1.5"/>
<circle cx="158.9" cy="186.8" r="3.5" fill="#ea580c" stroke="#fff" stroke-width="1.5"/>
<circle cx="187.9" cy="189.2" r="3.5" fill="#ea580c" stroke="#fff" stroke-width="1.5"/>
<circle cx="216.8" cy="187.7" r="3.5" fill="#ea580c" stroke="#fff" stroke-width="1.5"/>
<circle cx="245.8" cy="124.3" r="3.5" fill="#ea580c" stroke="#fff" stroke-width="1.5"/>
<circle cx="274.8" cy="106.5" r="3.5" fill="#ea580c" stroke="#fff" stroke-width="1.5"/>
<circle cx="303.7" cy="110.3" r="3.5" fill="#ea580c" stroke="#fff" stroke-width="1.5"/>
<circle cx="332.7" cy="321.2" r="3.5" fill="#ea580c" stroke="#fff" stroke-width="1.5"/>
<circle cx="361.7" cy="320.4" r="3.5" fill="#ea580c" stroke="#fff" stroke-width="1.5"/>
<circle cx="390.6" cy="319.2" r="3.5" fill="#ea580c" stroke="#fff" stroke-width="1.5"/>
<circle cx="419.6" cy="320.2" r="3.5" fill="#ea580c" stroke="#fff" stroke-width="1.5"/>
<circle cx="448.6" cy="320.1" r="3.5" fill="#ea580c" stroke="#fff" stroke-width="1.5"/>
<circle cx="477.5" cy="319.3" r="3.5" fill="#ea580c" stroke="#fff" stroke-width="1.5"/>
<circle cx="506.5" cy="318.2" r="3.5" fill="#ea580c" stroke="#fff" stroke-width="1.5"/>
<circle cx="535.5" cy="319.4" r="3.5" fill="#ea580c" stroke="#fff" stroke-width="1.5"/>
<circle cx="564.5" cy="319.5" r="3.5" fill="#ea580c" stroke="#fff" stroke-width="1.5"/>
<circle cx="593.4" cy="319.6" r="3.5" fill="#ea580c" stroke="#fff" stroke-width="1.5"/>
<circle cx="622.4" cy="318.9" r="3.5" fill="#ea580c" stroke="#fff" stroke-width="1.5"/>
<circle cx="651.4" cy="319.4" r="3.5" fill="#ea580c" stroke="#fff" stroke-width="1.5"/>
<circle cx="680.3" cy="319.3" r="3.5" fill="#ea580c" stroke="#fff" stroke-width="1.5"/>
<circle cx="709.3" cy="319.4" r="3.5" fill="#ea580c" stroke="#fff" stroke-width="1.5"/>
<circle cx="738.3" cy="319.6" r="3.5" fill="#ea580c" stroke="#fff" stroke-width="1.5"/>
<circle cx="767.2" cy="319.0" r="3.5" fill="#ea580c" stroke="#fff" stroke-width="1.5"/>
<circle cx="796.2" cy="319.4" r="3.5" fill="#ea580c" stroke="#fff" stroke-width="1.5"/>
<circle cx="825.2" cy="319.1" r="3.5" fill="#ea580c" stroke="#fff" stroke-width="1.5"/>
<circle cx="854.1" cy="316.6" r="3.5" fill="#ea580c" stroke="#fff" stroke-width="1.5"/>
<circle cx="883.1" cy="318.9" r="3.5" fill="#ea580c" stroke="#fff" stroke-width="1.5"/>
<circle cx="912.1" cy="318.5" r="3.5" fill="#ea580c" stroke="#fff" stroke-width="1.5"/>
<circle cx="941.0" cy="319.3" r="3.5" fill="#ea580c" stroke="#fff" stroke-width="1.5"/>
<circle cx="970.0" cy="318.4" r="3.5" fill="#ea580c" stroke="#fff" stroke-width="1.5"/>
<polyline fill="none" stroke="#dc2626" stroke-width="2" stroke-linejoin="round" points="72.0,291.4 101.0,291.4 129.9,292.3 158.9,174.2 187.9,171.3 216.8,169.3 245.8,83.8 274.8,88.6 303.7,79.9 332.7,314.8 361.7,317.2 390.6,315.5 419.6,317.6 448.6,317.5 477.5,316.6 506.5,315.4 535.5,316.7 564.5,316.8 593.4,316.5 622.4,316.5 651.4,316.7 680.3,316.2 709.3,316.8 738.3,316.8 767.2,316.4 796.2,316.6 825.2,316.6 854.1,312.8 883.1,316.4 912.1,317.0 941.0,316.3 970.0,316.0"/>
<circle cx="72.0" cy="291.4" r="3.5" fill="#dc2626" stroke="#fff" stroke-width="1.5"/>
<circle cx="101.0" cy="291.4" r="3.5" fill="#dc2626" stroke="#fff" stroke-width="1.5"/>
<circle cx="129.9" cy="292.3" r="3.5" fill="#dc2626" stroke="#fff" stroke-width="1.5"/>
<circle cx="158.9" cy="174.2" r="3.5" fill="#dc2626" stroke="#fff" stroke-width="1.5"/>
<circle cx="187.9" cy="171.3" r="3.5" fill="#dc2626" stroke="#fff" stroke-width="1.5"/>
<circle cx="216.8" cy="169.3" r="3.5" fill="#dc2626" stroke="#fff" stroke-width="1.5"/>
<circle cx="245.8" cy="83.8" r="3.5" fill="#dc2626" stroke="#fff" stroke-width="1.5"/>
<circle cx="274.8" cy="88.6" r="3.5" fill="#dc2626" stroke="#fff" stroke-width="1.5"/>
<circle cx="303.7" cy="79.9" r="3.5" fill="#dc2626" stroke="#fff" stroke-width="1.5"/>
<circle cx="332.7" cy="314.8" r="3.5" fill="#dc2626" stroke="#fff" stroke-width="1.5"/>
<circle cx="361.7" cy="317.2" r="3.5" fill="#dc2626" stroke="#fff" stroke-width="1.5"/>
<circle cx="390.6" cy="315.5" r="3.5" fill="#dc2626" stroke="#fff" stroke-width="1.5"/>
<circle cx="419.6" cy="317.6" r="3.5" fill="#dc2626" stroke="#fff" stroke-width="1.5"/>
<circle cx="448.6" cy="317.5" r="3.5" fill="#dc2626" stroke="#fff" stroke-width="1.5"/>
<circle cx="477.5" cy="316.6" r="3.5" fill="#dc2626" stroke="#fff" stroke-width="1.5"/>
<circle cx="506.5" cy="315.4" r="3.5" fill="#dc2626" stroke="#fff" stroke-width="1.5"/>
<circle cx="535.5" cy="316.7" r="3.5" fill="#dc2626" stroke="#fff" stroke-width="1.5"/>
<circle cx="564.5" cy="316.8" r="3.5" fill="#dc2626" stroke="#fff" stroke-width="1.5"/>
<circle cx="593.4" cy="316.5" r="3.5" fill="#dc2626" stroke="#fff" stroke-width="1.5"/>
<circle cx="622.4" cy="316.5" r="3.5" fill="#dc2626" stroke="#fff" stroke-width="1.5"/>
<circle cx="651.4" cy="316.7" r="3.5" fill="#dc2626" stroke="#fff" stroke-width="1.5"/>
<circle cx="680.3" cy="316.2" r="3.5" fill="#dc2626" stroke="#fff" stroke-width="1.5"/>
<circle cx="709.3" cy="316.8" r="3.5" fill="#dc2626" stroke="#fff" stroke-width="1.5"/>
<circle cx="738.3" cy="316.8" r="3.5" fill="#dc2626" stroke="#fff" stroke-width="1.5"/>
<circle cx="767.2" cy="316.4" r="3.5" fill="#dc2626" stroke="#fff" stroke-width="1.5"/>
<circle cx="796.2" cy="316.6" r="3.5" fill="#dc2626" stroke="#fff" stroke-width="1.5"/>
<circle cx="825.2" cy="316.6" r="3.5" fill="#dc2626" stroke="#fff" stroke-width="1.5"/>
<circle cx="854.1" cy="312.8" r="3.5" fill="#dc2626" stroke="#fff" stroke-width="1.5"/>
<circle cx="883.1" cy="316.4" r="3.5" fill="#dc2626" stroke="#fff" stroke-width="1.5"/>
<circle cx="912.1" cy="317.0" r="3.5" fill="#dc2626" stroke="#fff" stroke-width="1.5"/>
<circle cx="941.0" cy="316.3" r="3.5" fill="#dc2626" stroke="#fff" stroke-width="1.5"/>
<circle cx="970.0" cy="316.0" r="3.5" fill="#dc2626" stroke="#fff" stroke-width="1.5"/>
<circle cx="986" cy="48" r="5" fill="#2563eb"/>
<text x="998" y="52" font-size="12" fill="#334155">small</text>
<circle cx="986" cy="70" r="5" fill="#16a34a"/>
<text x="998" y="74" font-size="12" fill="#334155">medium</text>
<circle cx="986" cy="92" r="5" fill="#ea580c"/>
<text x="998" y="96" font-size="12" fill="#334155">large</text>
<circle cx="986" cy="114" r="5" fill="#dc2626"/>
<text x="998" y="118" font-size="12" fill="#334155">stress</text>
<text x="72" y="434" font-size="15" font-weight="600" fill="#1e293b">hdi benchmark - picker time to first frame</text>
<line x1="72" y1="750.0" x2="970" y2="750.0" stroke="#e2e8f0" stroke-width="1"/>
<text x="64" y="754.0" text-anchor="end" font-size="11" fill="#64748b">0</text>
<line x1="72" y1="738.0" x2="970" y2="738.0" stroke="#e2e8f0" stroke-width="1"/>
<text x="64" y="742.0" text-anchor="end" font-size="11" fill="#64748b">50</text>
<line x1="72" y1="726.0" x2="970" y2="726.0" stroke="#e2e8f0" stroke-width="1"/>
<text x="64" y="730.0" text-anchor="end" font-size="11" fill="#64748b">100</text>
<line x1="72" y1="714.0" x2="970" y2="714.0" stroke="#e2e8f0" stroke-width="1"/>
<text x="64" y="718.0" text-anchor="end" font-size="11" fill="#64748b">150</text>
<line x1="72" y1="702.0" x2="970" y2="702.0" stroke="#e2e8f0" stroke-width="1"/>
<text x="64" y="706.0" text-anchor="end" font-size="11" fill="#64748b">200</text>
<line x1="72" y1="690.0" x2="970" y2="690.0" stroke="#e2e8f0" stroke-width="1"/>
<text x="64" y="694.0" text-anchor="end" font-size="11" fill="#64748b">250</text>
<line x1="72" y1="678.0" x2="970" y2="678.0" stroke="#e2e8f0" stroke-width="1"/>
<text x="64" y="682.0" text-anchor="end" font-size="11" fill="#64748b">300</text>
<line x1="72" y1="666.0" x2="970" y2="666.0" stroke="#e2e8f0" stroke-width="1"/>
<text x="64" y="670.0" text-anchor="end" font-size="11" fill="#64748b">350</text>
<line x1="72" y1="654.0" x2="970" y2="654.0" stroke="#e2e8f0" stroke-width="1"/>
<text x="64" y="658.0" text-anchor="end" font-size="11" fill="#64748b">400</text>
<line x1="72" y1="642.0" x2="970" y2="642.0" stroke="#e2e8f0" stroke-width="1"/>
<text x="64" y="646.0" text-anchor="end" font-size="11" fill="#64748b">450</text>
<line x1="72" y1="630.0" x2="970" y2="630.0" stroke="#e2e8f0" stroke-width="1"/>
<text x="64" y="634.0" text-anchor="end" font-size="11" fill="#64748b">500</text>
<line x1="72" y1="618.0" x2="970" y2="618.0" stroke="#e2e8f0" stroke-width="1"/>
<text x="64" y="622.0" text-anchor="end" font-size="11" fill="#64748b">550</text>
<line x1="72" y1="606.0" x2="970" y2="606.0" stroke="#e2e8f0" stroke-width="1"/>
<text x="64" y="610.0" text-anchor="end" font-size="11" fill="#64748b">600</text>
<line x1="72" y1="594.0" x2="970" y2="594.0" stroke="#e2e8f0" stroke-width="1"/>
<text x="64" y="598.0" text-anchor="end" font-size="11" fill="#64748b">650</text>
<line x1="72" y1="582.0" x2="970" y2="582.0" stroke="#e2e8f0" stroke-width="1"/>
<text x="64" y="586.0" text-anchor="end" font-size="11" fill="#64748b">700</text>
<line x1="72" y1="570.0" x2="970" y2="570.0" stroke="#e2e8f0" stroke-width="1"/>
<text x="64" y="574.0" text-anchor="end" font-size="11" fill="#64748b">750</text>
<line x1="72" y1="558.0" x2="970" y2="558.0" stroke="#e2e8f0" stroke-width="1"/>
<text x="64" y="562.0" text-anchor="end" font-size="11" fill="#64748b">800</text>
<line x1="72" y1="546.0" x2="970" y2="546.0" stroke="#e2e8f0" stroke-width="1"/>
<text x="64" y="550.0" text-anchor="end" font-size="11" fill="#64748b">850</text>
<line x1="72" y1="534.0" x2="970" y2="534.0" stroke="#e2e8f0" stroke-width="1"/>
<text x="64" y="538.0" text-anchor="end" font-size="11" fill="#64748b">900</text>
<line x1="72" y1="522.0" x2="970" y2="522.0" stroke="#e2e8f0" stroke-width="1"/>
<text x="64" y="526.0" text-anchor="end" font-size="11" fill="#64748b">950</text>
<line x1="72" y1="510.0" x2="970" y2="510.0" stroke="#e2e8f0" stroke-width="1"/>
<text x="64" y="514.0" text-anchor="end" font-size="11" fill="#64748b">1000</text>
<line x1="72" y1="498.0" x2="970" y2="498.0" stroke="#e2e8f0" stroke-width="1"/>
<text x="64" y="502.0" text-anchor="end" font-size="11" fill="#64748b">1050</text>
<line x1="72" y1="486.0" x2="970" y2="486.0" stroke="#e2e8f0" stroke-width="1"/>
<text x="64" y="490.0" text-anchor="end" font-size="11" fill="#64748b">1100</text>
<line x1="72" y1="474.0" x2="970" y2="474.0" stroke="#e2e8f0" stroke-width="1"/>
<text x="64" y="478.0" text-anchor="end" font-size="11" fill="#64748b">1150</text>
<line x1="72" y1="462.0" x2="970" y2="462.0" stroke="#e2e8f0" stroke-width="1"/>
<text x="64" y="466.0" text-anchor="end" font-size="11" fill="#64748b">1200</text>
<line x1="72" y1="450.0" x2="970" y2="450.0" stroke="#e2e8f0" stroke-width="1"/>
<text x="64" y="454.0" text-anchor="end" font-size="11" fill="#64748b">1250</text>
<text x="14" y="600" font-size="11" fill="#64748b" transform="rotate(-90,14,600)">ms</text>
<text x="72.0" y="770" text-anchor="middle" font-size="11" fill="#64748b">0.1.0</text>
<text x="101.0" y="770" text-anchor="middle" font-size="11" fill="#64748b">0.2.0</text>
<text x="129.9" y="770" text-anchor="middle" font-size="11" fill="#64748b">0.3.0</text>
<text x="158.9" y="770" text-anchor="middle" font-size="11" fill="#64748b">0.4.0</text>
<text x="187.9" y="770" text-anchor="middle" font-size="11" fill="#64748b">0.5.0</text>
<text x="216.8" y="770" text-anchor="middle" font-size="11" fill="#64748b">0.6.0</text>
<text x="245.8" y="770" text-anchor="middle" font-size="11" fill="#64748b">0.7.0</text>
<text x="274.8" y="770" text-anchor="middle" font-size="11" fill="#64748b">0.8.0</text>
<text x="303.7" y="770" text-anchor="middle" font-size="11" fill="#64748b">0.9.0</text>
<text x="332.7" y="770" text-anchor="middle" font-size="11" fill="#64748b">0.10.0</text>
<text x="361.7" y="770" text-anchor="middle" font-size="11" fill="#64748b">0.11.0</text>
<text x="390.6" y="770" text-anchor="middle" font-size="11" fill="#64748b">0.12.0</text>
<text x="419.6" y="770" text-anchor="middle" font-size="11" fill="#64748b">0.13.0</text>
<text x="448.6" y="770" text-anchor="middle" font-size="11" fill="#64748b">0.14.0</text>
<text x="477.5" y="770" text-anchor="middle" font-size="11" fill="#64748b">0.15.0</text>
<text x="506.5" y="770" text-anchor="middle" font-size="11" fill="#64748b">0.16.0</text>
<text x="535.5" y="770" text-anchor="middle" font-size="11" fill="#64748b">0.17.0</text>
<text x="564.5" y="770" text-anchor="middle" font-size="11" fill="#64748b">0.17.1</text>
<text x="593.4" y="770" text-anchor="middle" font-size="11" fill="#64748b">0.17.2</text>
<text x="622.4" y="770" text-anchor="middle" font-size="11" fill="#64748b">0.18.0</text>
<text x="651.4" y="770" text-anchor="middle" font-size="11" fill="#64748b">0.18.1</text>
<text x="680.3" y="770" text-anchor="middle" font-size="11" fill="#64748b">0.18.2</text>
<text x="709.3" y="770" text-anchor="middle" font-size="11" fill="#64748b">0.18.3</text>
<text x="738.3" y="770" text-anchor="middle" font-size="11" fill="#64748b">0.18.4</text>
<text x="767.2" y="770" text-anchor="middle" font-size="11" fill="#64748b">0.18.5</text>
<text x="796.2" y="770" text-anchor="middle" font-size="11" fill="#64748b">0.19.0</text>
<text x="825.2" y="770" text-anchor="middle" font-size="11" fill="#64748b">0.19.1</text>
<text x="854.1" y="770" text-anchor="middle" font-size="11" fill="#64748b">0.20.0</text>
<text x="883.1" y="770" text-anchor="middle" font-size="11" fill="#64748b">0.21.0</text>
<text x="912.1" y="770" text-anchor="middle" font-size="11" fill="#64748b">0.21.1</text>
<text x="941.0" y="770" text-anchor="middle" font-size="11" fill="#64748b">0.22.0</text>
<text x="970.0" y="770" text-anchor="middle" font-size="11" fill="#64748b">0.23.0</text>
<text x="521" y="790" text-anchor="middle" font-size="11" fill="#64748b">release</text>
<polyline fill="none" stroke="#2563eb" stroke-width="2" stroke-linejoin="round" points="72.0,740.7 101.0,740.9 129.9,740.8 158.9,729.2 187.9,730.2 216.8,730.3 245.8,730.2 274.8,725.5 303.7,723.7 332.7,744.0 361.7,744.6 390.6,744.6 419.6,744.2 448.6,744.1 477.5,743.9 506.5,744.3 535.5,743.4 564.5,744.2 593.4,744.3 622.4,744.1 651.4,744.3 680.3,744.4 709.3,744.2 738.3,744.2 767.2,744.3 796.2,744.2 825.2,744.3 854.1,743.4 883.1,744.1 912.1,744.2 941.0,743.0 970.0,743.8"/>
<circle cx="72.0" cy="740.7" r="3.5" fill="#2563eb" stroke="#fff" stroke-width="1.5"/>
<circle cx="101.0" cy="740.9" r="3.5" fill="#2563eb" stroke="#fff" stroke-width="1.5"/>
<circle cx="129.9" cy="740.8" r="3.5" fill="#2563eb" stroke="#fff" stroke-width="1.5"/>
<circle cx="158.9" cy="729.2" r="3.5" fill="#2563eb" stroke="#fff" stroke-width="1.5"/>
<circle cx="187.9" cy="730.2" r="3.5" fill="#2563eb" stroke="#fff" stroke-width="1.5"/>
<circle cx="216.8" cy="730.3" r="3.5" fill="#2563eb" stroke="#fff" stroke-width="1.5"/>
<circle cx="245.8" cy="730.2" r="3.5" fill="#2563eb" stroke="#fff" stroke-width="1.5"/>
<circle cx="274.8" cy="725.5" r="3.5" fill="#2563eb" stroke="#fff" stroke-width="1.5"/>
<circle cx="303.7" cy="723.7" r="3.5" fill="#2563eb" stroke="#fff" stroke-width="1.5"/>
<circle cx="332.7" cy="744.0" r="3.5" fill="#2563eb" stroke="#fff" stroke-width="1.5"/>
<circle cx="361.7" cy="744.6" r="3.5" fill="#2563eb" stroke="#fff" stroke-width="1.5"/>
<circle cx="390.6" cy="744.6" r="3.5" fill="#2563eb" stroke="#fff" stroke-width="1.5"/>
<circle cx="419.6" cy="744.2" r="3.5" fill="#2563eb" stroke="#fff" stroke-width="1.5"/>
<circle cx="448.6" cy="744.1" r="3.5" fill="#2563eb" stroke="#fff" stroke-width="1.5"/>
<circle cx="477.5" cy="743.9" r="3.5" fill="#2563eb" stroke="#fff" stroke-width="1.5"/>
<circle cx="506.5" cy="744.3" r="3.5" fill="#2563eb" stroke="#fff" stroke-width="1.5"/>
<circle cx="535.5" cy="743.4" r="3.5" fill="#2563eb" stroke="#fff" stroke-width="1.5"/>
<circle cx="564.5" cy="744.2" r="3.5" fill="#2563eb" stroke="#fff" stroke-width="1.5"/>
<circle cx="593.4" cy="744.3" r="3.5" fill="#2563eb" stroke="#fff" stroke-width="1.5"/>
<circle cx="622.4" cy="744.1" r="3.5" fill="#2563eb" stroke="#fff" stroke-width="1.5"/>
<circle cx="651.4" cy="744.3" r="3.5" fill="#2563eb" stroke="#fff" stroke-width="1.5"/>
<circle cx="680.3" cy="744.4" r="3.5" fill="#2563eb" stroke="#fff" stroke-width="1.5"/>
<circle cx="709.3" cy="744.2" r="3.5" fill="#2563eb" stroke="#fff" stroke-width="1.5"/>
<circle cx="738.3" cy="744.2" r="3.5" fill="#2563eb" stroke="#fff" stroke-width="1.5"/>
<circle cx="767.2" cy="744.3" r="3.5" fill="#2563eb" stroke="#fff" stroke-width="1.5"/>
<circle cx="796.2" cy="744.2" r="3.5" fill="#2563eb" stroke="#fff" stroke-width="1.5"/>
<circle cx="825.2" cy="744.3" r="3.5" fill="#2563eb" stroke="#fff" stroke-width="1.5"/>
<circle cx="854.1" cy="743.4" r="3.5" fill="#2563eb" stroke="#fff" stroke-width="1.5"/>
<circle cx="883.1" cy="744.1" r="3.5" fill="#2563eb" stroke="#fff" stroke-width="1.5"/>
<circle cx="912.1" cy="744.2" r="3.5" fill="#2563eb" stroke="#fff" stroke-width="1.5"/>
<circle cx="941.0" cy="743.0" r="3.5" fill="#2563eb" stroke="#fff" stroke-width="1.5"/>
<circle cx="970.0" cy="743.8" r="3.5" fill="#2563eb" stroke="#fff" stroke-width="1.5"/>
<polyline fill="none" stroke="#16a34a" stroke-width="2" stroke-linejoin="round" points="72.0,726.9 101.0,723.6 129.9,726.5 158.9,665.3 187.9,666.7 216.8,665.3 245.8,666.5 274.8,634.1 303.7,633.4 332.7,736.3 361.7,737.0 390.6,737.4 419.6,737.0 448.6,736.8 477.5,736.6 506.5,736.8 535.5,736.4 564.5,736.6 593.4,736.9 622.4,736.6 651.4,737.2 680.3,736.6 709.3,736.7 738.3,736.4 767.2,736.9 796.2,736.6 825.2,736.8 854.1,735.8 883.1,737.5 912.1,737.8 941.0,735.6 970.0,737.0"/>
<circle cx="72.0" cy="726.9" r="3.5" fill="#16a34a" stroke="#fff" stroke-width="1.5"/>
<circle cx="101.0" cy="723.6" r="3.5" fill="#16a34a" stroke="#fff" stroke-width="1.5"/>
<circle cx="129.9" cy="726.5" r="3.5" fill="#16a34a" stroke="#fff" stroke-width="1.5"/>
<circle cx="158.9" cy="665.3" r="3.5" fill="#16a34a" stroke="#fff" stroke-width="1.5"/>
<circle cx="187.9" cy="666.7" r="3.5" fill="#16a34a" stroke="#fff" stroke-width="1.5"/>
<circle cx="216.8" cy="665.3" r="3.5" fill="#16a34a" stroke="#fff" stroke-width="1.5"/>
<circle cx="245.8" cy="666.5" r="3.5" fill="#16a34a" stroke="#fff" stroke-width="1.5"/>
<circle cx="274.8" cy="634.1" r="3.5" fill="#16a34a" stroke="#fff" stroke-width="1.5"/>
<circle cx="303.7" cy="633.4" r="3.5" fill="#16a34a" stroke="#fff" stroke-width="1.5"/>
<circle cx="332.7" cy="736.3" r="3.5" fill="#16a34a" stroke="#fff" stroke-width="1.5"/>
<circle cx="361.7" cy="737.0" r="3.5" fill="#16a34a" stroke="#fff" stroke-width="1.5"/>
<circle cx="390.6" cy="737.4" r="3.5" fill="#16a34a" stroke="#fff" stroke-width="1.5"/>
<circle cx="419.6" cy="737.0" r="3.5" fill="#16a34a" stroke="#fff" stroke-width="1.5"/>
<circle cx="448.6" cy="736.8" r="3.5" fill="#16a34a" stroke="#fff" stroke-width="1.5"/>
<circle cx="477.5" cy="736.6" r="3.5" fill="#16a34a" stroke="#fff" stroke-width="1.5"/>
<circle cx="506.5" cy="736.8" r="3.5" fill="#16a34a" stroke="#fff" stroke-width="1.5"/>
<circle cx="535.5" cy="736.4" r="3.5" fill="#16a34a" stroke="#fff" stroke-width="1.5"/>
<circle cx="564.5" cy="736.6" r="3.5" fill="#16a34a" stroke="#fff" stroke-width="1.5"/>
<circle cx="593.4" cy="736.9" r="3.5" fill="#16a34a" stroke="#fff" stroke-width="1.5"/>
<circle cx="622.4" cy="736.6" r="3.5" fill="#16a34a" stroke="#fff" stroke-width="1.5"/>
<circle cx="651.4" cy="737.2" r="3.5" fill="#16a34a" stroke="#fff" stroke-width="1.5"/>
<circle cx="680.3" cy="736.6" r="3.5" fill="#16a34a" stroke="#fff" stroke-width="1.5"/>
<circle cx="709.3" cy="736.7" r="3.5" fill="#16a34a" stroke="#fff" stroke-width="1.5"/>
<circle cx="738.3" cy="736.4" r="3.5" fill="#16a34a" stroke="#fff" stroke-width="1.5"/>
<circle cx="767.2" cy="736.9" r="3.5" fill="#16a34a" stroke="#fff" stroke-width="1.5"/>
<circle cx="796.2" cy="736.6" r="3.5" fill="#16a34a" stroke="#fff" stroke-width="1.5"/>
<circle cx="825.2" cy="736.8" r="3.5" fill="#16a34a" stroke="#fff" stroke-width="1.5"/>
<circle cx="854.1" cy="735.8" r="3.5" fill="#16a34a" stroke="#fff" stroke-width="1.5"/>
<circle cx="883.1" cy="737.5" r="3.5" fill="#16a34a" stroke="#fff" stroke-width="1.5"/>
<circle cx="912.1" cy="737.8" r="3.5" fill="#16a34a" stroke="#fff" stroke-width="1.5"/>
<circle cx="941.0" cy="735.6" r="3.5" fill="#16a34a" stroke="#fff" stroke-width="1.5"/>
<circle cx="970.0" cy="737.0" r="3.5" fill="#16a34a" stroke="#fff" stroke-width="1.5"/>
<polyline fill="none" stroke="#ea580c" stroke-width="2" stroke-linejoin="round" points="72.0,695.4 101.0,695.6 129.9,696.8 158.9,594.9 187.9,592.3 216.8,592.1 245.8,593.6 274.8,503.6 303.7,519.8 332.7,724.5 361.7,723.0 390.6,723.1 419.6,722.7 448.6,721.9 477.5,722.1 506.5,721.5 535.5,721.5 564.5,721.6 593.4,721.9 622.4,722.0 651.4,722.2 680.3,721.9 709.3,722.4 738.3,722.2 767.2,722.3 796.2,722.2 825.2,722.5 854.1,721.2 883.1,724.6 912.1,725.1 941.0,723.0 970.0,723.7"/>
<circle cx="72.0" cy="695.4" r="3.5" fill="#ea580c" stroke="#fff" stroke-width="1.5"/>
<circle cx="101.0" cy="695.6" r="3.5" fill="#ea580c" stroke="#fff" stroke-width="1.5"/>
<circle cx="129.9" cy="696.8" r="3.5" fill="#ea580c" stroke="#fff" stroke-width="1.5"/>
<circle cx="158.9" cy="594.9" r="3.5" fill="#ea580c" stroke="#fff" stroke-width="1.5"/>
<circle cx="187.9" cy="592.3" r="3.5" fill="#ea580c" stroke="#fff" stroke-width="1.5"/>
<circle cx="216.8" cy="592.1" r="3.5" fill="#ea580c" stroke="#fff" stroke-width="1.5"/>
<circle cx="245.8" cy="593.6" r="3.5" fill="#ea580c" stroke="#fff" stroke-width="1.5"/>
<circle cx="274.8" cy="503.6" r="3.5" fill="#ea580c" stroke="#fff" stroke-width="1.5"/>
<circle cx="303.7" cy="519.8" r="3.5" fill="#ea580c" stroke="#fff" stroke-width="1.5"/>
<circle cx="332.7" cy="724.5" r="3.5" fill="#ea580c" stroke="#fff" stroke-width="1.5"/>
<circle cx="361.7" cy="723.0" r="3.5" fill="#ea580c" stroke="#fff" stroke-width="1.5"/>
<circle cx="390.6" cy="723.1" r="3.5" fill="#ea580c" stroke="#fff" stroke-width="1.5"/>
<circle cx="419.6" cy="722.7" r="3.5" fill="#ea580c" stroke="#fff" stroke-width="1.5"/>
<circle cx="448.6" cy="721.9" r="3.5" fill="#ea580c" stroke="#fff" stroke-width="1.5"/>
<circle cx="477.5" cy="722.1" r="3.5" fill="#ea580c" stroke="#fff" stroke-width="1.5"/>
<circle cx="506.5" cy="721.5" r="3.5" fill="#ea580c" stroke="#fff" stroke-width="1.5"/>
<circle cx="535.5" cy="721.5" r="3.5" fill="#ea580c" stroke="#fff" stroke-width="1.5"/>
<circle cx="564.5" cy="721.6" r="3.5" fill="#ea580c" stroke="#fff" stroke-width="1.5"/>
<circle cx="593.4" cy="721.9" r="3.5" fill="#ea580c" stroke="#fff" stroke-width="1.5"/>
<circle cx="622.4" cy="722.0" r="3.5" fill="#ea580c" stroke="#fff" stroke-width="1.5"/>
<circle cx="651.4" cy="722.2" r="3.5" fill="#ea580c" stroke="#fff" stroke-width="1.5"/>
<circle cx="680.3" cy="721.9" r="3.5" fill="#ea580c" stroke="#fff" stroke-width="1.5"/>
<circle cx="709.3" cy="722.4" r="3.5" fill="#ea580c" stroke="#fff" stroke-width="1.5"/>
<circle cx="738.3" cy="722.2" r="3.5" fill="#ea580c" stroke="#fff" stroke-width="1.5"/>
<circle cx="767.2" cy="722.3" r="3.5" fill="#ea580c" stroke="#fff" stroke-width="1.5"/>
<circle cx="796.2" cy="722.2" r="3.5" fill="#ea580c" stroke="#fff" stroke-width="1.5"/>
<circle cx="825.2" cy="722.5" r="3.5" fill="#ea580c" stroke="#fff" stroke-width="1.5"/>
<circle cx="854.1" cy="721.2" r="3.5" fill="#ea580c" stroke="#fff" stroke-width="1.5"/>
<circle cx="883.1" cy="724.6" r="3.5" fill="#ea580c" stroke="#fff" stroke-width="1.5"/>
<circle cx="912.1" cy="725.1" r="3.5" fill="#ea580c" stroke="#fff" stroke-width="1.5"/>
<circle cx="941.0" cy="723.0" r="3.5" fill="#ea580c" stroke="#fff" stroke-width="1.5"/>
<circle cx="970.0" cy="723.7" r="3.5" fill="#ea580c" stroke="#fff" stroke-width="1.5"/>
<polyline fill="none" stroke="#dc2626" stroke-width="2" stroke-linejoin="round" points="72.0,694.1 101.0,697.2 129.9,696.0 158.9,578.7 187.9,573.1 216.8,579.6 245.8,577.7 274.8,483.1 303.7,488.9 332.7,717.6 361.7,720.0 390.6,719.7 419.6,720.1 448.6,718.0 477.5,719.2 506.5,717.9 535.5,718.3 564.5,719.2 593.4,719.3 622.4,719.3 651.4,719.3 680.3,719.0 709.3,719.3 738.3,719.3 767.2,719.1 796.2,719.5 825.2,719.2 854.1,718.3 883.1,722.2 912.1,722.5 941.0,720.7 970.0,721.2"/>
<circle cx="72.0" cy="694.1" r="3.5" fill="#dc2626" stroke="#fff" stroke-width="1.5"/>
<circle cx="101.0" cy="697.2" r="3.5" fill="#dc2626" stroke="#fff" stroke-width="1.5"/>
<circle cx="129.9" cy="696.0" r="3.5" fill="#dc2626" stroke="#fff" stroke-width="1.5"/>
<circle cx="158.9" cy="578.7" r="3.5" fill="#dc2626" stroke="#fff" stroke-width="1.5"/>
<circle cx="187.9" cy="573.1" r="3.5" fill="#dc2626" stroke="#fff" stroke-width="1.5"/>
<circle cx="216.8" cy="579.6" r="3.5" fill="#dc2626" stroke="#fff" stroke-width="1.5"/>
<circle cx="245.8" cy="577.7" r="3.5" fill="#dc2626" stroke="#fff" stroke-width="1.5"/>
<circle cx="274.8" cy="483.1" r="3.5" fill="#dc2626" stroke="#fff" stroke-width="1.5"/>
<circle cx="303.7" cy="488.9" r="3.5" fill="#dc2626" stroke="#fff" stroke-width="1.5"/>
<circle cx="332.7" cy="717.6" r="3.5" fill="#dc2626" stroke="#fff" stroke-width="1.5"/>
<circle cx="361.7" cy="720.0" r="3.5" fill="#dc2626" stroke="#fff" stroke-width="1.5"/>
<circle cx="390.6" cy="719.7" r="3.5" fill="#dc2626" stroke="#fff" stroke-width="1.5"/>
<circle cx="419.6" cy="720.1" r="3.5" fill="#dc2626" stroke="#fff" stroke-width="1.5"/>
<circle cx="448.6" cy="718.0" r="3.5" fill="#dc2626" stroke="#fff" stroke-width="1.5"/>
<circle cx="477.5" cy="719.2" r="3.5" fill="#dc2626" stroke="#fff" stroke-width="1.5"/>
<circle cx="506.5" cy="717.9" r="3.5" fill="#dc2626" stroke="#fff" stroke-width="1.5"/>
<circle cx="535.5" cy="718.3" r="3.5" fill="#dc2626" stroke="#fff" stroke-width="1.5"/>
<circle cx="564.5" cy="719.2" r="3.5" fill="#dc2626" stroke="#fff" stroke-width="1.5"/>
<circle cx="593.4" cy="719.3" r="3.5" fill="#dc2626" stroke="#fff" stroke-width="1.5"/>
<circle cx="622.4" cy="719.3" r="3.5" fill="#dc2626" stroke="#fff" stroke-width="1.5"/>
<circle cx="651.4" cy="719.3" r="3.5" fill="#dc2626" stroke="#fff" stroke-width="1.5"/>
<circle cx="680.3" cy="719.0" r="3.5" fill="#dc2626" stroke="#fff" stroke-width="1.5"/>
<circle cx="709.3" cy="719.3" r="3.5" fill="#dc2626" stroke="#fff" stroke-width="1.5"/>
<circle cx="738.3" cy="719.3" r="3.5" fill="#dc2626" stroke="#fff" stroke-width="1.5"/>
<circle cx="767.2" cy="719.1" r="3.5" fill="#dc2626" stroke="#fff" stroke-width="1.5"/>
<circle cx="796.2" cy="719.5" r="3.5" fill="#dc2626" stroke="#fff" stroke-width="1.5"/>
<circle cx="825.2" cy="719.2" r="3.5" fill="#dc2626" stroke="#fff" stroke-width="1.5"/>
<circle cx="854.1" cy="718.3" r="3.5" fill="#dc2626" stroke="#fff" stroke-width="1.5"/>
<circle cx="883.1" cy="722.2" r="3.5" fill="#dc2626" stroke="#fff" stroke-width="1.5"/>
<circle cx="912.1" cy="722.5" r="3.5" fill="#dc2626" stroke="#fff" stroke-width="1.5"/>
<circle cx="941.0" cy="720.7" r="3.5" fill="#dc2626" stroke="#fff" stroke-width="1.5"/>
<circle cx="970.0" cy="721.2" r="3.5" fill="#dc2626" stroke="#fff" stroke-width="1.5"/>
<circle cx="986" cy="454" r="5" fill="#2563eb"/>
<text x="998" y="458" font-size="12" fill="#334155">small</text>
<circle cx="986" cy="476" r="5" fill="#16a34a"/>
<text x="998" y="480" font-size="12" fill="#334155">medium</text>
<circle cx="986" cy="498" r="5" fill="#ea580c"/>
<text x="998" y="502" font-size="12" fill="#334155">large</text>
<circle cx="986" cy="520" r="5" fill="#dc2626"/>
<text x="998" y="524" font-size="12" fill="#334155">stress</text>
</svg>
