<?xml version="1.0" encoding="UTF-8"?>
<svg xmlns="http://www.w3.org/2000/svg" width="1080" height="810" viewBox="0 0 1080 810" font-family="system-ui,sans-serif">
<rect width="1080" height="810" fill="#fff" rx="6"/>
<text x="72" y="28" font-size="15" font-weight="600" fill="#1e293b">hdi benchmark - median parse time</text>
<line x1="72" y1="344.0" x2="970" y2="344.0" stroke="#e2e8f0" stroke-width="1"/>
<text x="64" y="348.0" text-anchor="end" font-size="11" fill="#64748b">0</text>
<line x1="72" y1="332.0" x2="970" y2="332.0" stroke="#e2e8f0" stroke-width="1"/>
<text x="64" y="336.0" text-anchor="end" font-size="11" fill="#64748b">50</text>
<line x1="72" y1="320.0" x2="970" y2="320.0" stroke="#e2e8f0" stroke-width="1"/>
<text x="64" y="324.0" text-anchor="end" font-size="11" fill="#64748b">100</text>
<line x1="72" y1="308.0" x2="970" y2="308.0" stroke="#e2e8f0" stroke-width="1"/>
<text x="64" y="312.0" text-anchor="end" font-size="11" fill="#64748b">150</text>
<line x1="72" y1="296.0" x2="970" y2="296.0" stroke="#e2e8f0" stroke-width="1"/>
<text x="64" y="300.0" text-anchor="end" font-size="11" fill="#64748b">200</text>
<line x1="72" y1="284.0" x2="970" y2="284.0" stroke="#e2e8f0" stroke-width="1"/>
<text x="64" y="288.0" text-anchor="end" font-size="11" fill="#64748b">250</text>
<line x1="72" y1="272.0" x2="970" y2="272.0" stroke="#e2e8f0" stroke-width="1"/>
<text x="64" y="276.0" text-anchor="end" font-size="11" fill="#64748b">300</text>
<line x1="72" y1="260.0" x2="970" y2="260.0" stroke="#e2e8f0" stroke-width="1"/>
<text x="64" y="264.0" text-anchor="end" font-size="11" fill="#64748b">350</text>
<line x1="72" y1="248.0" x2="970" y2="248.0" stroke="#e2e8f0" stroke-width="1"/>
<text x="64" y="252.0" text-anchor="end" font-size="11" fill="#64748b">400</text>
<line x1="72" y1="236.0" x2="970" y2="236.0" stroke="#e2e8f0" stroke-width="1"/>
<text x="64" y="240.0" text-anchor="end" font-size="11" fill="#64748b">450</text>
<line x1="72" y1="224.0" x2="970" y2="224.0" stroke="#e2e8f0" stroke-width="1"/>
<text x="64" y="228.0" text-anchor="end" font-size="11" fill="#64748b">500</text>
<line x1="72" y1="212.0" x2="970" y2="212.0" stroke="#e2e8f0" stroke-width="1"/>
<text x="64" y="216.0" text-anchor="end" font-size="11" fill="#64748b">550</text>
<line x1="72" y1="200.0" x2="970" y2="200.0" stroke="#e2e8f0" stroke-width="1"/>
<text x="64" y="204.0" text-anchor="end" font-size="11" fill="#64748b">600</text>
<line x1="72" y1="188.0" x2="970" y2="188.0" stroke="#e2e8f0" stroke-width="1"/>
<text x="64" y="192.0" text-anchor="end" font-size="11" fill="#64748b">650</text>
<line x1="72" y1="176.0" x2="970" y2="176.0" stroke="#e2e8f0" stroke-width="1"/>
<text x="64" y="180.0" text-anchor="end" font-size="11" fill="#64748b">700</text>
<line x1="72" y1="164.0" x2="970" y2="164.0" stroke="#e2e8f0" stroke-width="1"/>
<text x="64" y="168.0" text-anchor="end" font-size="11" fill="#64748b">750</text>
<line x1="72" y1="152.0" x2="970" y2="152.0" stroke="#e2e8f0" stroke-width="1"/>
<text x="64" y="156.0" text-anchor="end" font-size="11" fill="#64748b">800</text>
<line x1="72" y1="140.0" x2="970" y2="140.0" stroke="#e2e8f0" stroke-width="1"/>
<text x="64" y="144.0" text-anchor="end" font-size="11" fill="#64748b">850</text>
<line x1="72" y1="128.0" x2="970" y2="128.0" stroke="#e2e8f0" stroke-width="1"/>
<text x="64" y="132.0" text-anchor="end" font-size="11" fill="#64748b">900</text>
<line x1="72" y1="116.0" x2="970" y2="116.0" stroke="#e2e8f0" stroke-width="1"/>
<text x="64" y="120.0" text-anchor="end" font-size="11" fill="#64748b">950</text>
<line x1="72" y1="104.0" x2="970" y2="104.0" stroke="#e2e8f0" stroke-width="1"/>
<text x="64" y="108.0" text-anchor="end" font-size="11" fill="#64748b">1000</text>
<line x1="72" y1="92.0" x2="970" y2="92.0" stroke="#e2e8f0" stroke-width="1"/>
<text x="64" y="96.0" text-anchor="end" font-size="11" fill="#64748b">1050</text>
<line x1="72" y1="80.0" x2="970" y2="80.0" stroke="#e2e8f0" stroke-width="1"/>
<text x="64" y="84.0" text-anchor="end" font-size="11" fill="#64748b">1100</text>
<line x1="72" y1="68.0" x2="970" y2="68.0" stroke="#e2e8f0" stroke-width="1"/>
<text x="64" y="72.0" text-anchor="end" font-size="11" fill="#64748b">1150</text>
<line x1="72" y1="56.0" x2="970" y2="56.0" stroke="#e2e8f0" stroke-width="1"/>
<text x="64" y="60.0" text-anchor="end" font-size="11" fill="#64748b">1200</text>
<line x1="72" y1="44.0" x2="970" y2="44.0" stroke="#e2e8f0" stroke-width="1"/>
<text x="64" y="48.0" text-anchor="end" font-size="11" fill="#64748b">1250</text>
<text x="14" y="194" font-size="11" fill="#64748b" transform="rotate(-90,14,194)">ms</text>
<text x="72.0" y="364" text-anchor="middle" font-size="11" fill="#64748b">0.1.0</text>
<text x="100.1" y="364" text-anchor="middle" font-size="11" fill="#64748b">0.2.0</text>
<text x="128.1" y="364" text-anchor="middle" font-size="11" fill="#64748b">0.3.0</text>
<text x="156.2" y="364" text-anchor="middle" font-size="11" fill="#64748b">0.4.0</text>
<text x="184.2" y="364" text-anchor="middle" font-size="11" fill="#64748b">0.5.0</text>
<text x="212.3" y="364" text-anchor="middle" font-size="11" fill="#64748b">0.6.0</text>
<text x="240.4" y="364" text-anchor="middle" font-size="11" fill="#64748b">0.7.0</text>
<text x="268.4" y="364" text-anchor="middle" font-size="11" fill="#64748b">0.8.0</text>
<text x="296.5" y="364" text-anchor="middle" font-size="11" fill="#64748b">0.9.0</text>
<text x="324.6" y="364" text-anchor="middle" font-size="11" fill="#64748b">0.10.0</text>
<text x="352.6" y="364" text-anchor="middle" font-size="11" fill="#64748b">0.11.0</text>
<text x="380.7" y="364" text-anchor="middle" font-size="11" fill="#64748b">0.12.0</text>
<text x="408.8" y="364" text-anchor="middle" font-size="11" fill="#64748b">0.13.0</text>
<text x="436.8" y="364" text-anchor="middle" font-size="11" fill="#64748b">0.14.0</text>
<text x="464.9" y="364" text-anchor="middle" font-size="11" fill="#64748b">0.15.0</text>
<text x="492.9" y="364" text-anchor="middle" font-size="11" fill="#64748b">0.16.0</text>
<text x="521.0" y="364" text-anchor="middle" font-size="11" fill="#64748b">0.17.0</text>
<text x="549.1" y="364" text-anchor="middle" font-size="11" fill="#64748b">0.17.1</text>
<text x="577.1" y="364" text-anchor="middle" font-size="11" fill="#64748b">0.17.2</text>
<text x="605.2" y="364" text-anchor="middle" font-size="11" fill="#64748b">0.18.0</text>
<text x="633.2" y="364" text-anchor="middle" font-size="11" fill="#64748b">0.18.1</text>
<text x="661.3" y="364" text-anchor="middle" font-size="11" fill="#64748b">0.18.2</text>
<text x="689.4" y="364" text-anchor="middle" font-size="11" fill="#64748b">0.18.3</text>
<text x="717.4" y="364" text-anchor="middle" font-size="11" fill="#64748b">0.18.4</text>
<text x="745.5" y="364" text-anchor="middle" font-size="11" fill="#64748b">0.18.5</text>
<text x="773.6" y="364" text-anchor="middle" font-size="11" fill="#64748b">0.19.0</text>
<text x="801.6" y="364" text-anchor="middle" font-size="11" fill="#64748b">0.19.1</text>
<text x="829.7" y="364" text-anchor="middle" font-size="11" fill="#64748b">0.20.0</text>
<text x="857.8" y="364" text-anchor="middle" font-size="11" fill="#64748b">0.21.0</text>
<text x="885.8" y="364" text-anchor="middle" font-size="11" fill="#64748b">0.21.1</text>
<text x="913.9" y="364" text-anchor="middle" font-size="11" fill="#64748b">0.22.0</text>
<text x="941.9" y="364" text-anchor="middle" font-size="11" fill="#64748b">0.23.0</text>
<text x="970.0" y="364" text-anchor="middle" font-size="11" fill="#64748b">0.23.1</text>
<text x="521" y="384" text-anchor="middle" font-size="11" fill="#64748b">release</text>
<polyline fill="none" stroke="#2563eb" stroke-width="2" stroke-linejoin="round" points="72.0,335.3 100.1,335.5 128.1,335.9 156.2,324.7 184.2,324.5 212.3,324.9 240.4,320.3 268.4,319.9 296.5,319.3 324.6,338.6 352.6,338.9 380.7,338.4 408.8,339.2 436.8,339.1 464.9,338.5 492.9,338.8 521.0,338.9 549.1,338.9 577.1,339.1 605.2,338.9 633.2,339.0 661.3,338.8 689.4,339.0 717.4,338.9 745.5,338.6 773.6,338.5 801.6,338.9 829.7,338.2 857.8,338.4 885.8,338.6 913.9,338.8 941.9,338.6 970.0,338.7"/>
<circle cx="72.0" cy="335.3" r="3.5" fill="#2563eb" stroke="#fff" stroke-width="1.5"/>
<circle cx="100.1" cy="335.5" r="3.5" fill="#2563eb" stroke="#fff" stroke-width="1.5"/>
<circle cx="128.1" cy="335.9" r="3.5" fill="#2563eb" stroke="#fff" stroke-width="1.5"/>
<circle cx="156.2" cy="324.7" r="3.5" fill="#2563eb" stroke="#fff" stroke-width="1.5"/>
<circle cx="184.2" cy="324.5" r="3.5" fill="#2563eb" stroke="#fff" stroke-width="1.5"/>
<circle cx="212.3" cy="324.9" r="3.5" fill="#2563eb" stroke="#fff" stroke-width="1.5"/>
<circle cx="240.4" cy="320.3" r="3.5" fill="#2563eb" stroke="#fff" stroke-width="1.5"/>
<circle cx="268.4" cy="319.9" r="3.5" fill="#2563eb" stroke="#fff" stroke-width="1.5"/>
<circle cx="296.5" cy="319.3" r="3.5" fill="#2563eb" stroke="#fff" stroke-width="1.5"/>
<circle cx="324.6" cy="338.6" r="3.5" fill="#2563eb" stroke="#fff" stroke-width="1.5"/>
<circle cx="352.6" cy="338.9" r="3.5" fill="#2563eb" stroke="#fff" stroke-width="1.5"/>
<circle cx="380.7" cy="338.4" r="3.5" fill="#2563eb" stroke="#fff" stroke-width="1.5"/>
<circle cx="408.8" cy="339.2" r="3.5" fill="#2563eb" stroke="#fff" stroke-width="1.5"/>
<circle cx="436.8" cy="339.1" r="3.5" fill="#2563eb" stroke="#fff" stroke-width="1.5"/>
<circle cx="464.9" cy="338.5" r="3.5" fill="#2563eb" stroke="#fff" stroke-width="1.5"/>
<circle cx="492.9" cy="338.8" r="3.5" fill="#2563eb" stroke="#fff" stroke-width="1.5"/>
<circle cx="521.0" cy="338.9" r="3.5" fill="#2563eb" stroke="#fff" stroke-width="1.5"/>
<circle cx="549.1" cy="338.9" r="3.5" fill="#2563eb" stroke="#fff" stroke-width="1.5"/>
<circle cx="577.1" cy="339.1" r="3.5" fill="#2563eb" stroke="#fff" stroke-width="1.5"/>
<circle cx="605.2" cy="338.9" r="3.5" fill="#2563eb" stroke="#fff" stroke-width="1.5"/>
<circle cx="633.2" cy="339.0" r="3.5" fill="#2563eb" stroke="#fff" stroke-width="1.5"/>
<circle cx="661.3" cy="338.8" r="3.5" fill="#2563eb" stroke="#fff" stroke-width="1.5"/>
<circle cx="689.4" cy="339.0" r="3.5" fill="#2563eb" stroke="#fff" stroke-width="1.5"/>
<circle cx="717.4" cy="338.9" r="3.5" fill="#2563eb" stroke="#fff" stroke-width="1.5"/>
<circle cx="745.5" cy="338.6" r="3.5" fill="#2563eb" stroke="#fff" stroke-width="1.5"/>
<circle cx="773.6" cy="338.5" r="3.5" fill="#2563eb" stroke="#fff" stroke-width="1.5"/>
<circle cx="801.6" cy="338.9" r="3.5" fill="#2563eb" stroke="#fff" stroke-width="1.5"/>
<circle cx="829.7" cy="338.2" r="3.5" fill="#2563eb" stroke="#fff" stroke-width="1.5"/>
<circle cx="857.8" cy="338.4" r="3.5" fill="#2563eb" stroke="#fff" stroke-width="1.5"/>
<circle cx="885.8" cy="338.6" r="3.5" fill="#2563eb" stroke="#fff" stroke-width="1.5"/>
<circle cx="913.9" cy="338.8" r="3.5" fill="#2563eb" stroke="#fff" stroke-width="1.5"/>
<circle cx="941.9" cy="338.6" r="3.5" fill="#2563eb" stroke="#fff" stroke-width="1.5"/>
<circle cx="970.0" cy="338.7" r="3.5" fill="#2563eb" stroke="#fff" stroke-width="1.5"/>
<polyline fill="none" stroke="#16a34a" stroke-width="2" stroke-linejoin="round" points="72.0,321.3 100.1,321.2 128.1,319.9 156.2,259.1 184.2,261.8 212.3,260.8 240.4,232.0 268.4,230.0 296.5,223.4 324.6,331.5 352.6,332.8 380.7,331.5 408.8,332.7 436.8,332.8 464.9,331.7 492.9,331.6 521.0,332.3 549.1,332.3 577.1,332.5 605.2,331.6 633.2,332.4 661.3,332.5 689.4,332.5 717.4,332.0 745.5,332.3 773.6,332.0 801.6,332.4 829.7,330.6 857.8,331.3 885.8,332.4 913.9,332.1 941.9,331.9 970.0,331.3"/>
<circle cx="72.0" cy="321.3" r="3.5" fill="#16a34a" stroke="#fff" stroke-width="1.5"/>
<circle cx="100.1" cy="321.2" r="3.5" fill="#16a34a" stroke="#fff" stroke-width="1.5"/>
<circle cx="128.1" cy="319.9" r="3.5" fill="#16a34a" stroke="#fff" stroke-width="1.5"/>
<circle cx="156.2" cy="259.1" r="3.5" fill="#16a34a" stroke="#fff" stroke-width="1.5"/>
<circle cx="184.2" cy="261.8" r="3.5" fill="#16a34a" stroke="#fff" stroke-width="1.5"/>
<circle cx="212.3" cy="260.8" r="3.5" fill="#16a34a" stroke="#fff" stroke-width="1.5"/>
<circle cx="240.4" cy="232.0" r="3.5" fill="#16a34a" stroke="#fff" stroke-width="1.5"/>
<circle cx="268.4" cy="230.0" r="3.5" fill="#16a34a" stroke="#fff" stroke-width="1.5"/>
<circle cx="296.5" cy="223.4" r="3.5" fill="#16a34a" stroke="#fff" stroke-width="1.5"/>
<circle cx="324.6" cy="331.5" r="3.5" fill="#16a34a" stroke="#fff" stroke-width="1.5"/>
<circle cx="352.6" cy="332.8" r="3.5" fill="#16a34a" stroke="#fff" stroke-width="1.5"/>
<circle cx="380.7" cy="331.5" r="3.5" fill="#16a34a" stroke="#fff" stroke-width="1.5"/>
<circle cx="408.8" cy="332.7" r="3.5" fill="#16a34a" stroke="#fff" stroke-width="1.5"/>
<circle cx="436.8" cy="332.8" r="3.5" fill="#16a34a" stroke="#fff" stroke-width="1.5"/>
<circle cx="464.9" cy="331.7" r="3.5" fill="#16a34a" stroke="#fff" stroke-width="1.5"/>
<circle cx="492.9" cy="331.6" r="3.5" fill="#16a34a" stroke="#fff" stroke-width="1.5"/>
<circle cx="521.0" cy="332.3" r="3.5" fill="#16a34a" stroke="#fff" stroke-width="1.5"/>
<circle cx="549.1" cy="332.3" r="3.5" fill="#16a34a" stroke="#fff" stroke-width="1.5"/>
<circle cx="577.1" cy="332.5" r="3.5" fill="#16a34a" stroke="#fff" stroke-width="1.5"/>
<circle cx="605.2" cy="331.6" r="3.5" fill="#16a34a" stroke="#fff" stroke-width="1.5"/>
<circle cx="633.2" cy="332.4" r="3.5" fill="#16a34a" stroke="#fff" stroke-width="1.5"/>
<circle cx="661.3" cy="332.5" r="3.5" fill="#16a34a" stroke="#fff" stroke-width="1.5"/>
<circle cx="689.4" cy="332.5" r="3.5" fill="#16a34a" stroke="#fff" stroke-width="1.5"/>
<circle cx="717.4" cy="332.0" r="3.5" fill="#16a34a" stroke="#fff" stroke-width="1.5"/>
<circle cx="745.5" cy="332.3" r="3.5" fill="#16a34a" stroke="#fff" stroke-width="1.5"/>
<circle cx="773.6" cy="332.0" r="3.5" fill="#16a34a" stroke="#fff" stroke-width="1.5"/>
<circle cx="801.6" cy="332.4" r="3.5" fill="#16a34a" stroke="#fff" stroke-width="1.5"/>
<circle cx="829.7" cy="330.6" r="3.5" fill="#16a34a" stroke="#fff" stroke-width="1.5"/>
<circle cx="857.8" cy="331.3" r="3.5" fill="#16a34a" stroke="#fff" stroke-width="1.5"/>
<circle cx="885.8" cy="332.4" r="3.5" fill="#16a34a" stroke="#fff" stroke-width="1.5"/>
<circle cx="913.9" cy="332.1" r="3.5" fill="#16a34a" stroke="#fff" stroke-width="1.5"/>
<circle cx="941.9" cy="331.9" r="3.5" fill="#16a34a" stroke="#fff" stroke-width="1.5"/>
<circle cx="970.0" cy="331.3" r="3.5" fill="#16a34a" stroke="#fff" stroke-width="1.5"/>
<polyline fill="none" stroke="#ea580c" stroke-width="2" stroke-linejoin="round" points="72.0,294.3 100.1,295.5 128.1,296.3 156.2,186.8 184.2,189.2 212.3,187.7 240.4,124.3 268.4,106.5 296.5,110.3 324.6,321.2 352.6,320.4 380.7,319.2 408.8,320.2 436.8,320.1 464.9,319.3 492.9,318.2 521.0,319.4 549.1,319.5 577.1,319.6 605.2,318.9 633.2,319.4 661.3,319.3 689.4,319.4 717.4,319.6 745.5,319.0 773.6,319.4 801.6,319.1 829.7,316.6 857.8,318.9 885.8,318.5 913.9,319.3 941.9,318.4 970.0,317.8"/>
<circle cx="72.0" cy="294.3" r="3.5" fill="#ea580c" stroke="#fff" stroke-width="1.5"/>
<circle cx="100.1" cy="295.5" r="3.5" fill="#ea580c" stroke="#fff" stroke-width="1.5"/>
<circle cx="128.1" cy="296.3" r="3.5" fill="#ea580c" stroke="#fff" stroke-width="1.5"/>
<circle cx="156.2" cy="186.8" r="3.5" fill="#ea580c" stroke="#fff" stroke-width="1.5"/>
<circle cx="184.2" cy="189.2" r="3.5" fill="#ea580c" stroke="#fff" stroke-width="1.5"/>
<circle cx="212.3" cy="187.7" r="3.5" fill="#ea580c" stroke="#fff" stroke-width="1.5"/>
<circle cx="240.4" cy="124.3" r="3.5" fill="#ea580c" stroke="#fff" stroke-width="1.5"/>
<circle cx="268.4" cy="106.5" r="3.5" fill="#ea580c" stroke="#fff" stroke-width="1.5"/>
<circle cx="296.5" cy="110.3" r="3.5" fill="#ea580c" stroke="#fff" stroke-width="1.5"/>
<circle cx="324.6" cy="321.2" r="3.5" fill="#ea580c" stroke="#fff" stroke-width="1.5"/>
<circle cx="352.6" cy="320.4" r="3.5" fill="#ea580c" stroke="#fff" stroke-width="1.5"/>
<circle cx="380.7" cy="319.2" r="3.5" fill="#ea580c" stroke="#fff" stroke-width="1.5"/>
<circle cx="408.8" cy="320.2" r="3.5" fill="#ea580c" stroke="#fff" stroke-width="1.5"/>
<circle cx="436.8" cy="320.1" r="3.5" fill="#ea580c" stroke="#fff" stroke-width="1.5"/>
<circle cx="464.9" cy="319.3" r="3.5" fill="#ea580c" stroke="#fff" stroke-width="1.5"/>
<circle cx="492.9" cy="318.2" r="3.5" fill="#ea580c" stroke="#fff" stroke-width="1.5"/>
<circle cx="521.0" cy="319.4" r="3.5" fill="#ea580c" stroke="#fff" stroke-width="1.5"/>
<circle cx="549.1" cy="319.5" r="3.5" fill="#ea580c" stroke="#fff" stroke-width="1.5"/>
<circle cx="577.1" cy="319.6" r="3.5" fill="#ea580c" stroke="#fff" stroke-width="1.5"/>
<circle cx="605.2" cy="318.9" r="3.5" fill="#ea580c" stroke="#fff" stroke-width="1.5"/>
<circle cx="633.2" cy="319.4" r="3.5" fill="#ea580c" stroke="#fff" stroke-width="1.5"/>
<circle cx="661.3" cy="319.3" r="3.5" fill="#ea580c" stroke="#fff" stroke-width="1.5"/>
<circle cx="689.4" cy="319.4" r="3.5" fill="#ea580c" stroke="#fff" stroke-width="1.5"/>
<circle cx="717.4" cy="319.6" r="3.5" fill="#ea580c" stroke="#fff" stroke-width="1.5"/>
<circle cx="745.5" cy="319.0" r="3.5" fill="#ea580c" stroke="#fff" stroke-width="1.5"/>
<circle cx="773.6" cy="319.4" r="3.5" fill="#ea580c" stroke="#fff" stroke-width="1.5"/>
<circle cx="801.6" cy="319.1" r="3.5" fill="#ea580c" stroke="#fff" stroke-width="1.5"/>
<circle cx="829.7" cy="316.6" r="3.5" fill="#ea580c" stroke="#fff" stroke-width="1.5"/>
<circle cx="857.8" cy="318.9" r="3.5" fill="#ea580c" stroke="#fff" stroke-width="1.5"/>
<circle cx="885.8" cy="318.5" r="3.5" fill="#ea580c" stroke="#fff" stroke-width="1.5"/>
<circle cx="913.9" cy="319.3" r="3.5" fill="#ea580c" stroke="#fff" stroke-width="1.5"/>
<circle cx="941.9" cy="318.4" r="3.5" fill="#ea580c" stroke="#fff" stroke-width="1.5"/>
<circle cx="970.0" cy="317.8" r="3.5" fill="#ea580c" stroke="#fff" stroke-width="1.5"/>
<polyline fill="none" stroke="#dc2626" stroke-width="2" stroke-linejoin="round" points="72.0,291.4 100.1,291.4 128.1,292.3 156.2,174.2 184.2,171.3 212.3,169.3 240.4,83.8 268.4,88.6 296.5,79.9 324.6,314.8 352.6,317.2 380.7,315.5 408.8,317.6 436.8,317.5 464.9,316.6 492.9,315.4 521.0,316.7 549.1,316.8 577.1,316.5 605.2,316.5 633.2,316.7 661.3,316.2 689.4,316.8 717.4,316.8 745.5,316.4 773.6,316.6 801.6,316.6 829.7,312.8 857.8,316.4 885.8,317.0 913.9,316.3 941.9,316.0 970.0,315.4"/>
<circle cx="72.0" cy="291.4" r="3.5" fill="#dc2626" stroke="#fff" stroke-width="1.5"/>
<circle cx="100.1" cy="291.4" r="3.5" fill="#dc2626" stroke="#fff" stroke-width="1.5"/>
<circle cx="128.1" cy="292.3" r="3.5" fill="#dc2626" stroke="#fff" stroke-width="1.5"/>
<circle cx="156.2" cy="174.2" r="3.5" fill="#dc2626" stroke="#fff" stroke-width="1.5"/>
<circle cx="184.2" cy="171.3" r="3.5" fill="#dc2626" stroke="#fff" stroke-width="1.5"/>
<circle cx="212.3" cy="169.3" r="3.5" fill="#dc2626" stroke="#fff" stroke-width="1.5"/>
<circle cx="240.4" cy="83.8" r="3.5" fill="#dc2626" stroke="#fff" stroke-width="1.5"/>
<circle cx="268.4" cy="88.6" r="3.5" fill="#dc2626" stroke="#fff" stroke-width="1.5"/>
<circle cx="296.5" cy="79.9" r="3.5" fill="#dc2626" stroke="#fff" stroke-width="1.5"/>
<circle cx="324.6" cy="314.8" r="3.5" fill="#dc2626" stroke="#fff" stroke-width="1.5"/>
<circle cx="352.6" cy="317.2" r="3.5" fill="#dc2626" stroke="#fff" stroke-width="1.5"/>
<circle cx="380.7" cy="315.5" r="3.5" fill="#dc2626" stroke="#fff" stroke-width="1.5"/>
<circle cx="408.8" cy="317.6" r="3.5" fill="#dc2626" stroke="#fff" stroke-width="1.5"/>
<circle cx="436.8" cy="317.5" r="3.5" fill="#dc2626" stroke="#fff" stroke-width="1.5"/>
<circle cx="464.9" cy="316.6" r="3.5" fill="#dc2626" stroke="#fff" stroke-width="1.5"/>
<circle cx="492.9" cy="315.4" r="3.5" fill="#dc2626" stroke="#fff" stroke-width="1.5"/>
<circle cx="521.0" cy="316.7" r="3.5" fill="#dc2626" stroke="#fff" stroke-width="1.5"/>
<circle cx="549.1" cy="316.8" r="3.5" fill="#dc2626" stroke="#fff" stroke-width="1.5"/>
<circle cx="577.1" cy="316.5" r="3.5" fill="#dc2626" stroke="#fff" stroke-width="1.5"/>
<circle cx="605.2" cy="316.5" r="3.5" fill="#dc2626" stroke="#fff" stroke-width="1.5"/>
<circle cx="633.2" cy="316.7" r="3.5" fill="#dc2626" stroke="#fff" stroke-width="1.5"/>
<circle cx="661.3" cy="316.2" r="3.5" fill="#dc2626" stroke="#fff" stroke-width="1.5"/>
<circle cx="689.4" cy="316.8" r="3.5" fill="#dc2626" stroke="#fff" stroke-width="1.5"/>
<circle cx="717.4" cy="316.8" r="3.5" fill="#dc2626" stroke="#fff" stroke-width="1.5"/>
<circle cx="745.5" cy="316.4" r="3.5" fill="#dc2626" stroke="#fff" stroke-width="1.5"/>
<circle cx="773.6" cy="316.6" r="3.5" fill="#dc2626" stroke="#fff" stroke-width="1.5"/>
<circle cx="801.6" cy="316.6" r="3.5" fill="#dc2626" stroke="#fff" stroke-width="1.5"/>
<circle cx="829.7" cy="312.8" r="3.5" fill="#dc2626" stroke="#fff" stroke-width="1.5"/>
<circle cx="857.8" cy="316.4" r="3.5" fill="#dc2626" stroke="#fff" stroke-width="1.5"/>
<circle cx="885.8" cy="317.0" r="3.5" fill="#dc2626" stroke="#fff" stroke-width="1.5"/>
<circle cx="913.9" cy="316.3" r="3.5" fill="#dc2626" stroke="#fff" stroke-width="1.5"/>
<circle cx="941.9" cy="316.0" r="3.5" fill="#dc2626" stroke="#fff" stroke-width="1.5"/>
<circle cx="970.0" cy="315.4" r="3.5" fill="#dc2626" stroke="#fff" stroke-width="1.5"/>
<circle cx="986" cy="48" r="5" fill="#2563eb"/>
<text x="998" y="52" font-size="12" fill="#334155">small</text>
<circle cx="986" cy="70" r="5" fill="#16a34a"/>
<text x="998" y="74" font-size="12" fill="#334155">medium</text>
<circle cx="986" cy="92" r="5" fill="#ea580c"/>
<text x="998" y="96" font-size="12" fill="#334155">large</text>
<circle cx="986" cy="114" r="5" fill="#dc2626"/>
<text x="998" y="118" font-size="12" fill="#334155">stress</text>
<text x="72" y="434" font-size="15" font-weight="600" fill="#1e293b">hdi benchmark - picker time to first frame</text>
<line x1="72" y1="750.0" x2="970" y2="750.0" stroke="#e2e8f0" stroke-width="1"/>
<text x="64" y="754.0" text-anchor="end" font-size="11" fill="#64748b">0</text>
<line x1="72" y1="738.0" x2="970" y2="738.0" stroke="#e2e8f0" stroke-width="1"/>
<text x="64" y="742.0" text-anchor="end" font-size="11" fill="#64748b">50</text>
<line x1="72" y1="726.0" x2="970" y2="726.0" stroke="#e2e8f0" stroke-width="1"/>
<text x="64" y="730.0" text-anchor="end" font-size="11" fill="#64748b">100</text>
<line x1="72" y1="714.0" x2="970" y2="714.0" stroke="#e2e8f0" stroke-width="1"/>
<text x="64" y="718.0" text-anchor="end" font-size="11" fill="#64748b">150</text>
<line x1="72" y1="702.0" x2="970" y2="702.0" stroke="#e2e8f0" stroke-width="1"/>
<text x="64" y="706.0" text-anchor="end" font-size="11" fill="#64748b">200</text>
<line x1="72" y1="690.0" x2="970" y2="690.0" stroke="#e2e8f0" stroke-width="1"/>
<text x="64" y="694.0" text-anchor="end" font-size="11" fill="#64748b">250</text>
<line x1="72" y1="678.0" x2="970" y2="678.0" stroke="#e2e8f0" stroke-width="1"/>
<text x="64" y="682.0" text-anchor="end" font-size="11" fill="#64748b">300</text>
<line x1="72" y1="666.0" x2="970" y2="666.0" stroke="#e2e8f0" stroke-width="1"/>
<text x="64" y="670.0" text-anchor="end" font-size="11" fill="#64748b">350</text>
<line x1="72" y1="654.0" x2="970" y2="654.0" stroke="#e2e8f0" stroke-width="1"/>
<text x="64" y="658.0" text-anchor="end" font-size="11" fill="#64748b">400</text>
<line x1="72" y1="642.0" x2="970" y2="642.0" stroke="#e2e8f0" stroke-width="1"/>
<text x="64" y="646.0" text-anchor="end" font-size="11" fill="#64748b">450</text>
<line x1="72" y1="630.0" x2="970" y2="630.0" stroke="#e2e8f0" stroke-width="1"/>
<text x="64" y="634.0" text-anchor="end" font-size="11" fill="#64748b">500</text>
<line x1="72" y1="618.0" x2="970" y2="618.0" stroke="#e2e8f0" stroke-width="1"/>
<text x="64" y="622.0" text-anchor="end" font-size="11" fill="#64748b">550</text>
<line x1="72" y1="606.0" x2="970" y2="606.0" stroke="#e2e8f0" stroke-width="1"/>
<text x="64" y="610.0" text-anchor="end" font-size="11" fill="#64748b">600</text>
<line x1="72" y1="594.0" x2="970" y2="594.0" stroke="#e2e8f0" stroke-width="1"/>
<text x="64" y="598.0" text-anchor="end" font-size="11" fill="#64748b">650</text>
<line x1="72" y1="582.0" x2="970" y2="582.0" stroke="#e2e8f0" stroke-width="1"/>
<text x="64" y="586.0" text-anchor="end" font-size="11" fill="#64748b">700</text>
<line x1="72" y1="570.0" x2="970" y2="570.0" stroke="#e2e8f0" stroke-width="1"/>
<text x="64" y="574.0" text-anchor="end" font-size="11" fill="#64748b">750</text>
<line x1="72" y1="558.0" x2="970" y2="558.0" stroke="#e2e8f0" stroke-width="1"/>
<text x="64" y="562.0" text-anchor="end" font-size="11" fill="#64748b">800</text>
<line x1="72" y1="546.0" x2="970" y2="546.0" stroke="#e2e8f0" stroke-width="1"/>
<text x="64" y="550.0" text-anchor="end" font-size="11" fill="#64748b">850</text>
<line x1="72" y1="534.0" x2="970" y2="534.0" stroke="#e2e8f0" stroke-width="1"/>
<text x="64" y="538.0" text-anchor="end" font-size="11" fill="#64748b">900</text>
<line x1="72" y1="522.0" x2="970" y2="522.0" stroke="#e2e8f0" stroke-width="1"/>
<text x="64" y="526.0" text-anchor="end" font-size="11" fill="#64748b">950</text>
<line x1="72" y1="510.0" x2="970" y2="510.0" stroke="#e2e8f0" stroke-width="1"/>
<text x="64" y="514.0" text-anchor="end" font-size="11" fill="#64748b">1000</text>
<line x1="72" y1="498.0" x2="970" y2="498.0" stroke="#e2e8f0" stroke-width="1"/>
<text x="64" y="502.0" text-anchor="end" font-size="11" fill="#64748b">1050</text>
<line x1="72" y1="486.0" x2="970" y2="486.0" stroke="#e2e8f0" stroke-width="1"/>
<text x="64" y="490.0" text-anchor="end" font-size="11" fill="#64748b">1100</text>
<line x1="72" y1="474.0" x2="970" y2="474.0" stroke="#e2e8f0" stroke-width="1"/>
<text x="64" y="478.0" text-anchor="end" font-size="11" fill="#64748b">1150</text>
<line x1="72" y1="462.0" x2="970" y2="462.0" stroke="#e2e8f0" stroke-width="1"/>
<text x="64" y="466.0" text-anchor="end" font-size="11" fill="#64748b">1200</text>
<line x1="72" y1="450.0" x2="970" y2="450.0" stroke="#e2e8f0" stroke-width="1"/>
<text x="64" y="454.0" text-anchor="end" font-size="11" fill="#64748b">1250</text>
<text x="14" y="600" font-size="11" fill="#64748b" transform="rotate(-90,14,600)">ms</text>
<text x="72.0" y="770" text-anchor="middle" font-size="11" fill="#64748b">0.1.0</text>
<text x="100.1" y="770" text-anchor="middle" font-size="11" fill="#64748b">0.2.0</text>
<text x="128.1" y="770" text-anchor="middle" font-size="11" fill="#64748b">0.3.0</text>
<text x="156.2" y="770" text-anchor="middle" font-size="11" fill="#64748b">0.4.0</text>
<text x="184.2" y="770" text-anchor="middle" font-size="11" fill="#64748b">0.5.0</text>
<text x="212.3" y="770" text-anchor="middle" font-size="11" fill="#64748b">0.6.0</text>
<text x="240.4" y="770" text-anchor="middle" font-size="11" fill="#64748b">0.7.0</text>
<text x="268.4" y="770" text-anchor="middle" font-size="11" fill="#64748b">0.8.0</text>
<text x="296.5" y="770" text-anchor="middle" font-size="11" fill="#64748b">0.9.0</text>
<text x="324.6" y="770" text-anchor="middle" font-size="11" fill="#64748b">0.10.0</text>
<text x="352.6" y="770" text-anchor="middle" font-size="11" fill="#64748b">0.11.0</text>
<text x="380.7" y="770" text-anchor="middle" font-size="11" fill="#64748b">0.12.0</text>
<text x="408.8" y="770" text-anchor="middle" font-size="11" fill="#64748b">0.13.0</text>
<text x="436.8" y="770" text-anchor="middle" font-size="11" fill="#64748b">0.14.0</text>
<text x="464.9" y="770" text-anchor="middle" font-size="11" fill="#64748b">0.15.0</text>
<text x="492.9" y="770" text-anchor="middle" font-size="11" fill="#64748b">0.16.0</text>
<text x="521.0" y="770" text-anchor="middle" font-size="11" fill="#64748b">0.17.0</text>
<text x="549.1" y="770" text-anchor="middle" font-size="11" fill="#64748b">0.17.1</text>
<text x="577.1" y="770" text-anchor="middle" font-size="11" fill="#64748b">0.17.2</text>
<text x="605.2" y="770" text-anchor="middle" font-size="11" fill="#64748b">0.18.0</text>
<text x="633.2" y="770" text-anchor="middle" font-size="11" fill="#64748b">0.18.1</text>
<text x="661.3" y="770" text-anchor="middle" font-size="11" fill="#64748b">0.18.2</text>
<text x="689.4" y="770" text-anchor="middle" font-size="11" fill="#64748b">0.18.3</text>
<text x="717.4" y="770" text-anchor="middle" font-size="11" fill="#64748b">0.18.4</text>
<text x="745.5" y="770" text-anchor="middle" font-size="11" fill="#64748b">0.18.5</text>
<text x="773.6" y="770" text-anchor="middle" font-size="11" fill="#64748b">0.19.0</text>
<text x="801.6" y="770" text-anchor="middle" font-size="11" fill="#64748b">0.19.1</text>
<text x="829.7" y="770" text-anchor="middle" font-size="11" fill="#64748b">0.20.0</text>
<text x="857.8" y="770" text-anchor="middle" font-size="11" fill="#64748b">0.21.0</text>
<text x="885.8" y="770" text-anchor="middle" font-size="11" fill="#64748b">0.21.1</text>
<text x="913.9" y="770" text-anchor="middle" font-size="11" fill="#64748b">0.22.0</text>
<text x="941.9" y="770" text-anchor="middle" font-size="11" fill="#64748b">0.23.0</text>
<text x="970.0" y="770" text-anchor="middle" font-size="11" fill="#64748b">0.23.1</text>
<text x="521" y="790" text-anchor="middle" font-size="11" fill="#64748b">release</text>
<polyline fill="none" stroke="#2563eb" stroke-width="2" stroke-linejoin="round" points="72.0,740.7 100.1,740.9 128.1,740.8 156.2,729.2 184.2,730.2 212.3,730.3 240.4,730.2 268.4,725.5 296.5,723.7 324.6,744.0 352.6,744.6 380.7,744.6 408.8,744.2 436.8,744.1 464.9,743.9 492.9,744.3 521.0,743.4 549.1,744.2 577.1,744.3 605.2,744.1 633.2,744.3 661.3,744.4 689.4,744.2 717.4,744.2 745.5,744.3 773.6,744.2 801.6,744.3 829.7,743.4 857.8,744.1 885.8,744.2 913.9,743.0 941.9,743.8 970.0,743.2"/>
<circle cx="72.0" cy="740.7" r="3.5" fill="#2563eb" stroke="#fff" stroke-width="1.5"/>
<circle cx="100.1" cy="740.9" r="3.5" fill="#2563eb" stroke="#fff" stroke-width="1.5"/>
<circle cx="128.1" cy="740.8" r="3.5" fill="#2563eb" stroke="#fff" stroke-width="1.5"/>
<circle cx="156.2" cy="729.2" r="3.5" fill="#2563eb" stroke="#fff" stroke-width="1.5"/>
<circle cx="184.2" cy="730.2" r="3.5" fill="#2563eb" stroke="#fff" stroke-width="1.5"/>
<circle cx="212.3" cy="730.3" r="3.5" fill="#2563eb" stroke="#fff" stroke-width="1.5"/>
<circle cx="240.4" cy="730.2" r="3.5" fill="#2563eb" stroke="#fff" stroke-width="1.5"/>
<circle cx="268.4" cy="725.5" r="3.5" fill="#2563eb" stroke="#fff" stroke-width="1.5"/>
<circle cx="296.5" cy="723.7" r="3.5" fill="#2563eb" stroke="#fff" stroke-width="1.5"/>
<circle cx="324.6" cy="744.0" r="3.5" fill="#2563eb" stroke="#fff" stroke-width="1.5"/>
<circle cx="352.6" cy="744.6" r="3.5" fill="#2563eb" stroke="#fff" stroke-width="1.5"/>
<circle cx="380.7" cy="744.6" r="3.5" fill="#2563eb" stroke="#fff" stroke-width="1.5"/>
<circle cx="408.8" cy="744.2" r="3.5" fill="#2563eb" stroke="#fff" stroke-width="1.5"/>
<circle cx="436.8" cy="744.1" r="3.5" fill="#2563eb" stroke="#fff" stroke-width="1.5"/>
<circle cx="464.9" cy="743.9" r="3.5" fill="#2563eb" stroke="#fff" stroke-width="1.5"/>
<circle cx="492.9" cy="744.3" r="3.5" fill="#2563eb" stroke="#fff" stroke-width="1.5"/>
<circle cx="521.0" cy="743.4" r="3.5" fill="#2563eb" stroke="#fff" stroke-width="1.5"/>
<circle cx="549.1" cy="744.2" r="3.5" fill="#2563eb" stroke="#fff" stroke-width="1.5"/>
<circle cx="577.1" cy="744.3" r="3.5" fill="#2563eb" stroke="#fff" stroke-width="1.5"/>
<circle cx="605.2" cy="744.1" r="3.5" fill="#2563eb" stroke="#fff" stroke-width="1.5"/>
<circle cx="633.2" cy="744.3" r="3.5" fill="#2563eb" stroke="#fff" stroke-width="1.5"/>
<circle cx="661.3" cy="744.4" r="3.5" fill="#2563eb" stroke="#fff" stroke-width="1.5"/>
<circle cx="689.4" cy="744.2" r="3.5" fill="#2563eb" stroke="#fff" stroke-width="1.5"/>
<circle cx="717.4" cy="744.2" r="3.5" fill="#2563eb" stroke="#fff" stroke-width="1.5"/>
<circle cx="745.5" cy="744.3" r="3.5" fill="#2563eb" stroke="#fff" stroke-width="1.5"/>
<circle cx="773.6" cy="744.2" r="3.5" fill="#2563eb" stroke="#fff" stroke-width="1.5"/>
<circle cx="801.6" cy="744.3" r="3.5" fill="#2563eb" stroke="#fff" stroke-width="1.5"/>
<circle cx="829.7" cy="743.4" r="3.5" fill="#2563eb" stroke="#fff" stroke-width="1.5"/>
<circle cx="857.8" cy="744.1" r="3.5" fill="#2563eb" stroke="#fff" stroke-width="1.5"/>
<circle cx="885.8" cy="744.2" r="3.5" fill="#2563eb" stroke="#fff" stroke-width="1.5"/>
<circle cx="913.9" cy="743.0" r="3.5" fill="#2563eb" stroke="#fff" stroke-width="1.5"/>
<circle cx="941.9" cy="743.8" r="3.5" fill="#2563eb" stroke="#fff" stroke-width="1.5"/>
<circle cx="970.0" cy="743.2" r="3.5" fill="#2563eb" stroke="#fff" stroke-width="1.5"/>
<polyline fill="none" stroke="#16a34a" stroke-width="2" stroke-linejoin="round" points="72.0,726.9 100.1,723.6 128.1,726.5 156.2,665.3 184.2,666.7 212.3,665.3 240.4,666.5 268.4,634.1 296.5,633.4 324.6,736.3 352.6,737.0 380.7,737.4 408.8,737.0 436.8,736.8 464.9,736.6 492.9,736.8 521.0,736.4 549.1,736.6 577.1,736.9 605.2,736.6 633.2,737.2 661.3,736.6 689.4,736.7 717.4,736.4 745.5,736.9 773.6,736.6 801.6,736.8 829.7,735.8 857.8,737.5 885.8,737.8 913.9,735.6 941.9,737.0 970.0,736.6"/>
<circle cx="72.0" cy="726.9" r="3.5" fill="#16a34a" stroke="#fff" stroke-width="1.5"/>
<circle cx="100.1" cy="723.6" r="3.5" fill="#16a34a" stroke="#fff" stroke-width="1.5"/>
<circle cx="128.1" cy="726.5" r="3.5" fill="#16a34a" stroke="#fff" stroke-width="1.5"/>
<circle cx="156.2" cy="665.3" r="3.5" fill="#16a34a" stroke="#fff" stroke-width="1.5"/>
<circle cx="184.2" cy="666.7" r="3.5" fill="#16a34a" stroke="#fff" stroke-width="1.5"/>
<circle cx="212.3" cy="665.3" r="3.5" fill="#16a34a" stroke="#fff" stroke-width="1.5"/>
<circle cx="240.4" cy="666.5" r="3.5" fill="#16a34a" stroke="#fff" stroke-width="1.5"/>
<circle cx="268.4" cy="634.1" r="3.5" fill="#16a34a" stroke="#fff" stroke-width="1.5"/>
<circle cx="296.5" cy="633.4" r="3.5" fill="#16a34a" stroke="#fff" stroke-width="1.5"/>
<circle cx="324.6" cy="736.3" r="3.5" fill="#16a34a" stroke="#fff" stroke-width="1.5"/>
<circle cx="352.6" cy="737.0" r="3.5" fill="#16a34a" stroke="#fff" stroke-width="1.5"/>
<circle cx="380.7" cy="737.4" r="3.5" fill="#16a34a" stroke="#fff" stroke-width="1.5"/>
<circle cx="408.8" cy="737.0" r="3.5" fill="#16a34a" stroke="#fff" stroke-width="1.5"/>
<circle cx="436.8" cy="736.8" r="3.5" fill="#16a34a" stroke="#fff" stroke-width="1.5"/>
<circle cx="464.9" cy="736.6" r="3.5" fill="#16a34a" stroke="#fff" stroke-width="1.5"/>
<circle cx="492.9" cy="736.8" r="3.5" fill="#16a34a" stroke="#fff" stroke-width="1.5"/>
<circle cx="521.0" cy="736.4" r="3.5" fill="#16a34a" stroke="#fff" stroke-width="1.5"/>
<circle cx="549.1" cy="736.6" r="3.5" fill="#16a34a" stroke="#fff" stroke-width="1.5"/>
<circle cx="577.1" cy="736.9" r="3.5" fill="#16a34a" stroke="#fff" stroke-width="1.5"/>
<circle cx="605.2" cy="736.6" r="3.5" fill="#16a34a" stroke="#fff" stroke-width="1.5"/>
<circle cx="633.2" cy="737.2" r="3.5" fill="#16a34a" stroke="#fff" stroke-width="1.5"/>
<circle cx="661.3" cy="736.6" r="3.5" fill="#16a34a" stroke="#fff" stroke-width="1.5"/>
<circle cx="689.4" cy="736.7" r="3.5" fill="#16a34a" stroke="#fff" stroke-width="1.5"/>
<circle cx="717.4" cy="736.4" r="3.5" fill="#16a34a" stroke="#fff" stroke-width="1.5"/>
<circle cx="745.5" cy="736.9" r="3.5" fill="#16a34a" stroke="#fff" stroke-width="1.5"/>
<circle cx="773.6" cy="736.6" r="3.5" fill="#16a34a" stroke="#fff" stroke-width="1.5"/>
<circle cx="801.6" cy="736.8" r="3.5" fill="#16a34a" stroke="#fff" stroke-width="1.5"/>
<circle cx="829.7" cy="735.8" r="3.5" fill="#16a34a" stroke="#fff" stroke-width="1.5"/>
<circle cx="857.8" cy="737.5" r="3.5" fill="#16a34a" stroke="#fff" stroke-width="1.5"/>
<circle cx="885.8" cy="737.8" r="3.5" fill="#16a34a" stroke="#fff" stroke-width="1.5"/>
<circle cx="913.9" cy="735.6" r="3.5" fill="#16a34a" stroke="#fff" stroke-width="1.5"/>
<circle cx="941.9" cy="737.0" r="3.5" fill="#16a34a" stroke="#fff" stroke-width="1.5"/>
<circle cx="970.0" cy="736.6" r="3.5" fill="#16a34a" stroke="#fff" stroke-width="1.5"/>
<polyline fill="none" stroke="#ea580c" stroke-width="2" stroke-linejoin="round" points="72.0,695.4 100.1,695.6 128.1,696.8 156.2,594.9 184.2,592.3 212.3,592.1 240.4,593.6 268.4,503.6 296.5,519.8 324.6,724.5 352.6,723.0 380.7,723.1 408.8,722.7 436.8,721.9 464.9,722.1 492.9,721.5 521.0,721.5 549.1,721.6 577.1,721.9 605.2,722.0 633.2,722.2 661.3,721.9 689.4,722.4 717.4,722.2 745.5,722.3 773.6,722.2 801.6,722.5 829.7,721.2 857.8,724.6 885.8,725.1 913.9,723.0 941.9,723.7 970.0,721.8"/>
<circle cx="72.0" cy="695.4" r="3.5" fill="#ea580c" stroke="#fff" stroke-width="1.5"/>
<circle cx="100.1" cy="695.6" r="3.5" fill="#ea580c" stroke="#fff" stroke-width="1.5"/>
<circle cx="128.1" cy="696.8" r="3.5" fill="#ea580c" stroke="#fff" stroke-width="1.5"/>
<circle cx="156.2" cy="594.9" r="3.5" fill="#ea580c" stroke="#fff" stroke-width="1.5"/>
<circle cx="184.2" cy="592.3" r="3.5" fill="#ea580c" stroke="#fff" stroke-width="1.5"/>
<circle cx="212.3" cy="592.1" r="3.5" fill="#ea580c" stroke="#fff" stroke-width="1.5"/>
<circle cx="240.4" cy="593.6" r="3.5" fill="#ea580c" stroke="#fff" stroke-width="1.5"/>
<circle cx="268.4" cy="503.6" r="3.5" fill="#ea580c" stroke="#fff" stroke-width="1.5"/>
<circle cx="296.5" cy="519.8" r="3.5" fill="#ea580c" stroke="#fff" stroke-width="1.5"/>
<circle cx="324.6" cy="724.5" r="3.5" fill="#ea580c" stroke="#fff" stroke-width="1.5"/>
<circle cx="352.6" cy="723.0" r="3.5" fill="#ea580c" stroke="#fff" stroke-width="1.5"/>
<circle cx="380.7" cy="723.1" r="3.5" fill="#ea580c" stroke="#fff" stroke-width="1.5"/>
<circle cx="408.8" cy="722.7" r="3.5" fill="#ea580c" stroke="#fff" stroke-width="1.5"/>
<circle cx="436.8" cy="721.9" r="3.5" fill="#ea580c" stroke="#fff" stroke-width="1.5"/>
<circle cx="464.9" cy="722.1" r="3.5" fill="#ea580c" stroke="#fff" stroke-width="1.5"/>
<circle cx="492.9" cy="721.5" r="3.5" fill="#ea580c" stroke="#fff" stroke-width="1.5"/>
<circle cx="521.0" cy="721.5" r="3.5" fill="#ea580c" stroke="#fff" stroke-width="1.5"/>
<circle cx="549.1" cy="721.6" r="3.5" fill="#ea580c" stroke="#fff" stroke-width="1.5"/>
<circle cx="577.1" cy="721.9" r="3.5" fill="#ea580c" stroke="#fff" stroke-width="1.5"/>
<circle cx="605.2" cy="722.0" r="3.5" fill="#ea580c" stroke="#fff" stroke-width="1.5"/>
<circle cx="633.2" cy="722.2" r="3.5" fill="#ea580c" stroke="#fff" stroke-width="1.5"/>
<circle cx="661.3" cy="721.9" r="3.5" fill="#ea580c" stroke="#fff" stroke-width="1.5"/>
<circle cx="689.4" cy="722.4" r="3.5" fill="#ea580c" stroke="#fff" stroke-width="1.5"/>
<circle cx="717.4" cy="722.2" r="3.5" fill="#ea580c" stroke="#fff" stroke-width="1.5"/>
<circle cx="745.5" cy="722.3" r="3.5" fill="#ea580c" stroke="#fff" stroke-width="1.5"/>
<circle cx="773.6" cy="722.2" r="3.5" fill="#ea580c" stroke="#fff" stroke-width="1.5"/>
<circle cx="801.6" cy="722.5" r="3.5" fill="#ea580c" stroke="#fff" stroke-width="1.5"/>
<circle cx="829.7" cy="721.2" r="3.5" fill="#ea580c" stroke="#fff" stroke-width="1.5"/>
<circle cx="857.8" cy="724.6" r="3.5" fill="#ea580c" stroke="#fff" stroke-width="1.5"/>
<circle cx="885.8" cy="725.1" r="3.5" fill="#ea580c" stroke="#fff" stroke-width="1.5"/>
<circle cx="913.9" cy="723.0" r="3.5" fill="#ea580c" stroke="#fff" stroke-width="1.5"/>
<circle cx="941.9" cy="723.7" r="3.5" fill="#ea580c" stroke="#fff" stroke-width="1.5"/>
<circle cx="970.0" cy="721.8" r="3.5" fill="#ea580c" stroke="#fff" stroke-width="1.5"/>
<polyline fill="none" stroke="#dc2626" stroke-width="2" stroke-linejoin="round" points="72.0,694.1 100.1,697.2 128.1,696.0 156.2,578.7 184.2,573.1 212.3,579.6 240.4,577.7 268.4,483.1 296.5,488.9 324.6,717.6 352.6,720.0 380.7,719.7 408.8,720.1 436.8,718.0 464.9,719.2 492.9,717.9 521.0,718.3 549.1,719.2 577.1,719.3 605.2,719.3 633.2,719.3 661.3,719.0 689.4,719.3 717.4,719.3 745.5,719.1 773.6,719.5 801.6,719.2 829.7,718.3 857.8,722.2 885.8,722.5 913.9,720.7 941.9,721.2 970.0,719.8"/>
<circle cx="72.0" cy="694.1" r="3.5" fill="#dc2626" stroke="#fff" stroke-width="1.5"/>
<circle cx="100.1" cy="697.2" r="3.5" fill="#dc2626" stroke="#fff" stroke-width="1.5"/>
<circle cx="128.1" cy="696.0" r="3.5" fill="#dc2626" stroke="#fff" stroke-width="1.5"/>
<circle cx="156.2" cy="578.7" r="3.5" fill="#dc2626" stroke="#fff" stroke-width="1.5"/>
<circle cx="184.2" cy="573.1" r="3.5" fill="#dc2626" stroke="#fff" stroke-width="1.5"/>
<circle cx="212.3" cy="579.6" r="3.5" fill="#dc2626" stroke="#fff" stroke-width="1.5"/>
<circle cx="240.4" cy="577.7" r="3.5" fill="#dc2626" stroke="#fff" stroke-width="1.5"/>
<circle cx="268.4" cy="483.1" r="3.5" fill="#dc2626" stroke="#fff" stroke-width="1.5"/>
<circle cx="296.5" cy="488.9" r="3.5" fill="#dc2626" stroke="#fff" stroke-width="1.5"/>
<circle cx="324.6" cy="717.6" r="3.5" fill="#dc2626" stroke="#fff" stroke-width="1.5"/>
<circle cx="352.6" cy="720.0" r="3.5" fill="#dc2626" stroke="#fff" stroke-width="1.5"/>
<circle cx="380.7" cy="719.7" r="3.5" fill="#dc2626" stroke="#fff" stroke-width="1.5"/>
<circle cx="408.8" cy="720.1" r="3.5" fill="#dc2626" stroke="#fff" stroke-width="1.5"/>
<circle cx="436.8" cy="718.0" r="3.5" fill="#dc2626" stroke="#fff" stroke-width="1.5"/>
<circle cx="464.9" cy="719.2" r="3.5" fill="#dc2626" stroke="#fff" stroke-width="1.5"/>
<circle cx="492.9" cy="717.9" r="3.5" fill="#dc2626" stroke="#fff" stroke-width="1.5"/>
<circle cx="521.0" cy="718.3" r="3.5" fill="#dc2626" stroke="#fff" stroke-width="1.5"/>
<circle cx="549.1" cy="719.2" r="3.5" fill="#dc2626" stroke="#fff" stroke-width="1.5"/>
<circle cx="577.1" cy="719.3" r="3.5" fill="#dc2626" stroke="#fff" stroke-width="1.5"/>
<circle cx="605.2" cy="719.3" r="3.5" fill="#dc2626" stroke="#fff" stroke-width="1.5"/>
<circle cx="633.2" cy="719.3" r="3.5" fill="#dc2626" stroke="#fff" stroke-width="1.5"/>
<circle cx="661.3" cy="719.0" r="3.5" fill="#dc2626" stroke="#fff" stroke-width="1.5"/>
<circle cx="689.4" cy="719.3" r="3.5" fill="#dc2626" stroke="#fff" stroke-width="1.5"/>
<circle cx="717.4" cy="719.3" r="3.5" fill="#dc2626" stroke="#fff" stroke-width="1.5"/>
<circle cx="745.5" cy="719.1" r="3.5" fill="#dc2626" stroke="#fff" stroke-width="1.5"/>
<circle cx="773.6" cy="719.5" r="3.5" fill="#dc2626" stroke="#fff" stroke-width="1.5"/>
<circle cx="801.6" cy="719.2" r="3.5" fill="#dc2626" stroke="#fff" stroke-width="1.5"/>
<circle cx="829.7" cy="718.3" r="3.5" fill="#dc2626" stroke="#fff" stroke-width="1.5"/>
<circle cx="857.8" cy="722.2" r="3.5" fill="#dc2626" stroke="#fff" stroke-width="1.5"/>
<circle cx="885.8" cy="722.5" r="3.5" fill="#dc2626" stroke="#fff" stroke-width="1.5"/>
<circle cx="913.9" cy="720.7" r="3.5" fill="#dc2626" stroke="#fff" stroke-width="1.5"/>
<circle cx="941.9" cy="721.2" r="3.5" fill="#dc2626" stroke="#fff" stroke-width="1.5"/>
<circle cx="970.0" cy="719.8" r="3.5" fill="#dc2626" stroke="#fff" stroke-width="1.5"/>
<circle cx="986" cy="454" r="5" fill="#2563eb"/>
<text x="998" y="458" font-size="12" fill="#334155">small</text>
<circle cx="986" cy="476" r="5" fill="#16a34a"/>
<text x="998" y="480" font-size="12" fill="#334155">medium</text>
<circle cx="986" cy="498" r="5" fill="#ea580c"/>
<text x="998" y="502" font-size="12" fill="#334155">large</text>
<circle cx="986" cy="520" r="5" fill="#dc2626"/>
<text x="998" y="524" font-size="12" fill="#334155">stress</text>
</svg>
