<?xml version="1.0" encoding="UTF-8"?>
<svg xmlns="http://www.w3.org/2000/svg" width="1080" height="810" viewBox="0 0 1080 810" font-family="system-ui,sans-serif">
<rect width="1080" height="810" fill="#fff" rx="6"/>
<text x="72" y="28" font-size="15" font-weight="600" fill="#1e293b">hdi benchmark - median parse time</text>
<line x1="72" y1="344.0" x2="970" y2="344.0" stroke="#e2e8f0" stroke-width="1"/>
<text x="64" y="348.0" text-anchor="end" font-size="11" fill="#64748b">0</text>
<line x1="72" y1="332.0" x2="970" y2="332.0" stroke="#e2e8f0" stroke-width="1"/>
<text x="64" y="336.0" text-anchor="end" font-size="11" fill="#64748b">50</text>
<line x1="72" y1="320.0" x2="970" y2="320.0" stroke="#e2e8f0" stroke-width="1"/>
<text x="64" y="324.0" text-anchor="end" font-size="11" fill="#64748b">100</text>
<line x1="72" y1="308.0" x2="970" y2="308.0" stroke="#e2e8f0" stroke-width="1"/>
<text x="64" y="312.0" text-anchor="end" font-size="11" fill="#64748b">150</text>
<line x1="72" y1="296.0" x2="970" y2="296.0" stroke="#e2e8f0" stroke-width="1"/>
<text x="64" y="300.0" text-anchor="end" font-size="11" fill="#64748b">200</text>
<line x1="72" y1="284.0" x2="970" y2="284.0" stroke="#e2e8f0" stroke-width="1"/>
<text x="64" y="288.0" text-anchor="end" font-size="11" fill="#64748b">250</text>
<line x1="72" y1="272.0" x2="970" y2="272.0" stroke="#e2e8f0" stroke-width="1"/>
<text x="64" y="276.0" text-anchor="end" font-size="11" fill="#64748b">300</text>
<line x1="72" y1="260.0" x2="970" y2="260.0" stroke="#e2e8f0" stroke-width="1"/>
<text x="64" y="264.0" text-anchor="end" font-size="11" fill="#64748b">350</text>
<line x1="72" y1="248.0" x2="970" y2="248.0" stroke="#e2e8f0" stroke-width="1"/>
<text x="64" y="252.0" text-anchor="end" font-size="11" fill="#64748b">400</text>
<line x1="72" y1="236.0" x2="970" y2="236.0" stroke="#e2e8f0" stroke-width="1"/>
<text x="64" y="240.0" text-anchor="end" font-size="11" fill="#64748b">450</text>
<line x1="72" y1="224.0" x2="970" y2="224.0" stroke="#e2e8f0" stroke-width="1"/>
<text x="64" y="228.0" text-anchor="end" font-size="11" fill="#64748b">500</text>
<line x1="72" y1="212.0" x2="970" y2="212.0" stroke="#e2e8f0" stroke-width="1"/>
<text x="64" y="216.0" text-anchor="end" font-size="11" fill="#64748b">550</text>
<line x1="72" y1="200.0" x2="970" y2="200.0" stroke="#e2e8f0" stroke-width="1"/>
<text x="64" y="204.0" text-anchor="end" font-size="11" fill="#64748b">600</text>
<line x1="72" y1="188.0" x2="970" y2="188.0" stroke="#e2e8f0" stroke-width="1"/>
<text x="64" y="192.0" text-anchor="end" font-size="11" fill="#64748b">650</text>
<line x1="72" y1="176.0" x2="970" y2="176.0" stroke="#e2e8f0" stroke-width="1"/>
<text x="64" y="180.0" text-anchor="end" font-size="11" fill="#64748b">700</text>
<line x1="72" y1="164.0" x2="970" y2="164.0" stroke="#e2e8f0" stroke-width="1"/>
<text x="64" y="168.0" text-anchor="end" font-size="11" fill="#64748b">750</text>
<line x1="72" y1="152.0" x2="970" y2="152.0" stroke="#e2e8f0" stroke-width="1"/>
<text x="64" y="156.0" text-anchor="end" font-size="11" fill="#64748b">800</text>
<line x1="72" y1="140.0" x2="970" y2="140.0" stroke="#e2e8f0" stroke-width="1"/>
<text x="64" y="144.0" text-anchor="end" font-size="11" fill="#64748b">850</text>
<line x1="72" y1="128.0" x2="970" y2="128.0" stroke="#e2e8f0" stroke-width="1"/>
<text x="64" y="132.0" text-anchor="end" font-size="11" fill="#64748b">900</text>
<line x1="72" y1="116.0" x2="970" y2="116.0" stroke="#e2e8f0" stroke-width="1"/>
<text x="64" y="120.0" text-anchor="end" font-size="11" fill="#64748b">950</text>
<line x1="72" y1="104.0" x2="970" y2="104.0" stroke="#e2e8f0" stroke-width="1"/>
<text x="64" y="108.0" text-anchor="end" font-size="11" fill="#64748b">1000</text>
<line x1="72" y1="92.0" x2="970" y2="92.0" stroke="#e2e8f0" stroke-width="1"/>
<text x="64" y="96.0" text-anchor="end" font-size="11" fill="#64748b">1050</text>
<line x1="72" y1="80.0" x2="970" y2="80.0" stroke="#e2e8f0" stroke-width="1"/>
<text x="64" y="84.0" text-anchor="end" font-size="11" fill="#64748b">1100</text>
<line x1="72" y1="68.0" x2="970" y2="68.0" stroke="#e2e8f0" stroke-width="1"/>
<text x="64" y="72.0" text-anchor="end" font-size="11" fill="#64748b">1150</text>
<line x1="72" y1="56.0" x2="970" y2="56.0" stroke="#e2e8f0" stroke-width="1"/>
<text x="64" y="60.0" text-anchor="end" font-size="11" fill="#64748b">1200</text>
<line x1="72" y1="44.0" x2="970" y2="44.0" stroke="#e2e8f0" stroke-width="1"/>
<text x="64" y="48.0" text-anchor="end" font-size="11" fill="#64748b">1250</text>
<text x="14" y="194" font-size="11" fill="#64748b" transform="rotate(-90,14,194)">ms</text>
<text x="72.0" y="364" text-anchor="middle" font-size="11" fill="#64748b">0.1.0</text>
<text x="98.4" y="364" text-anchor="middle" font-size="11" fill="#64748b">0.2.0</text>
<text x="124.8" y="364" text-anchor="middle" font-size="11" fill="#64748b">0.3.0</text>
<text x="151.2" y="364" text-anchor="middle" font-size="11" fill="#64748b">0.4.0</text>
<text x="177.6" y="364" text-anchor="middle" font-size="11" fill="#64748b">0.5.0</text>
<text x="204.1" y="364" text-anchor="middle" font-size="11" fill="#64748b">0.6.0</text>
<text x="230.5" y="364" text-anchor="middle" font-size="11" fill="#64748b">0.7.0</text>
<text x="256.9" y="364" text-anchor="middle" font-size="11" fill="#64748b">0.8.0</text>
<text x="283.3" y="364" text-anchor="middle" font-size="11" fill="#64748b">0.9.0</text>
<text x="309.7" y="364" text-anchor="middle" font-size="11" fill="#64748b">0.10.0</text>
<text x="336.1" y="364" text-anchor="middle" font-size="11" fill="#64748b">0.11.0</text>
<text x="362.5" y="364" text-anchor="middle" font-size="11" fill="#64748b">0.12.0</text>
<text x="388.9" y="364" text-anchor="middle" font-size="11" fill="#64748b">0.13.0</text>
<text x="415.4" y="364" text-anchor="middle" font-size="11" fill="#64748b">0.14.0</text>
<text x="441.8" y="364" text-anchor="middle" font-size="11" fill="#64748b">0.15.0</text>
<text x="468.2" y="364" text-anchor="middle" font-size="11" fill="#64748b">0.16.0</text>
<text x="494.6" y="364" text-anchor="middle" font-size="11" fill="#64748b">0.17.0</text>
<text x="521.0" y="364" text-anchor="middle" font-size="11" fill="#64748b">0.17.1</text>
<text x="547.4" y="364" text-anchor="middle" font-size="11" fill="#64748b">0.17.2</text>
<text x="573.8" y="364" text-anchor="middle" font-size="11" fill="#64748b">0.18.0</text>
<text x="600.2" y="364" text-anchor="middle" font-size="11" fill="#64748b">0.18.1</text>
<text x="626.6" y="364" text-anchor="middle" font-size="11" fill="#64748b">0.18.2</text>
<text x="653.1" y="364" text-anchor="middle" font-size="11" fill="#64748b">0.18.3</text>
<text x="679.5" y="364" text-anchor="middle" font-size="11" fill="#64748b">0.18.4</text>
<text x="705.9" y="364" text-anchor="middle" font-size="11" fill="#64748b">0.18.5</text>
<text x="732.3" y="364" text-anchor="middle" font-size="11" fill="#64748b">0.19.0</text>
<text x="758.7" y="364" text-anchor="middle" font-size="11" fill="#64748b">0.19.1</text>
<text x="785.1" y="364" text-anchor="middle" font-size="11" fill="#64748b">0.20.0</text>
<text x="811.5" y="364" text-anchor="middle" font-size="11" fill="#64748b">0.21.0</text>
<text x="837.9" y="364" text-anchor="middle" font-size="11" fill="#64748b">0.21.1</text>
<text x="864.4" y="364" text-anchor="middle" font-size="11" fill="#64748b">0.22.0</text>
<text x="890.8" y="364" text-anchor="middle" font-size="11" fill="#64748b">0.23.0</text>
<text x="917.2" y="364" text-anchor="middle" font-size="11" fill="#64748b">0.23.1</text>
<text x="943.6" y="364" text-anchor="middle" font-size="11" fill="#64748b">0.24.0</text>
<text x="970.0" y="364" text-anchor="middle" font-size="11" fill="#64748b">0.25.0</text>
<text x="521" y="384" text-anchor="middle" font-size="11" fill="#64748b">release</text>
<polyline fill="none" stroke="#2563eb" stroke-width="2" stroke-linejoin="round" points="72.0,335.3 98.4,335.5 124.8,335.9 151.2,324.7 177.6,324.5 204.1,324.9 230.5,320.3 256.9,319.9 283.3,319.3 309.7,338.6 336.1,338.9 362.5,338.4 388.9,339.2 415.4,339.1 441.8,338.5 468.2,338.8 494.6,338.9 521.0,338.9 547.4,339.1 573.8,338.9 600.2,339.0 626.6,338.8 653.1,339.0 679.5,338.9 705.9,338.6 732.3,338.5 758.7,338.9 785.1,338.2 811.5,338.4 837.9,338.6 864.4,338.8 890.8,338.6 917.2,338.7 943.6,338.6 970.0,338.0"/>
<circle cx="72.0" cy="335.3" r="3.5" fill="#2563eb" stroke="#fff" stroke-width="1.5"/>
<circle cx="98.4" cy="335.5" r="3.5" fill="#2563eb" stroke="#fff" stroke-width="1.5"/>
<circle cx="124.8" cy="335.9" r="3.5" fill="#2563eb" stroke="#fff" stroke-width="1.5"/>
<circle cx="151.2" cy="324.7" r="3.5" fill="#2563eb" stroke="#fff" stroke-width="1.5"/>
<circle cx="177.6" cy="324.5" r="3.5" fill="#2563eb" stroke="#fff" stroke-width="1.5"/>
<circle cx="204.1" cy="324.9" r="3.5" fill="#2563eb" stroke="#fff" stroke-width="1.5"/>
<circle cx="230.5" cy="320.3" r="3.5" fill="#2563eb" stroke="#fff" stroke-width="1.5"/>
<circle cx="256.9" cy="319.9" r="3.5" fill="#2563eb" stroke="#fff" stroke-width="1.5"/>
<circle cx="283.3" cy="319.3" r="3.5" fill="#2563eb" stroke="#fff" stroke-width="1.5"/>
<circle cx="309.7" cy="338.6" r="3.5" fill="#2563eb" stroke="#fff" stroke-width="1.5"/>
<circle cx="336.1" cy="338.9" r="3.5" fill="#2563eb" stroke="#fff" stroke-width="1.5"/>
<circle cx="362.5" cy="338.4" r="3.5" fill="#2563eb" stroke="#fff" stroke-width="1.5"/>
<circle cx="388.9" cy="339.2" r="3.5" fill="#2563eb" stroke="#fff" stroke-width="1.5"/>
<circle cx="415.4" cy="339.1" r="3.5" fill="#2563eb" stroke="#fff" stroke-width="1.5"/>
<circle cx="441.8" cy="338.5" r="3.5" fill="#2563eb" stroke="#fff" stroke-width="1.5"/>
<circle cx="468.2" cy="338.8" r="3.5" fill="#2563eb" stroke="#fff" stroke-width="1.5"/>
<circle cx="494.6" cy="338.9" r="3.5" fill="#2563eb" stroke="#fff" stroke-width="1.5"/>
<circle cx="521.0" cy="338.9" r="3.5" fill="#2563eb" stroke="#fff" stroke-width="1.5"/>
<circle cx="547.4" cy="339.1" r="3.5" fill="#2563eb" stroke="#fff" stroke-width="1.5"/>
<circle cx="573.8" cy="338.9" r="3.5" fill="#2563eb" stroke="#fff" stroke-width="1.5"/>
<circle cx="600.2" cy="339.0" r="3.5" fill="#2563eb" stroke="#fff" stroke-width="1.5"/>
<circle cx="626.6" cy="338.8" r="3.5" fill="#2563eb" stroke="#fff" stroke-width="1.5"/>
<circle cx="653.1" cy="339.0" r="3.5" fill="#2563eb" stroke="#fff" stroke-width="1.5"/>
<circle cx="679.5" cy="338.9" r="3.5" fill="#2563eb" stroke="#fff" stroke-width="1.5"/>
<circle cx="705.9" cy="338.6" r="3.5" fill="#2563eb" stroke="#fff" stroke-width="1.5"/>
<circle cx="732.3" cy="338.5" r="3.5" fill="#2563eb" stroke="#fff" stroke-width="1.5"/>
<circle cx="758.7" cy="338.9" r="3.5" fill="#2563eb" stroke="#fff" stroke-width="1.5"/>
<circle cx="785.1" cy="338.2" r="3.5" fill="#2563eb" stroke="#fff" stroke-width="1.5"/>
<circle cx="811.5" cy="338.4" r="3.5" fill="#2563eb" stroke="#fff" stroke-width="1.5"/>
<circle cx="837.9" cy="338.6" r="3.5" fill="#2563eb" stroke="#fff" stroke-width="1.5"/>
<circle cx="864.4" cy="338.8" r="3.5" fill="#2563eb" stroke="#fff" stroke-width="1.5"/>
<circle cx="890.8" cy="338.6" r="3.5" fill="#2563eb" stroke="#fff" stroke-width="1.5"/>
<circle cx="917.2" cy="338.7" r="3.5" fill="#2563eb" stroke="#fff" stroke-width="1.5"/>
<circle cx="943.6" cy="338.6" r="3.5" fill="#2563eb" stroke="#fff" stroke-width="1.5"/>
<circle cx="970.0" cy="338.0" r="3.5" fill="#2563eb" stroke="#fff" stroke-width="1.5"/>
<polyline fill="none" stroke="#16a34a" stroke-width="2" stroke-linejoin="round" points="72.0,321.3 98.4,321.2 124.8,319.9 151.2,259.1 177.6,261.8 204.1,260.8 230.5,232.0 256.9,230.0 283.3,223.4 309.7,331.5 336.1,332.8 362.5,331.5 388.9,332.7 415.4,332.8 441.8,331.7 468.2,331.6 494.6,332.3 521.0,332.3 547.4,332.5 573.8,331.6 600.2,332.4 626.6,332.5 653.1,332.5 679.5,332.0 705.9,332.3 732.3,332.0 758.7,332.4 785.1,330.6 811.5,331.3 837.9,332.4 864.4,332.1 890.8,331.9 917.2,331.3 943.6,331.9 970.0,331.3"/>
<circle cx="72.0" cy="321.3" r="3.5" fill="#16a34a" stroke="#fff" stroke-width="1.5"/>
<circle cx="98.4" cy="321.2" r="3.5" fill="#16a34a" stroke="#fff" stroke-width="1.5"/>
<circle cx="124.8" cy="319.9" r="3.5" fill="#16a34a" stroke="#fff" stroke-width="1.5"/>
<circle cx="151.2" cy="259.1" r="3.5" fill="#16a34a" stroke="#fff" stroke-width="1.5"/>
<circle cx="177.6" cy="261.8" r="3.5" fill="#16a34a" stroke="#fff" stroke-width="1.5"/>
<circle cx="204.1" cy="260.8" r="3.5" fill="#16a34a" stroke="#fff" stroke-width="1.5"/>
<circle cx="230.5" cy="232.0" r="3.5" fill="#16a34a" stroke="#fff" stroke-width="1.5"/>
<circle cx="256.9" cy="230.0" r="3.5" fill="#16a34a" stroke="#fff" stroke-width="1.5"/>
<circle cx="283.3" cy="223.4" r="3.5" fill="#16a34a" stroke="#fff" stroke-width="1.5"/>
<circle cx="309.7" cy="331.5" r="3.5" fill="#16a34a" stroke="#fff" stroke-width="1.5"/>
<circle cx="336.1" cy="332.8" r="3.5" fill="#16a34a" stroke="#fff" stroke-width="1.5"/>
<circle cx="362.5" cy="331.5" r="3.5" fill="#16a34a" stroke="#fff" stroke-width="1.5"/>
<circle cx="388.9" cy="332.7" r="3.5" fill="#16a34a" stroke="#fff" stroke-width="1.5"/>
<circle cx="415.4" cy="332.8" r="3.5" fill="#16a34a" stroke="#fff" stroke-width="1.5"/>
<circle cx="441.8" cy="331.7" r="3.5" fill="#16a34a" stroke="#fff" stroke-width="1.5"/>
<circle cx="468.2" cy="331.6" r="3.5" fill="#16a34a" stroke="#fff" stroke-width="1.5"/>
<circle cx="494.6" cy="332.3" r="3.5" fill="#16a34a" stroke="#fff" stroke-width="1.5"/>
<circle cx="521.0" cy="332.3" r="3.5" fill="#16a34a" stroke="#fff" stroke-width="1.5"/>
<circle cx="547.4" cy="332.5" r="3.5" fill="#16a34a" stroke="#fff" stroke-width="1.5"/>
<circle cx="573.8" cy="331.6" r="3.5" fill="#16a34a" stroke="#fff" stroke-width="1.5"/>
<circle cx="600.2" cy="332.4" r="3.5" fill="#16a34a" stroke="#fff" stroke-width="1.5"/>
<circle cx="626.6" cy="332.5" r="3.5" fill="#16a34a" stroke="#fff" stroke-width="1.5"/>
<circle cx="653.1" cy="332.5" r="3.5" fill="#16a34a" stroke="#fff" stroke-width="1.5"/>
<circle cx="679.5" cy="332.0" r="3.5" fill="#16a34a" stroke="#fff" stroke-width="1.5"/>
<circle cx="705.9" cy="332.3" r="3.5" fill="#16a34a" stroke="#fff" stroke-width="1.5"/>
<circle cx="732.3" cy="332.0" r="3.5" fill="#16a34a" stroke="#fff" stroke-width="1.5"/>
<circle cx="758.7" cy="332.4" r="3.5" fill="#16a34a" stroke="#fff" stroke-width="1.5"/>
<circle cx="785.1" cy="330.6" r="3.5" fill="#16a34a" stroke="#fff" stroke-width="1.5"/>
<circle cx="811.5" cy="331.3" r="3.5" fill="#16a34a" stroke="#fff" stroke-width="1.5"/>
<circle cx="837.9" cy="332.4" r="3.5" fill="#16a34a" stroke="#fff" stroke-width="1.5"/>
<circle cx="864.4" cy="332.1" r="3.5" fill="#16a34a" stroke="#fff" stroke-width="1.5"/>
<circle cx="890.8" cy="331.9" r="3.5" fill="#16a34a" stroke="#fff" stroke-width="1.5"/>
<circle cx="917.2" cy="331.3" r="3.5" fill="#16a34a" stroke="#fff" stroke-width="1.5"/>
<circle cx="943.6" cy="331.9" r="3.5" fill="#16a34a" stroke="#fff" stroke-width="1.5"/>
<circle cx="970.0" cy="331.3" r="3.5" fill="#16a34a" stroke="#fff" stroke-width="1.5"/>
<polyline fill="none" stroke="#ea580c" stroke-width="2" stroke-linejoin="round" points="72.0,294.3 98.4,295.5 124.8,296.3 151.2,186.8 177.6,189.2 204.1,187.7 230.5,124.3 256.9,106.5 283.3,110.3 309.7,321.2 336.1,320.4 362.5,319.2 388.9,320.2 415.4,320.1 441.8,319.3 468.2,318.2 494.6,319.4 521.0,319.5 547.4,319.6 573.8,318.9 600.2,319.4 626.6,319.3 653.1,319.4 679.5,319.6 705.9,319.0 732.3,319.4 758.7,319.1 785.1,316.6 811.5,318.9 837.9,318.5 864.4,319.3 890.8,318.4 917.2,317.8 943.6,318.4 970.0,317.5"/>
<circle cx="72.0" cy="294.3" r="3.5" fill="#ea580c" stroke="#fff" stroke-width="1.5"/>
<circle cx="98.4" cy="295.5" r="3.5" fill="#ea580c" stroke="#fff" stroke-width="1.5"/>
<circle cx="124.8" cy="296.3" r="3.5" fill="#ea580c" stroke="#fff" stroke-width="1.5"/>
<circle cx="151.2" cy="186.8" r="3.5" fill="#ea580c" stroke="#fff" stroke-width="1.5"/>
<circle cx="177.6" cy="189.2" r="3.5" fill="#ea580c" stroke="#fff" stroke-width="1.5"/>
<circle cx="204.1" cy="187.7" r="3.5" fill="#ea580c" stroke="#fff" stroke-width="1.5"/>
<circle cx="230.5" cy="124.3" r="3.5" fill="#ea580c" stroke="#fff" stroke-width="1.5"/>
<circle cx="256.9" cy="106.5" r="3.5" fill="#ea580c" stroke="#fff" stroke-width="1.5"/>
<circle cx="283.3" cy="110.3" r="3.5" fill="#ea580c" stroke="#fff" stroke-width="1.5"/>
<circle cx="309.7" cy="321.2" r="3.5" fill="#ea580c" stroke="#fff" stroke-width="1.5"/>
<circle cx="336.1" cy="320.4" r="3.5" fill="#ea580c" stroke="#fff" stroke-width="1.5"/>
<circle cx="362.5" cy="319.2" r="3.5" fill="#ea580c" stroke="#fff" stroke-width="1.5"/>
<circle cx="388.9" cy="320.2" r="3.5" fill="#ea580c" stroke="#fff" stroke-width="1.5"/>
<circle cx="415.4" cy="320.1" r="3.5" fill="#ea580c" stroke="#fff" stroke-width="1.5"/>
<circle cx="441.8" cy="319.3" r="3.5" fill="#ea580c" stroke="#fff" stroke-width="1.5"/>
<circle cx="468.2" cy="318.2" r="3.5" fill="#ea580c" stroke="#fff" stroke-width="1.5"/>
<circle cx="494.6" cy="319.4" r="3.5" fill="#ea580c" stroke="#fff" stroke-width="1.5"/>
<circle cx="521.0" cy="319.5" r="3.5" fill="#ea580c" stroke="#fff" stroke-width="1.5"/>
<circle cx="547.4" cy="319.6" r="3.5" fill="#ea580c" stroke="#fff" stroke-width="1.5"/>
<circle cx="573.8" cy="318.9" r="3.5" fill="#ea580c" stroke="#fff" stroke-width="1.5"/>
<circle cx="600.2" cy="319.4" r="3.5" fill="#ea580c" stroke="#fff" stroke-width="1.5"/>
<circle cx="626.6" cy="319.3" r="3.5" fill="#ea580c" stroke="#fff" stroke-width="1.5"/>
<circle cx="653.1" cy="319.4" r="3.5" fill="#ea580c" stroke="#fff" stroke-width="1.5"/>
<circle cx="679.5" cy="319.6" r="3.5" fill="#ea580c" stroke="#fff" stroke-width="1.5"/>
<circle cx="705.9" cy="319.0" r="3.5" fill="#ea580c" stroke="#fff" stroke-width="1.5"/>
<circle cx="732.3" cy="319.4" r="3.5" fill="#ea580c" stroke="#fff" stroke-width="1.5"/>
<circle cx="758.7" cy="319.1" r="3.5" fill="#ea580c" stroke="#fff" stroke-width="1.5"/>
<circle cx="785.1" cy="316.6" r="3.5" fill="#ea580c" stroke="#fff" stroke-width="1.5"/>
<circle cx="811.5" cy="318.9" r="3.5" fill="#ea580c" stroke="#fff" stroke-width="1.5"/>
<circle cx="837.9" cy="318.5" r="3.5" fill="#ea580c" stroke="#fff" stroke-width="1.5"/>
<circle cx="864.4" cy="319.3" r="3.5" fill="#ea580c" stroke="#fff" stroke-width="1.5"/>
<circle cx="890.8" cy="318.4" r="3.5" fill="#ea580c" stroke="#fff" stroke-width="1.5"/>
<circle cx="917.2" cy="317.8" r="3.5" fill="#ea580c" stroke="#fff" stroke-width="1.5"/>
<circle cx="943.6" cy="318.4" r="3.5" fill="#ea580c" stroke="#fff" stroke-width="1.5"/>
<circle cx="970.0" cy="317.5" r="3.5" fill="#ea580c" stroke="#fff" stroke-width="1.5"/>
<polyline fill="none" stroke="#dc2626" stroke-width="2" stroke-linejoin="round" points="72.0,291.4 98.4,291.4 124.8,292.3 151.2,174.2 177.6,171.3 204.1,169.3 230.5,83.8 256.9,88.6 283.3,79.9 309.7,314.8 336.1,317.2 362.5,315.5 388.9,317.6 415.4,317.5 441.8,316.6 468.2,315.4 494.6,316.7 521.0,316.8 547.4,316.5 573.8,316.5 600.2,316.7 626.6,316.2 653.1,316.8 679.5,316.8 705.9,316.4 732.3,316.6 758.7,316.6 785.1,312.8 811.5,316.4 837.9,317.0 864.4,316.3 890.8,316.0 917.2,315.4 943.6,315.5 970.0,314.6"/>
<circle cx="72.0" cy="291.4" r="3.5" fill="#dc2626" stroke="#fff" stroke-width="1.5"/>
<circle cx="98.4" cy="291.4" r="3.5" fill="#dc2626" stroke="#fff" stroke-width="1.5"/>
<circle cx="124.8" cy="292.3" r="3.5" fill="#dc2626" stroke="#fff" stroke-width="1.5"/>
<circle cx="151.2" cy="174.2" r="3.5" fill="#dc2626" stroke="#fff" stroke-width="1.5"/>
<circle cx="177.6" cy="171.3" r="3.5" fill="#dc2626" stroke="#fff" stroke-width="1.5"/>
<circle cx="204.1" cy="169.3" r="3.5" fill="#dc2626" stroke="#fff" stroke-width="1.5"/>
<circle cx="230.5" cy="83.8" r="3.5" fill="#dc2626" stroke="#fff" stroke-width="1.5"/>
<circle cx="256.9" cy="88.6" r="3.5" fill="#dc2626" stroke="#fff" stroke-width="1.5"/>
<circle cx="283.3" cy="79.9" r="3.5" fill="#dc2626" stroke="#fff" stroke-width="1.5"/>
<circle cx="309.7" cy="314.8" r="3.5" fill="#dc2626" stroke="#fff" stroke-width="1.5"/>
<circle cx="336.1" cy="317.2" r="3.5" fill="#dc2626" stroke="#fff" stroke-width="1.5"/>
<circle cx="362.5" cy="315.5" r="3.5" fill="#dc2626" stroke="#fff" stroke-width="1.5"/>
<circle cx="388.9" cy="317.6" r="3.5" fill="#dc2626" stroke="#fff" stroke-width="1.5"/>
<circle cx="415.4" cy="317.5" r="3.5" fill="#dc2626" stroke="#fff" stroke-width="1.5"/>
<circle cx="441.8" cy="316.6" r="3.5" fill="#dc2626" stroke="#fff" stroke-width="1.5"/>
<circle cx="468.2" cy="315.4" r="3.5" fill="#dc2626" stroke="#fff" stroke-width="1.5"/>
<circle cx="494.6" cy="316.7" r="3.5" fill="#dc2626" stroke="#fff" stroke-width="1.5"/>
<circle cx="521.0" cy="316.8" r="3.5" fill="#dc2626" stroke="#fff" stroke-width="1.5"/>
<circle cx="547.4" cy="316.5" r="3.5" fill="#dc2626" stroke="#fff" stroke-width="1.5"/>
<circle cx="573.8" cy="316.5" r="3.5" fill="#dc2626" stroke="#fff" stroke-width="1.5"/>
<circle cx="600.2" cy="316.7" r="3.5" fill="#dc2626" stroke="#fff" stroke-width="1.5"/>
<circle cx="626.6" cy="316.2" r="3.5" fill="#dc2626" stroke="#fff" stroke-width="1.5"/>
<circle cx="653.1" cy="316.8" r="3.5" fill="#dc2626" stroke="#fff" stroke-width="1.5"/>
<circle cx="679.5" cy="316.8" r="3.5" fill="#dc2626" stroke="#fff" stroke-width="1.5"/>
<circle cx="705.9" cy="316.4" r="3.5" fill="#dc2626" stroke="#fff" stroke-width="1.5"/>
<circle cx="732.3" cy="316.6" r="3.5" fill="#dc2626" stroke="#fff" stroke-width="1.5"/>
<circle cx="758.7" cy="316.6" r="3.5" fill="#dc2626" stroke="#fff" stroke-width="1.5"/>
<circle cx="785.1" cy="312.8" r="3.5" fill="#dc2626" stroke="#fff" stroke-width="1.5"/>
<circle cx="811.5" cy="316.4" r="3.5" fill="#dc2626" stroke="#fff" stroke-width="1.5"/>
<circle cx="837.9" cy="317.0" r="3.5" fill="#dc2626" stroke="#fff" stroke-width="1.5"/>
<circle cx="864.4" cy="316.3" r="3.5" fill="#dc2626" stroke="#fff" stroke-width="1.5"/>
<circle cx="890.8" cy="316.0" r="3.5" fill="#dc2626" stroke="#fff" stroke-width="1.5"/>
<circle cx="917.2" cy="315.4" r="3.5" fill="#dc2626" stroke="#fff" stroke-width="1.5"/>
<circle cx="943.6" cy="315.5" r="3.5" fill="#dc2626" stroke="#fff" stroke-width="1.5"/>
<circle cx="970.0" cy="314.6" r="3.5" fill="#dc2626" stroke="#fff" stroke-width="1.5"/>
<circle cx="986" cy="48" r="5" fill="#2563eb"/>
<text x="998" y="52" font-size="12" fill="#334155">small</text>
<circle cx="986" cy="70" r="5" fill="#16a34a"/>
<text x="998" y="74" font-size="12" fill="#334155">medium</text>
<circle cx="986" cy="92" r="5" fill="#ea580c"/>
<text x="998" y="96" font-size="12" fill="#334155">large</text>
<circle cx="986" cy="114" r="5" fill="#dc2626"/>
<text x="998" y="118" font-size="12" fill="#334155">stress</text>
<text x="72" y="434" font-size="15" font-weight="600" fill="#1e293b">hdi benchmark - picker time to first frame</text>
<line x1="72" y1="750.0" x2="970" y2="750.0" stroke="#e2e8f0" stroke-width="1"/>
<text x="64" y="754.0" text-anchor="end" font-size="11" fill="#64748b">0</text>
<line x1="72" y1="738.0" x2="970" y2="738.0" stroke="#e2e8f0" stroke-width="1"/>
<text x="64" y="742.0" text-anchor="end" font-size="11" fill="#64748b">50</text>
<line x1="72" y1="726.0" x2="970" y2="726.0" stroke="#e2e8f0" stroke-width="1"/>
<text x="64" y="730.0" text-anchor="end" font-size="11" fill="#64748b">100</text>
<line x1="72" y1="714.0" x2="970" y2="714.0" stroke="#e2e8f0" stroke-width="1"/>
<text x="64" y="718.0" text-anchor="end" font-size="11" fill="#64748b">150</text>
<line x1="72" y1="702.0" x2="970" y2="702.0" stroke="#e2e8f0" stroke-width="1"/>
<text x="64" y="706.0" text-anchor="end" font-size="11" fill="#64748b">200</text>
<line x1="72" y1="690.0" x2="970" y2="690.0" stroke="#e2e8f0" stroke-width="1"/>
<text x="64" y="694.0" text-anchor="end" font-size="11" fill="#64748b">250</text>
<line x1="72" y1="678.0" x2="970" y2="678.0" stroke="#e2e8f0" stroke-width="1"/>
<text x="64" y="682.0" text-anchor="end" font-size="11" fill="#64748b">300</text>
<line x1="72" y1="666.0" x2="970" y2="666.0" stroke="#e2e8f0" stroke-width="1"/>
<text x="64" y="670.0" text-anchor="end" font-size="11" fill="#64748b">350</text>
<line x1="72" y1="654.0" x2="970" y2="654.0" stroke="#e2e8f0" stroke-width="1"/>
<text x="64" y="658.0" text-anchor="end" font-size="11" fill="#64748b">400</text>
<line x1="72" y1="642.0" x2="970" y2="642.0" stroke="#e2e8f0" stroke-width="1"/>
<text x="64" y="646.0" text-anchor="end" font-size="11" fill="#64748b">450</text>
<line x1="72" y1="630.0" x2="970" y2="630.0" stroke="#e2e8f0" stroke-width="1"/>
<text x="64" y="634.0" text-anchor="end" font-size="11" fill="#64748b">500</text>
<line x1="72" y1="618.0" x2="970" y2="618.0" stroke="#e2e8f0" stroke-width="1"/>
<text x="64" y="622.0" text-anchor="end" font-size="11" fill="#64748b">550</text>
<line x1="72" y1="606.0" x2="970" y2="606.0" stroke="#e2e8f0" stroke-width="1"/>
<text x="64" y="610.0" text-anchor="end" font-size="11" fill="#64748b">600</text>
<line x1="72" y1="594.0" x2="970" y2="594.0" stroke="#e2e8f0" stroke-width="1"/>
<text x="64" y="598.0" text-anchor="end" font-size="11" fill="#64748b">650</text>
<line x1="72" y1="582.0" x2="970" y2="582.0" stroke="#e2e8f0" stroke-width="1"/>
<text x="64" y="586.0" text-anchor="end" font-size="11" fill="#64748b">700</text>
<line x1="72" y1="570.0" x2="970" y2="570.0" stroke="#e2e8f0" stroke-width="1"/>
<text x="64" y="574.0" text-anchor="end" font-size="11" fill="#64748b">750</text>
<line x1="72" y1="558.0" x2="970" y2="558.0" stroke="#e2e8f0" stroke-width="1"/>
<text x="64" y="562.0" text-anchor="end" font-size="11" fill="#64748b">800</text>
<line x1="72" y1="546.0" x2="970" y2="546.0" stroke="#e2e8f0" stroke-width="1"/>
<text x="64" y="550.0" text-anchor="end" font-size="11" fill="#64748b">850</text>
<line x1="72" y1="534.0" x2="970" y2="534.0" stroke="#e2e8f0" stroke-width="1"/>
<text x="64" y="538.0" text-anchor="end" font-size="11" fill="#64748b">900</text>
<line x1="72" y1="522.0" x2="970" y2="522.0" stroke="#e2e8f0" stroke-width="1"/>
<text x="64" y="526.0" text-anchor="end" font-size="11" fill="#64748b">950</text>
<line x1="72" y1="510.0" x2="970" y2="510.0" stroke="#e2e8f0" stroke-width="1"/>
<text x="64" y="514.0" text-anchor="end" font-size="11" fill="#64748b">1000</text>
<line x1="72" y1="498.0" x2="970" y2="498.0" stroke="#e2e8f0" stroke-width="1"/>
<text x="64" y="502.0" text-anchor="end" font-size="11" fill="#64748b">1050</text>
<line x1="72" y1="486.0" x2="970" y2="486.0" stroke="#e2e8f0" stroke-width="1"/>
<text x="64" y="490.0" text-anchor="end" font-size="11" fill="#64748b">1100</text>
<line x1="72" y1="474.0" x2="970" y2="474.0" stroke="#e2e8f0" stroke-width="1"/>
<text x="64" y="478.0" text-anchor="end" font-size="11" fill="#64748b">1150</text>
<line x1="72" y1="462.0" x2="970" y2="462.0" stroke="#e2e8f0" stroke-width="1"/>
<text x="64" y="466.0" text-anchor="end" font-size="11" fill="#64748b">1200</text>
<line x1="72" y1="450.0" x2="970" y2="450.0" stroke="#e2e8f0" stroke-width="1"/>
<text x="64" y="454.0" text-anchor="end" font-size="11" fill="#64748b">1250</text>
<text x="14" y="600" font-size="11" fill="#64748b" transform="rotate(-90,14,600)">ms</text>
<text x="72.0" y="770" text-anchor="middle" font-size="11" fill="#64748b">0.1.0</text>
<text x="98.4" y="770" text-anchor="middle" font-size="11" fill="#64748b">0.2.0</text>
<text x="124.8" y="770" text-anchor="middle" font-size="11" fill="#64748b">0.3.0</text>
<text x="151.2" y="770" text-anchor="middle" font-size="11" fill="#64748b">0.4.0</text>
<text x="177.6" y="770" text-anchor="middle" font-size="11" fill="#64748b">0.5.0</text>
<text x="204.1" y="770" text-anchor="middle" font-size="11" fill="#64748b">0.6.0</text>
<text x="230.5" y="770" text-anchor="middle" font-size="11" fill="#64748b">0.7.0</text>
<text x="256.9" y="770" text-anchor="middle" font-size="11" fill="#64748b">0.8.0</text>
<text x="283.3" y="770" text-anchor="middle" font-size="11" fill="#64748b">0.9.0</text>
<text x="309.7" y="770" text-anchor="middle" font-size="11" fill="#64748b">0.10.0</text>
<text x="336.1" y="770" text-anchor="middle" font-size="11" fill="#64748b">0.11.0</text>
<text x="362.5" y="770" text-anchor="middle" font-size="11" fill="#64748b">0.12.0</text>
<text x="388.9" y="770" text-anchor="middle" font-size="11" fill="#64748b">0.13.0</text>
<text x="415.4" y="770" text-anchor="middle" font-size="11" fill="#64748b">0.14.0</text>
<text x="441.8" y="770" text-anchor="middle" font-size="11" fill="#64748b">0.15.0</text>
<text x="468.2" y="770" text-anchor="middle" font-size="11" fill="#64748b">0.16.0</text>
<text x="494.6" y="770" text-anchor="middle" font-size="11" fill="#64748b">0.17.0</text>
<text x="521.0" y="770" text-anchor="middle" font-size="11" fill="#64748b">0.17.1</text>
<text x="547.4" y="770" text-anchor="middle" font-size="11" fill="#64748b">0.17.2</text>
<text x="573.8" y="770" text-anchor="middle" font-size="11" fill="#64748b">0.18.0</text>
<text x="600.2" y="770" text-anchor="middle" font-size="11" fill="#64748b">0.18.1</text>
<text x="626.6" y="770" text-anchor="middle" font-size="11" fill="#64748b">0.18.2</text>
<text x="653.1" y="770" text-anchor="middle" font-size="11" fill="#64748b">0.18.3</text>
<text x="679.5" y="770" text-anchor="middle" font-size="11" fill="#64748b">0.18.4</text>
<text x="705.9" y="770" text-anchor="middle" font-size="11" fill="#64748b">0.18.5</text>
<text x="732.3" y="770" text-anchor="middle" font-size="11" fill="#64748b">0.19.0</text>
<text x="758.7" y="770" text-anchor="middle" font-size="11" fill="#64748b">0.19.1</text>
<text x="785.1" y="770" text-anchor="middle" font-size="11" fill="#64748b">0.20.0</text>
<text x="811.5" y="770" text-anchor="middle" font-size="11" fill="#64748b">0.21.0</text>
<text x="837.9" y="770" text-anchor="middle" font-size="11" fill="#64748b">0.21.1</text>
<text x="864.4" y="770" text-anchor="middle" font-size="11" fill="#64748b">0.22.0</text>
<text x="890.8" y="770" text-anchor="middle" font-size="11" fill="#64748b">0.23.0</text>
<text x="917.2" y="770" text-anchor="middle" font-size="11" fill="#64748b">0.23.1</text>
<text x="943.6" y="770" text-anchor="middle" font-size="11" fill="#64748b">0.24.0</text>
<text x="970.0" y="770" text-anchor="middle" font-size="11" fill="#64748b">0.25.0</text>
<text x="521" y="790" text-anchor="middle" font-size="11" fill="#64748b">release</text>
<polyline fill="none" stroke="#2563eb" stroke-width="2" stroke-linejoin="round" points="72.0,740.7 98.4,740.9 124.8,740.8 151.2,729.2 177.6,730.2 204.1,730.3 230.5,730.2 256.9,725.5 283.3,723.7 309.7,744.0 336.1,744.6 362.5,744.6 388.9,744.2 415.4,744.1 441.8,743.9 468.2,744.3 494.6,743.4 521.0,744.2 547.4,744.3 573.8,744.1 600.2,744.3 626.6,744.4 653.1,744.2 679.5,744.2 705.9,744.3 732.3,744.2 758.7,744.3 785.1,743.4 811.5,744.1 837.9,744.2 864.4,743.0 890.8,743.8 917.2,743.2 943.6,743.3 970.0,742.4"/>
<circle cx="72.0" cy="740.7" r="3.5" fill="#2563eb" stroke="#fff" stroke-width="1.5"/>
<circle cx="98.4" cy="740.9" r="3.5" fill="#2563eb" stroke="#fff" stroke-width="1.5"/>
<circle cx="124.8" cy="740.8" r="3.5" fill="#2563eb" stroke="#fff" stroke-width="1.5"/>
<circle cx="151.2" cy="729.2" r="3.5" fill="#2563eb" stroke="#fff" stroke-width="1.5"/>
<circle cx="177.6" cy="730.2" r="3.5" fill="#2563eb" stroke="#fff" stroke-width="1.5"/>
<circle cx="204.1" cy="730.3" r="3.5" fill="#2563eb" stroke="#fff" stroke-width="1.5"/>
<circle cx="230.5" cy="730.2" r="3.5" fill="#2563eb" stroke="#fff" stroke-width="1.5"/>
<circle cx="256.9" cy="725.5" r="3.5" fill="#2563eb" stroke="#fff" stroke-width="1.5"/>
<circle cx="283.3" cy="723.7" r="3.5" fill="#2563eb" stroke="#fff" stroke-width="1.5"/>
<circle cx="309.7" cy="744.0" r="3.5" fill="#2563eb" stroke="#fff" stroke-width="1.5"/>
<circle cx="336.1" cy="744.6" r="3.5" fill="#2563eb" stroke="#fff" stroke-width="1.5"/>
<circle cx="362.5" cy="744.6" r="3.5" fill="#2563eb" stroke="#fff" stroke-width="1.5"/>
<circle cx="388.9" cy="744.2" r="3.5" fill="#2563eb" stroke="#fff" stroke-width="1.5"/>
<circle cx="415.4" cy="744.1" r="3.5" fill="#2563eb" stroke="#fff" stroke-width="1.5"/>
<circle cx="441.8" cy="743.9" r="3.5" fill="#2563eb" stroke="#fff" stroke-width="1.5"/>
<circle cx="468.2" cy="744.3" r="3.5" fill="#2563eb" stroke="#fff" stroke-width="1.5"/>
<circle cx="494.6" cy="743.4" r="3.5" fill="#2563eb" stroke="#fff" stroke-width="1.5"/>
<circle cx="521.0" cy="744.2" r="3.5" fill="#2563eb" stroke="#fff" stroke-width="1.5"/>
<circle cx="547.4" cy="744.3" r="3.5" fill="#2563eb" stroke="#fff" stroke-width="1.5"/>
<circle cx="573.8" cy="744.1" r="3.5" fill="#2563eb" stroke="#fff" stroke-width="1.5"/>
<circle cx="600.2" cy="744.3" r="3.5" fill="#2563eb" stroke="#fff" stroke-width="1.5"/>
<circle cx="626.6" cy="744.4" r="3.5" fill="#2563eb" stroke="#fff" stroke-width="1.5"/>
<circle cx="653.1" cy="744.2" r="3.5" fill="#2563eb" stroke="#fff" stroke-width="1.5"/>
<circle cx="679.5" cy="744.2" r="3.5" fill="#2563eb" stroke="#fff" stroke-width="1.5"/>
<circle cx="705.9" cy="744.3" r="3.5" fill="#2563eb" stroke="#fff" stroke-width="1.5"/>
<circle cx="732.3" cy="744.2" r="3.5" fill="#2563eb" stroke="#fff" stroke-width="1.5"/>
<circle cx="758.7" cy="744.3" r="3.5" fill="#2563eb" stroke="#fff" stroke-width="1.5"/>
<circle cx="785.1" cy="743.4" r="3.5" fill="#2563eb" stroke="#fff" stroke-width="1.5"/>
<circle cx="811.5" cy="744.1" r="3.5" fill="#2563eb" stroke="#fff" stroke-width="1.5"/>
<circle cx="837.9" cy="744.2" r="3.5" fill="#2563eb" stroke="#fff" stroke-width="1.5"/>
<circle cx="864.4" cy="743.0" r="3.5" fill="#2563eb" stroke="#fff" stroke-width="1.5"/>
<circle cx="890.8" cy="743.8" r="3.5" fill="#2563eb" stroke="#fff" stroke-width="1.5"/>
<circle cx="917.2" cy="743.2" r="3.5" fill="#2563eb" stroke="#fff" stroke-width="1.5"/>
<circle cx="943.6" cy="743.3" r="3.5" fill="#2563eb" stroke="#fff" stroke-width="1.5"/>
<circle cx="970.0" cy="742.4" r="3.5" fill="#2563eb" stroke="#fff" stroke-width="1.5"/>
<polyline fill="none" stroke="#16a34a" stroke-width="2" stroke-linejoin="round" points="72.0,726.9 98.4,723.6 124.8,726.5 151.2,665.3 177.6,666.7 204.1,665.3 230.5,666.5 256.9,634.1 283.3,633.4 309.7,736.3 336.1,737.0 362.5,737.4 388.9,737.0 415.4,736.8 441.8,736.6 468.2,736.8 494.6,736.4 521.0,736.6 547.4,736.9 573.8,736.6 600.2,737.2 626.6,736.6 653.1,736.7 679.5,736.4 705.9,736.9 732.3,736.6 758.7,736.8 785.1,735.8 811.5,737.5 837.9,737.8 864.4,735.6 890.8,737.0 917.2,736.6 943.6,736.4 970.0,735.7"/>
<circle cx="72.0" cy="726.9" r="3.5" fill="#16a34a" stroke="#fff" stroke-width="1.5"/>
<circle cx="98.4" cy="723.6" r="3.5" fill="#16a34a" stroke="#fff" stroke-width="1.5"/>
<circle cx="124.8" cy="726.5" r="3.5" fill="#16a34a" stroke="#fff" stroke-width="1.5"/>
<circle cx="151.2" cy="665.3" r="3.5" fill="#16a34a" stroke="#fff" stroke-width="1.5"/>
<circle cx="177.6" cy="666.7" r="3.5" fill="#16a34a" stroke="#fff" stroke-width="1.5"/>
<circle cx="204.1" cy="665.3" r="3.5" fill="#16a34a" stroke="#fff" stroke-width="1.5"/>
<circle cx="230.5" cy="666.5" r="3.5" fill="#16a34a" stroke="#fff" stroke-width="1.5"/>
<circle cx="256.9" cy="634.1" r="3.5" fill="#16a34a" stroke="#fff" stroke-width="1.5"/>
<circle cx="283.3" cy="633.4" r="3.5" fill="#16a34a" stroke="#fff" stroke-width="1.5"/>
<circle cx="309.7" cy="736.3" r="3.5" fill="#16a34a" stroke="#fff" stroke-width="1.5"/>
<circle cx="336.1" cy="737.0" r="3.5" fill="#16a34a" stroke="#fff" stroke-width="1.5"/>
<circle cx="362.5" cy="737.4" r="3.5" fill="#16a34a" stroke="#fff" stroke-width="1.5"/>
<circle cx="388.9" cy="737.0" r="3.5" fill="#16a34a" stroke="#fff" stroke-width="1.5"/>
<circle cx="415.4" cy="736.8" r="3.5" fill="#16a34a" stroke="#fff" stroke-width="1.5"/>
<circle cx="441.8" cy="736.6" r="3.5" fill="#16a34a" stroke="#fff" stroke-width="1.5"/>
<circle cx="468.2" cy="736.8" r="3.5" fill="#16a34a" stroke="#fff" stroke-width="1.5"/>
<circle cx="494.6" cy="736.4" r="3.5" fill="#16a34a" stroke="#fff" stroke-width="1.5"/>
<circle cx="521.0" cy="736.6" r="3.5" fill="#16a34a" stroke="#fff" stroke-width="1.5"/>
<circle cx="547.4" cy="736.9" r="3.5" fill="#16a34a" stroke="#fff" stroke-width="1.5"/>
<circle cx="573.8" cy="736.6" r="3.5" fill="#16a34a" stroke="#fff" stroke-width="1.5"/>
<circle cx="600.2" cy="737.2" r="3.5" fill="#16a34a" stroke="#fff" stroke-width="1.5"/>
<circle cx="626.6" cy="736.6" r="3.5" fill="#16a34a" stroke="#fff" stroke-width="1.5"/>
<circle cx="653.1" cy="736.7" r="3.5" fill="#16a34a" stroke="#fff" stroke-width="1.5"/>
<circle cx="679.5" cy="736.4" r="3.5" fill="#16a34a" stroke="#fff" stroke-width="1.5"/>
<circle cx="705.9" cy="736.9" r="3.5" fill="#16a34a" stroke="#fff" stroke-width="1.5"/>
<circle cx="732.3" cy="736.6" r="3.5" fill="#16a34a" stroke="#fff" stroke-width="1.5"/>
<circle cx="758.7" cy="736.8" r="3.5" fill="#16a34a" stroke="#fff" stroke-width="1.5"/>
<circle cx="785.1" cy="735.8" r="3.5" fill="#16a34a" stroke="#fff" stroke-width="1.5"/>
<circle cx="811.5" cy="737.5" r="3.5" fill="#16a34a" stroke="#fff" stroke-width="1.5"/>
<circle cx="837.9" cy="737.8" r="3.5" fill="#16a34a" stroke="#fff" stroke-width="1.5"/>
<circle cx="864.4" cy="735.6" r="3.5" fill="#16a34a" stroke="#fff" stroke-width="1.5"/>
<circle cx="890.8" cy="737.0" r="3.5" fill="#16a34a" stroke="#fff" stroke-width="1.5"/>
<circle cx="917.2" cy="736.6" r="3.5" fill="#16a34a" stroke="#fff" stroke-width="1.5"/>
<circle cx="943.6" cy="736.4" r="3.5" fill="#16a34a" stroke="#fff" stroke-width="1.5"/>
<circle cx="970.0" cy="735.7" r="3.5" fill="#16a34a" stroke="#fff" stroke-width="1.5"/>
<polyline fill="none" stroke="#ea580c" stroke-width="2" stroke-linejoin="round" points="72.0,695.4 98.4,695.6 124.8,696.8 151.2,594.9 177.6,592.3 204.1,592.1 230.5,593.6 256.9,503.6 283.3,519.8 309.7,724.5 336.1,723.0 362.5,723.1 388.9,722.7 415.4,721.9 441.8,722.1 468.2,721.5 494.6,721.5 521.0,721.6 547.4,721.9 573.8,722.0 600.2,722.2 626.6,721.9 653.1,722.4 679.5,722.2 705.9,722.3 732.3,722.2 758.7,722.5 785.1,721.2 811.5,724.6 837.9,725.1 864.4,723.0 890.8,723.7 917.2,721.8 943.6,723.3 970.0,721.8"/>
<circle cx="72.0" cy="695.4" r="3.5" fill="#ea580c" stroke="#fff" stroke-width="1.5"/>
<circle cx="98.4" cy="695.6" r="3.5" fill="#ea580c" stroke="#fff" stroke-width="1.5"/>
<circle cx="124.8" cy="696.8" r="3.5" fill="#ea580c" stroke="#fff" stroke-width="1.5"/>
<circle cx="151.2" cy="594.9" r="3.5" fill="#ea580c" stroke="#fff" stroke-width="1.5"/>
<circle cx="177.6" cy="592.3" r="3.5" fill="#ea580c" stroke="#fff" stroke-width="1.5"/>
<circle cx="204.1" cy="592.1" r="3.5" fill="#ea580c" stroke="#fff" stroke-width="1.5"/>
<circle cx="230.5" cy="593.6" r="3.5" fill="#ea580c" stroke="#fff" stroke-width="1.5"/>
<circle cx="256.9" cy="503.6" r="3.5" fill="#ea580c" stroke="#fff" stroke-width="1.5"/>
<circle cx="283.3" cy="519.8" r="3.5" fill="#ea580c" stroke="#fff" stroke-width="1.5"/>
<circle cx="309.7" cy="724.5" r="3.5" fill="#ea580c" stroke="#fff" stroke-width="1.5"/>
<circle cx="336.1" cy="723.0" r="3.5" fill="#ea580c" stroke="#fff" stroke-width="1.5"/>
<circle cx="362.5" cy="723.1" r="3.5" fill="#ea580c" stroke="#fff" stroke-width="1.5"/>
<circle cx="388.9" cy="722.7" r="3.5" fill="#ea580c" stroke="#fff" stroke-width="1.5"/>
<circle cx="415.4" cy="721.9" r="3.5" fill="#ea580c" stroke="#fff" stroke-width="1.5"/>
<circle cx="441.8" cy="722.1" r="3.5" fill="#ea580c" stroke="#fff" stroke-width="1.5"/>
<circle cx="468.2" cy="721.5" r="3.5" fill="#ea580c" stroke="#fff" stroke-width="1.5"/>
<circle cx="494.6" cy="721.5" r="3.5" fill="#ea580c" stroke="#fff" stroke-width="1.5"/>
<circle cx="521.0" cy="721.6" r="3.5" fill="#ea580c" stroke="#fff" stroke-width="1.5"/>
<circle cx="547.4" cy="721.9" r="3.5" fill="#ea580c" stroke="#fff" stroke-width="1.5"/>
<circle cx="573.8" cy="722.0" r="3.5" fill="#ea580c" stroke="#fff" stroke-width="1.5"/>
<circle cx="600.2" cy="722.2" r="3.5" fill="#ea580c" stroke="#fff" stroke-width="1.5"/>
<circle cx="626.6" cy="721.9" r="3.5" fill="#ea580c" stroke="#fff" stroke-width="1.5"/>
<circle cx="653.1" cy="722.4" r="3.5" fill="#ea580c" stroke="#fff" stroke-width="1.5"/>
<circle cx="679.5" cy="722.2" r="3.5" fill="#ea580c" stroke="#fff" stroke-width="1.5"/>
<circle cx="705.9" cy="722.3" r="3.5" fill="#ea580c" stroke="#fff" stroke-width="1.5"/>
<circle cx="732.3" cy="722.2" r="3.5" fill="#ea580c" stroke="#fff" stroke-width="1.5"/>
<circle cx="758.7" cy="722.5" r="3.5" fill="#ea580c" stroke="#fff" stroke-width="1.5"/>
<circle cx="785.1" cy="721.2" r="3.5" fill="#ea580c" stroke="#fff" stroke-width="1.5"/>
<circle cx="811.5" cy="724.6" r="3.5" fill="#ea580c" stroke="#fff" stroke-width="1.5"/>
<circle cx="837.9" cy="725.1" r="3.5" fill="#ea580c" stroke="#fff" stroke-width="1.5"/>
<circle cx="864.4" cy="723.0" r="3.5" fill="#ea580c" stroke="#fff" stroke-width="1.5"/>
<circle cx="890.8" cy="723.7" r="3.5" fill="#ea580c" stroke="#fff" stroke-width="1.5"/>
<circle cx="917.2" cy="721.8" r="3.5" fill="#ea580c" stroke="#fff" stroke-width="1.5"/>
<circle cx="943.6" cy="723.3" r="3.5" fill="#ea580c" stroke="#fff" stroke-width="1.5"/>
<circle cx="970.0" cy="721.8" r="3.5" fill="#ea580c" stroke="#fff" stroke-width="1.5"/>
<polyline fill="none" stroke="#dc2626" stroke-width="2" stroke-linejoin="round" points="72.0,694.1 98.4,697.2 124.8,696.0 151.2,578.7 177.6,573.1 204.1,579.6 230.5,577.7 256.9,483.1 283.3,488.9 309.7,717.6 336.1,720.0 362.5,719.7 388.9,720.1 415.4,718.0 441.8,719.2 468.2,717.9 494.6,718.3 521.0,719.2 547.4,719.3 573.8,719.3 600.2,719.3 626.6,719.0 653.1,719.3 679.5,719.3 705.9,719.1 732.3,719.5 758.7,719.2 785.1,718.3 811.5,722.2 837.9,722.5 864.4,720.7 890.8,721.2 917.2,719.8 943.6,719.7 970.0,719.7"/>
<circle cx="72.0" cy="694.1" r="3.5" fill="#dc2626" stroke="#fff" stroke-width="1.5"/>
<circle cx="98.4" cy="697.2" r="3.5" fill="#dc2626" stroke="#fff" stroke-width="1.5"/>
<circle cx="124.8" cy="696.0" r="3.5" fill="#dc2626" stroke="#fff" stroke-width="1.5"/>
<circle cx="151.2" cy="578.7" r="3.5" fill="#dc2626" stroke="#fff" stroke-width="1.5"/>
<circle cx="177.6" cy="573.1" r="3.5" fill="#dc2626" stroke="#fff" stroke-width="1.5"/>
<circle cx="204.1" cy="579.6" r="3.5" fill="#dc2626" stroke="#fff" stroke-width="1.5"/>
<circle cx="230.5" cy="577.7" r="3.5" fill="#dc2626" stroke="#fff" stroke-width="1.5"/>
<circle cx="256.9" cy="483.1" r="3.5" fill="#dc2626" stroke="#fff" stroke-width="1.5"/>
<circle cx="283.3" cy="488.9" r="3.5" fill="#dc2626" stroke="#fff" stroke-width="1.5"/>
<circle cx="309.7" cy="717.6" r="3.5" fill="#dc2626" stroke="#fff" stroke-width="1.5"/>
<circle cx="336.1" cy="720.0" r="3.5" fill="#dc2626" stroke="#fff" stroke-width="1.5"/>
<circle cx="362.5" cy="719.7" r="3.5" fill="#dc2626" stroke="#fff" stroke-width="1.5"/>
<circle cx="388.9" cy="720.1" r="3.5" fill="#dc2626" stroke="#fff" stroke-width="1.5"/>
<circle cx="415.4" cy="718.0" r="3.5" fill="#dc2626" stroke="#fff" stroke-width="1.5"/>
<circle cx="441.8" cy="719.2" r="3.5" fill="#dc2626" stroke="#fff" stroke-width="1.5"/>
<circle cx="468.2" cy="717.9" r="3.5" fill="#dc2626" stroke="#fff" stroke-width="1.5"/>
<circle cx="494.6" cy="718.3" r="3.5" fill="#dc2626" stroke="#fff" stroke-width="1.5"/>
<circle cx="521.0" cy="719.2" r="3.5" fill="#dc2626" stroke="#fff" stroke-width="1.5"/>
<circle cx="547.4" cy="719.3" r="3.5" fill="#dc2626" stroke="#fff" stroke-width="1.5"/>
<circle cx="573.8" cy="719.3" r="3.5" fill="#dc2626" stroke="#fff" stroke-width="1.5"/>
<circle cx="600.2" cy="719.3" r="3.5" fill="#dc2626" stroke="#fff" stroke-width="1.5"/>
<circle cx="626.6" cy="719.0" r="3.5" fill="#dc2626" stroke="#fff" stroke-width="1.5"/>
<circle cx="653.1" cy="719.3" r="3.5" fill="#dc2626" stroke="#fff" stroke-width="1.5"/>
<circle cx="679.5" cy="719.3" r="3.5" fill="#dc2626" stroke="#fff" stroke-width="1.5"/>
<circle cx="705.9" cy="719.1" r="3.5" fill="#dc2626" stroke="#fff" stroke-width="1.5"/>
<circle cx="732.3" cy="719.5" r="3.5" fill="#dc2626" stroke="#fff" stroke-width="1.5"/>
<circle cx="758.7" cy="719.2" r="3.5" fill="#dc2626" stroke="#fff" stroke-width="1.5"/>
<circle cx="785.1" cy="718.3" r="3.5" fill="#dc2626" stroke="#fff" stroke-width="1.5"/>
<circle cx="811.5" cy="722.2" r="3.5" fill="#dc2626" stroke="#fff" stroke-width="1.5"/>
<circle cx="837.9" cy="722.5" r="3.5" fill="#dc2626" stroke="#fff" stroke-width="1.5"/>
<circle cx="864.4" cy="720.7" r="3.5" fill="#dc2626" stroke="#fff" stroke-width="1.5"/>
<circle cx="890.8" cy="721.2" r="3.5" fill="#dc2626" stroke="#fff" stroke-width="1.5"/>
<circle cx="917.2" cy="719.8" r="3.5" fill="#dc2626" stroke="#fff" stroke-width="1.5"/>
<circle cx="943.6" cy="719.7" r="3.5" fill="#dc2626" stroke="#fff" stroke-width="1.5"/>
<circle cx="970.0" cy="719.7" r="3.5" fill="#dc2626" stroke="#fff" stroke-width="1.5"/>
<circle cx="986" cy="454" r="5" fill="#2563eb"/>
<text x="998" y="458" font-size="12" fill="#334155">small</text>
<circle cx="986" cy="476" r="5" fill="#16a34a"/>
<text x="998" y="480" font-size="12" fill="#334155">medium</text>
<circle cx="986" cy="498" r="5" fill="#ea580c"/>
<text x="998" y="502" font-size="12" fill="#334155">large</text>
<circle cx="986" cy="520" r="5" fill="#dc2626"/>
<text x="998" y="524" font-size="12" fill="#334155">stress</text>
</svg>
